<svg width="234" height="234" viewBox="0 0 234 234" fill="none" xmlns="http://www.w3.org/2000/svg">
<path d="M40.3791 209.477C-1.93283 185.047 -1.93283 145.436 40.3791 121.025C82.6909 96.6139 151.295 96.5952 193.621 121.025C235.947 145.454 235.933 185.066 193.621 209.477C151.309 233.888 82.6956 233.911 40.3791 209.477Z" fill="#F5F5F5"/>
<path d="M174.026 155.24C178.636 149.746 185.857 146.166 193.977 144.05C201.998 141.968 203.435 137.03 198.118 135.435C192.095 133.619 184.579 136.951 179.731 141.589C171.288 149.671 170.226 155.844 170.226 155.844L174.026 155.24Z" fill="#0018F9"/>
<path opacity="0.15" d="M174.026 155.24C178.636 149.746 185.857 146.166 193.977 144.05C201.998 141.968 203.435 137.03 198.118 135.435C192.095 133.619 184.579 136.951 179.731 141.589C171.288 149.671 170.226 155.844 170.226 155.844L174.026 155.24Z" fill="black"/>
<path d="M171.653 154.908C171.619 154.915 171.584 154.915 171.55 154.908C171.522 154.895 171.498 154.876 171.477 154.853C171.457 154.83 171.441 154.803 171.431 154.774C171.421 154.744 171.417 154.714 171.419 154.683C171.421 154.652 171.429 154.622 171.442 154.594C178.285 140.554 193.438 137.101 197.108 137.363C197.169 137.367 197.226 137.396 197.266 137.443C197.306 137.489 197.327 137.549 197.323 137.611C197.317 137.672 197.287 137.729 197.24 137.769C197.193 137.81 197.132 137.83 197.07 137.826C193.476 137.555 178.598 140.976 171.864 154.8C171.841 154.835 171.809 154.863 171.772 154.881C171.735 154.9 171.694 154.909 171.653 154.908Z" fill="white"/>
<path d="M170.226 156.7C170.226 156.926 170.286 157.148 170.4 157.343C170.514 157.538 170.677 157.699 170.873 157.81C171.07 157.922 171.292 157.979 171.518 157.976C171.744 157.974 171.965 157.911 172.158 157.796C176.445 155.301 182.698 153.921 192.816 156.803C198.198 158.334 200.847 157.309 201.979 155.119C203.243 152.685 200.575 150.331 197.533 149.222C187.177 145.436 177.831 148.019 170.226 155.573V156.7Z" fill="#0018F9"/>
<path d="M170.82 156.902C170.787 156.902 170.754 156.896 170.723 156.883C170.693 156.87 170.665 156.851 170.642 156.827C170.599 156.782 170.575 156.723 170.575 156.661C170.575 156.599 170.599 156.539 170.642 156.495C179.586 148.501 193.438 150.06 198.68 153.176C198.733 153.208 198.772 153.259 198.788 153.318C198.803 153.378 198.795 153.441 198.764 153.495C198.732 153.548 198.68 153.587 198.62 153.603C198.56 153.618 198.496 153.61 198.441 153.579C193.293 150.523 179.721 149.002 170.956 156.855C170.916 156.883 170.869 156.9 170.82 156.902Z" fill="white"/>
<path d="M70.1626 175.336C66.2314 169.336 59.4829 164.928 51.6673 161.872C43.9546 158.858 43.1075 153.789 48.5738 152.825C54.7701 151.735 61.8416 155.933 66.1097 161.109C73.5416 170.132 73.8645 176.399 73.8645 176.399L70.1626 175.336Z" fill="#0018F9"/>
<path opacity="0.15" d="M70.1626 175.336C66.2314 169.336 59.4829 164.928 51.6673 161.872C43.9546 158.858 43.1075 153.789 48.5738 152.825C54.7701 151.735 61.8416 155.933 66.1097 161.109C73.5416 170.132 73.8645 176.399 73.8645 176.399L70.1626 175.336Z" fill="black"/>
<path d="M72.54 175.299C72.574 175.305 72.609 175.305 72.643 175.299C72.7014 175.278 72.7493 175.234 72.7764 175.178C72.8035 175.123 72.8077 175.058 72.7881 174.999C67.6401 160.253 53.0198 155.034 49.3319 154.875C49.2706 154.873 49.2108 154.894 49.1652 154.935C49.1197 154.977 49.0922 155.034 49.0886 155.095C49.0872 155.157 49.1097 155.218 49.1515 155.264C49.1933 155.31 49.2511 155.338 49.3132 155.343C52.9168 155.493 67.2844 160.646 72.3435 175.168C72.3617 175.205 72.3895 175.237 72.424 175.26C72.4586 175.283 72.4986 175.296 72.54 175.299Z" fill="white"/>
<path d="M73.8972 176.113C73.8605 176.446 73.7387 176.763 73.5436 177.035C73.3485 177.307 73.0865 177.524 72.7832 177.665C72.4798 177.806 72.1451 177.866 71.8115 177.841C71.4779 177.815 71.1566 177.703 70.8786 177.517C66.91 174.859 60.9992 173.132 51.3162 174.709C45.7938 175.594 43.2854 174.241 42.4242 171.953C41.4602 169.388 44.3898 167.371 47.5395 166.627C58.2707 164.09 67.247 167.759 73.9066 176.151L73.8972 176.113Z" fill="#0018F9"/>
<path d="M73.1578 177.372C73.1905 177.377 73.2238 177.374 73.2553 177.364C73.2869 177.355 73.3159 177.338 73.3403 177.316C73.3835 177.271 73.4076 177.212 73.4076 177.15C73.4076 177.088 73.3835 177.028 73.3403 176.984C65.3843 167.993 51.4613 167.904 45.8874 170.38C45.8303 170.406 45.7857 170.453 45.7633 170.511C45.7409 170.569 45.7426 170.634 45.7681 170.691C45.7935 170.748 45.8406 170.793 45.899 170.815C45.9573 170.838 46.0222 170.836 46.0793 170.811C51.5409 168.382 65.2065 168.471 72.9893 177.292C73.0096 177.317 73.0353 177.338 73.0645 177.351C73.0937 177.365 73.1255 177.372 73.1578 177.372Z" fill="white"/>
<path d="M178.224 68.4076L178.149 68.3701L160.309 58.1022L160.201 58.0507C151.866 53.8387 140.746 55.107 128.784 62.8384C104.757 78.376 86.449 114.141 87.8904 142.721C88.6064 156.963 94.1008 166.73 102.398 171.026L102.469 171.063L120.313 181.336L120.398 181.383C128.733 185.595 139.862 184.345 151.833 176.604C175.86 161.067 194.169 125.302 192.727 96.7216C192.02 82.471 186.526 72.7038 178.224 68.4076Z" fill="#37474F"/>
<path d="M119.7 181.004L102.492 171.054L102.408 171.003C94.1102 166.697 88.6205 156.93 87.8998 142.707C87.2586 129.959 90.5487 115.793 96.511 102.637L96.628 102.347L114.356 112.905C108.384 126.06 105.103 140.227 105.745 152.975C106.423 166.917 111.698 176.567 119.7 181.004Z" fill="#263238"/>
<path d="M151.843 176.595C175.87 161.058 194.178 125.293 192.736 96.7122C191.295 68.1314 170.647 57.564 146.62 73.1016C122.593 88.6392 104.28 124.404 105.721 152.98C107.163 181.556 127.815 192.133 151.843 176.595Z" fill="#455A64"/>
<path d="M172.191 66.1892L142.075 128.232L135.594 121.212C133.661 119.2 131.016 118.026 128.227 117.942C125.439 117.859 122.728 118.872 120.678 120.765C118.629 122.658 117.403 125.279 117.265 128.066C117.127 130.852 118.087 133.582 119.939 135.669L137.016 154.169C138.894 156.209 141.497 157.432 144.266 157.576C144.462 157.576 144.659 157.576 144.855 157.576C145.372 157.575 145.888 157.538 146.4 157.463C148.119 157.213 149.75 156.546 151.152 155.519C152.554 154.493 153.682 153.139 154.44 151.576L188.978 80.4398C185.436 72.54 179.539 67.6447 172.191 66.1892Z" fill="#37474F"/>
<path d="M196.649 45.7564C196.462 45.6487 196.265 45.5458 196.069 45.4522C193.861 44.3826 191.32 44.2322 189.002 45.0341C186.684 45.8361 184.778 47.5247 183.704 49.7297L145.384 128.663L143.203 126.323C142.574 125.635 141.841 125.049 141.032 124.586C139.89 123.931 135.032 121.118 134.246 120.664C132.329 119.556 130.079 119.171 127.903 119.58C125.727 119.989 123.77 121.165 122.387 122.894C121.004 124.623 120.287 126.79 120.366 129.003C120.445 131.215 121.315 133.326 122.817 134.952L139.895 153.448C140.535 154.143 141.278 154.735 142.099 155.203C143.213 155.835 148.052 158.643 148.847 159.101C149.948 159.739 151.168 160.142 152.431 160.287C153.695 160.431 154.974 160.314 156.19 159.942C157.406 159.57 158.533 158.952 159.499 158.125C160.465 157.298 161.251 156.281 161.806 155.137L207.141 61.7573C208.161 59.6527 208.347 57.2405 207.662 55.0046C206.977 52.7687 205.472 50.8744 203.449 49.7016L196.649 45.7564Z" fill="#0018F9"/>
<path opacity="0.15" d="M196.649 45.7564C196.462 45.6487 196.265 45.5458 196.069 45.4522C193.861 44.3826 191.32 44.2322 189.002 45.0341C186.684 45.8361 184.778 47.5247 183.704 49.7297L145.384 128.663L143.203 126.323C142.574 125.635 141.841 125.049 141.032 124.586C139.89 123.931 135.032 121.118 134.246 120.664C132.329 119.556 130.079 119.171 127.903 119.58C125.727 119.989 123.77 121.165 122.387 122.894C121.004 124.623 120.287 126.79 120.366 129.003C120.445 131.215 121.315 133.326 122.817 134.952L139.895 153.448C140.535 154.143 141.278 154.735 142.099 155.203C143.213 155.835 148.052 158.643 148.847 159.101C149.948 159.739 151.168 160.142 152.431 160.287C153.695 160.431 154.974 160.314 156.19 159.942C157.406 159.57 158.533 158.952 159.499 158.125C160.465 157.298 161.251 156.281 161.806 155.137L207.141 61.7573C208.161 59.6527 208.347 57.2405 207.662 55.0046C206.977 52.7687 205.472 50.8744 203.449 49.7016L196.649 45.7564Z" fill="black"/>
<path opacity="0.15" d="M148.824 159.083C148.038 158.615 143.208 155.807 142.08 155.184C141.26 154.716 140.516 154.124 139.876 153.429L122.799 134.934C122.046 134.112 121.448 133.161 121.034 132.126L127.825 136.043C128.237 137.081 128.838 138.033 129.599 138.851L146.671 157.346C147.299 158.028 148.025 158.613 148.824 159.083Z" fill="black"/>
<path opacity="0.15" d="M192.643 50.8061C191.751 51.6067 191.023 52.5731 190.499 53.6515L151.085 134.84L145.384 128.663L183.704 49.7297C184.226 48.6493 184.956 47.6824 185.852 46.8842L192.643 50.8061Z" fill="black"/>
<path d="M202.864 49.374C200.656 48.307 198.116 48.158 195.798 48.9596C193.481 49.7613 191.576 51.4483 190.499 53.6515L151.084 134.84L143.208 126.304C141.522 124.592 139.237 123.603 136.834 123.546C134.432 123.49 132.103 124.371 130.339 126.002C128.575 127.633 127.515 129.887 127.384 132.286C127.253 134.686 128.06 137.042 129.636 138.856L146.709 157.356C147.731 158.461 149.007 159.301 150.427 159.801C151.847 160.302 153.368 160.448 154.857 160.228C156.347 160.007 157.76 159.427 158.974 158.537C160.188 157.646 161.167 156.473 161.825 155.119L207.16 61.7386C208.228 59.529 208.376 56.9857 207.57 54.6673C206.765 52.349 205.072 50.4451 202.864 49.374Z" fill="#0018F9"/>
<path d="M168.302 43.6738L165.677 44.4647L163.781 38.1326L166.397 37.3464L168.302 43.6738Z" fill="#E0E0E0"/>
<path d="M176.497 38.0531C176.519 38.3099 176.458 38.5671 176.325 38.7874C176.191 39.0078 175.991 39.18 175.753 39.2792C175.923 39.4728 176.049 39.7012 176.122 39.9485C176.272 40.4165 175.874 41.0951 175.083 41.3525L169.079 43.159L167.315 37.2762C167.315 37.2762 168.33 34.6788 168.382 34.2857C168.433 33.8926 167.834 32.4511 167.75 32.1797C167.666 31.9082 168.639 31.5526 169.407 31.8614C169.585 31.9408 169.745 32.0573 169.875 32.2031C170.151 32.4971 170.382 32.8297 170.563 33.1906C170.817 33.7048 170.943 34.2735 170.928 34.8473L174.564 33.7381C174.815 33.6473 175.09 33.6473 175.341 33.7381C175.505 33.803 175.65 33.9093 175.761 34.0466C175.872 34.184 175.946 34.3477 175.975 34.5219C176.004 34.6962 175.988 34.875 175.928 35.0411C175.867 35.2071 175.765 35.3548 175.631 35.4697C175.847 35.454 176.063 35.5115 176.243 35.6328C176.423 35.7542 176.557 35.9324 176.623 36.139C176.679 36.3791 176.649 36.631 176.54 36.852C176.431 37.073 176.249 37.2493 176.024 37.3511C176.267 37.5148 176.436 37.7666 176.497 38.0531Z" fill="#E0E0E0"/>
<path d="M205.92 109.329L202.555 108.52L204.516 100.405L207.881 101.214L205.92 109.329Z" fill="#E0E0E0"/>
<path d="M218.448 108.417C218.309 108.711 218.079 108.953 217.794 109.109C217.508 109.264 217.18 109.325 216.857 109.283C216.918 109.602 216.91 109.931 216.834 110.247C216.684 110.879 215.828 111.342 214.817 111.094L207.113 109.222L208.929 101.682C208.929 101.682 211.695 99.4968 211.999 99.099C212.304 98.7012 212.566 96.759 212.65 96.3986C212.734 96.0383 214.021 96.2816 214.662 97.11C214.818 97.3112 214.927 97.5447 214.98 97.7933C215.094 98.2886 215.135 98.7978 215.102 99.3049C215.051 100.029 214.827 100.731 214.447 101.35L219.099 102.473C219.429 102.543 219.724 102.727 219.932 102.993C220.047 103.144 220.129 103.319 220.172 103.504C220.214 103.69 220.217 103.882 220.18 104.069C220.118 104.315 219.988 104.539 219.805 104.715C219.622 104.891 219.394 105.013 219.146 105.066C219.392 105.187 219.59 105.386 219.709 105.633C219.828 105.88 219.86 106.16 219.801 106.428C219.706 106.724 219.513 106.978 219.253 107.148C218.993 107.319 218.683 107.395 218.373 107.364C218.534 107.692 218.561 108.07 218.448 108.417Z" fill="#E0E0E0"/>
<path d="M35.9518 104.476L39.6256 105.581L42.2838 96.7169L38.6147 95.6124L35.9518 104.476Z" fill="#E0E0E0"/>
<path d="M24.4717 96.5999C24.441 96.9598 24.5256 97.3202 24.7132 97.629C24.9008 97.9377 25.1817 98.1788 25.5153 98.3174C25.2795 98.5895 25.104 98.9085 25.0005 99.2534C24.7899 99.9414 25.3515 100.863 26.4513 101.191L34.8753 103.723L37.337 95.472C37.337 95.472 35.9096 91.831 35.8394 91.26C35.7692 90.689 36.6116 88.6954 36.7239 88.3116C36.8175 88.0027 35.479 87.4364 34.3839 87.8717C34.1235 87.9737 33.8899 88.1338 33.7006 88.3397C33.3118 88.7575 32.9869 89.2307 32.7366 89.7437C32.3779 90.4705 32.2013 91.2735 32.2218 92.0837L27.1674 90.558C26.8109 90.4408 26.4244 90.454 26.0769 90.5954C25.8466 90.6861 25.6437 90.8349 25.488 91.0273C25.3323 91.2198 25.2291 91.4493 25.1886 91.6935C25.1481 91.9377 25.1715 92.1882 25.2567 92.4206C25.3418 92.6531 25.4857 92.8595 25.6744 93.0197C25.369 92.9935 25.0637 93.0718 24.8086 93.2419C24.5535 93.4119 24.3637 93.6636 24.2704 93.9557C24.1926 94.2927 24.2335 94.6462 24.3861 94.9565C24.5387 95.2669 24.7938 95.5151 25.1082 95.6592C24.7875 95.8838 24.5609 96.2187 24.4717 96.5999Z" fill="#E0E0E0"/>
</svg>
