 <svg width="20" height="13" viewBox="0 0 20 13" fill="none" xmlns="http://www.w3.org/2000/svg">
    <path fill-rule="evenodd" clip-rule="evenodd" d="M0.416681 5H19.5834C19.8334 5 20 5.16001 20 5.40001V11C20 12.12 19.0834 13 17.9167 13H2.08332C0.916682 13 0 12.12 0 11V5.40001C0 5.16001 0.16668 5 0.416681 5ZM6.25001 8.20003H2.91669C2.66668 8.20003 2.5 8.36001 2.5 8.60001C2.5 8.84001 2.66668 9.00002 2.91669 9.00006H6.25001C6.50001 9.00006 6.66669 8.84004 6.66669 8.60004C6.66669 8.36004 6.50001 8.20003 6.25001 8.20003ZM8.75002 10.6H2.91669C2.66668 10.6 2.5 10.44 2.5 10.2C2.5 9.96002 2.66668 9.80001 2.91669 9.80001H8.75002C9.00002 9.80001 9.1667 9.96002 9.1667 10.2C9.1667 10.44 9.00002 10.6 8.75002 10.6ZM15 10.36C15.25 10.52 15.5 10.6 15.8334 10.6C16.75 10.6 17.5 9.88003 17.5 9.00002C17.5 8.12 16.75 7.4 15.8334 7.4C15.5 7.4 15.25 7.47999 15 7.64C14.75 7.47999 14.5 7.4 14.1667 7.4C13.25 7.4 12.5 8.12 12.5 9.00002C12.5 9.88003 13.25 10.6 14.1667 10.6C14.5 10.6 14.75 10.52 15 10.36Z" fill="white"/>
    <path d="M17.9166 0H2.08332C0.916678 0 0 1.10001 0 2.50001V3.49999C0 3.79999 0.166679 4 0.416679 4H19.5833C19.8333 4 20 3.79999 20 3.49999V2.50001C20 1.10001 19.0833 0 17.9166 0Z" fill="white"/>
</svg>