<svg width="372" height="372" viewBox="0 0 372 372" fill="none" xmlns="http://www.w3.org/2000/svg">
<path d="M186 359.888C282.438 359.888 360.617 313.384 360.617 256.018C360.617 198.652 282.438 152.148 186 152.148C89.5619 152.148 11.3833 198.652 11.3833 256.018C11.3833 313.384 89.5619 359.888 186 359.888Z" fill="#F5F5F5"/>
<path d="M319.533 271.181L352.812 252C352.982 251.943 353.13 251.834 353.234 251.689C353.339 251.543 353.395 251.368 353.395 251.189C353.395 251.01 353.339 250.835 353.234 250.69C353.13 250.544 352.982 250.435 352.812 250.378L270.556 202.71C270.122 202.49 269.643 202.375 269.157 202.375C268.671 202.375 268.191 202.49 267.758 202.71L234.472 221.891C234.302 221.948 234.154 222.057 234.049 222.202C233.945 222.348 233.889 222.522 233.889 222.702C233.889 222.881 233.945 223.055 234.049 223.201C234.154 223.346 234.302 223.455 234.472 223.512L316.728 271.181C317.163 271.401 317.643 271.516 318.131 271.516C318.618 271.516 319.098 271.401 319.533 271.181Z" fill="#E6E6E6"/>
<path d="M266.508 252.142C237.775 235.55 183.924 239.747 146.218 261.516L130.654 270.504C92.9551 292.266 85.6788 323.365 114.419 339.956C143.16 356.547 197.003 352.351 234.717 330.582L250.274 321.601C287.972 299.832 295.249 268.74 266.508 252.142Z" fill="#E0E0E0"/>
<path d="M129.389 237.73L76.8402 207.42C75.5589 206.767 74.1415 206.427 72.7036 206.427C71.2657 206.427 69.8482 206.767 68.5669 207.42L23.488 233.564C21.2039 234.896 21.2039 237.038 23.488 238.355L76.0292 268.673C77.3105 269.326 78.728 269.666 80.1659 269.666C81.6038 269.666 83.0213 269.326 84.3025 268.673L129.396 242.544C131.688 241.197 131.688 239.055 129.389 237.73Z" fill="#E0E0E0"/>
<path d="M312.487 252.625L315.344 266.806L318.127 268.413L320.88 266.821L323.766 252.625L318.127 249.374L312.487 252.625Z" fill="#E0E0E0"/>
<path opacity="0.05" d="M312.487 252.625L315.344 266.806L318.127 268.413L320.88 266.821L323.766 252.625L318.127 249.374L312.487 252.625Z" fill="black"/>
<path d="M318.127 268.413V255.884L312.487 252.625L315.344 266.806L318.127 268.413Z" fill="#EBEBEB"/>
<path opacity="0.05" d="M312.487 252.625L314.332 261.784L318.127 263.979L321.899 261.799L323.766 252.625L318.127 249.374L312.487 252.625Z" fill="black"/>
<path d="M337.277 238.318L340.134 252.499L342.917 254.106L345.67 252.514L348.549 238.318L342.917 235.059L337.277 238.318Z" fill="#E0E0E0"/>
<path opacity="0.05" d="M337.277 238.318L340.134 252.499L342.917 254.106L345.67 252.514L348.549 238.318L342.917 235.059L337.277 238.318Z" fill="black"/>
<path d="M342.917 254.106V241.569L337.277 238.318L340.134 252.499L342.917 254.106Z" fill="#EBEBEB"/>
<path opacity="0.05" d="M337.277 238.318L339.122 247.477L342.917 249.664L346.689 247.484L348.549 238.318L342.917 235.059L337.277 238.318Z" fill="black"/>
<path opacity="0.05" d="M239.166 210.292L242.023 224.472L244.798 226.079L247.558 224.487L250.438 210.292L244.798 207.04L239.166 210.292Z" fill="black"/>
<path d="M244.798 226.079V213.543L239.166 210.292L242.023 224.472L244.798 226.079Z" fill="#EBEBEB"/>
<path opacity="0.05" d="M239.166 210.292L241.011 219.45L244.798 221.638L248.578 219.458L250.438 210.292L244.798 207.04L239.166 210.292Z" fill="black"/>
<path d="M318.127 261.687L348.847 243.95V177.466L318.127 195.196V261.687Z" fill="#E0E0E0"/>
<path d="M318.127 195.196L237.566 148.688V215.172L318.127 261.687V195.196Z" fill="#EBEBEB"/>
<path d="M237.566 148.688L318.127 195.196L348.846 177.466L268.286 130.951L237.566 148.688Z" fill="#F5F5F5"/>
<path d="M313.737 228.133L241.956 186.692V211.095L241.145 211.556L312.934 253.005L313.737 252.536V228.133Z" fill="#E0E0E0"/>
<path d="M312.934 228.601L241.145 187.161V211.556L312.934 253.005V228.601Z" fill="#F5F5F5"/>
<path d="M278.419 213.29L272.467 209.838C271.686 209.391 271.061 209.6 271.061 210.299C271.117 210.731 271.274 211.143 271.518 211.504C271.762 211.864 272.087 212.162 272.467 212.375L278.419 215.819C279.163 216.266 279.825 216.065 279.825 215.366C279.767 214.934 279.61 214.523 279.366 214.162C279.122 213.802 278.798 213.504 278.419 213.29Z" fill="#E0E0E0"/>
<path d="M313.737 198.67L241.956 157.229V181.625L241.152 182.094L312.933 223.542L313.737 223.073V198.67Z" fill="#E0E0E0"/>
<path d="M312.934 199.139L241.145 157.691L241.152 182.094L312.934 223.542V199.139Z" fill="#F5F5F5"/>
<path d="M278.419 183.828L272.467 180.375C271.723 179.929 271.061 180.137 271.061 180.837C271.119 181.268 271.276 181.68 271.52 182.04C271.764 182.4 272.088 182.699 272.467 182.912L278.419 186.357C279.163 186.804 279.825 186.603 279.825 185.903C279.767 185.472 279.61 185.06 279.366 184.7C279.122 184.34 278.798 184.041 278.419 183.828Z" fill="#E0E0E0"/>
<path d="M257.997 139.515C254.277 141.665 254.277 145.147 257.997 147.297C261.717 149.447 267.758 149.447 271.486 147.297C275.213 145.147 275.206 141.665 271.486 139.515C267.766 137.365 261.724 137.365 257.997 139.515Z" fill="#E0E0E0"/>
<path d="M270.675 143.89C273.918 140.579 275.823 132.313 272.654 129.694H256.561C253.399 132.313 255.304 140.571 258.547 143.882L258.629 143.979L258.741 144.083C258.837 144.172 258.934 144.262 259.038 144.343L259.113 144.403L259.358 144.589C259.493 144.689 259.634 144.778 259.782 144.857C261.281 145.619 262.938 146.016 264.618 146.016C266.299 146.016 267.956 145.619 269.454 144.857C269.601 144.776 269.742 144.686 269.878 144.589C269.956 144.536 270.03 144.479 270.102 144.418L270.198 144.343C270.303 144.262 270.392 144.172 270.481 144.09L270.615 143.964L270.675 143.89Z" fill="#EBEBEB"/>
<path d="M257.96 128.638C254.284 130.751 254.284 134.195 257.96 136.316C261.635 138.436 267.587 138.436 271.255 136.316C274.923 134.195 274.93 130.751 271.255 128.638C267.58 126.525 261.635 126.517 257.96 128.638Z" fill="#FAFAFA"/>
<path d="M260.564 130.14C258.332 131.428 258.332 133.518 260.564 134.805C261.818 135.443 263.204 135.775 264.611 135.775C266.018 135.775 267.405 135.443 268.658 134.805C270.89 133.518 270.89 131.428 268.658 130.14C267.405 129.503 266.018 129.17 264.611 129.17C263.204 129.17 261.818 129.503 260.564 130.14Z" fill="#F5F5F5"/>
<path d="M268.651 132.358C267.398 131.721 266.013 131.389 264.607 131.389C263.202 131.389 261.817 131.721 260.564 132.358C260.022 132.648 259.561 133.07 259.225 133.585C259.564 134.096 260.024 134.515 260.564 134.805C261.817 135.442 263.202 135.774 264.607 135.774C266.013 135.774 267.398 135.442 268.651 134.805C269.193 134.517 269.653 134.098 269.99 133.585C269.656 133.069 269.195 132.646 268.651 132.358Z" fill="#EBEBEB"/>
<path d="M261.055 133.585C259.914 132.422 258.931 131.114 258.131 129.694C256.777 127.298 256.531 124.099 257.23 123.742C257.93 123.385 260.772 126.48 260.772 126.48C260.512 125.137 260.413 123.769 260.474 122.403C260.593 120.275 261.107 118.341 261.717 117.939C262.327 117.537 263.688 120.238 264.276 122.18C264.864 124.122 265.214 125.729 265.214 125.729C265.446 124.215 265.797 122.723 266.263 121.265C266.969 119.248 267.609 118.787 268.108 118.988C268.606 119.189 268.941 120.126 269.082 122.82C269.136 124.105 269.096 125.393 268.963 126.673C268.963 126.673 269.968 125.572 271.084 124.501C272.2 123.43 272.825 123.162 273.174 123.385C273.524 123.608 273.621 125.438 271.731 128.861C270.787 130.605 269.58 132.194 268.152 133.57C268.152 133.57 265.533 135.274 261.055 133.585Z" fill="#E0E0E0"/>
<path d="M314.057 180.941L312.859 181.521L290.703 168.732L291.901 168.151L314.057 180.941Z" fill="#FAFAFA"/>
<path d="M291.901 168.151L312.978 180.316L316.044 148.793L294.966 136.636L291.901 168.151Z" fill="white"/>
<path d="M288.449 169.781L314.712 184.921L318.328 147.721L292.094 132.573L288.449 169.781ZM293.88 136.003L316.044 148.8L312.859 181.536L290.703 168.747L293.88 136.003Z" fill="#F0F0F0"/>
<path d="M290.703 168.732L291.901 168.151L294.966 136.636L293.887 136.003L290.703 168.732Z" fill="#E0E0E0"/>
<path d="M292.064 132.596L293.277 132.038L319.511 147.178L318.298 147.743L292.064 132.596Z" fill="#FAFAFA"/>
<path d="M319.511 147.178L318.298 147.743L314.682 184.921L315.895 184.363L319.511 147.178Z" fill="#E0E0E0"/>
<path d="M292.831 167.556L312.257 178.768L312.778 173.463L309.162 157.861L305.717 163.181L306.431 167.667L300.688 151.113L293.344 162.243L292.831 167.556Z" fill="#F0F0F0"/>
<path d="M309.459 151.292C309.865 151.544 310.197 151.898 310.422 152.319C310.648 152.739 310.76 153.211 310.747 153.688C310.657 154.559 309.95 154.893 309.154 154.432C308.749 154.178 308.417 153.823 308.191 153.402C307.966 152.98 307.854 152.507 307.867 152.029C307.957 151.166 308.663 150.831 309.459 151.292Z" fill="#F0F0F0"/>
<path d="M279.499 276.433C279.499 289.959 267.595 304.876 247.752 316.356L232.47 325.18C211.795 337.084 185.546 343.959 160.429 343.959C143.019 343.959 128.087 340.64 117.277 334.383C106.935 328.431 101.467 320.366 101.467 311.126C101.467 297.6 113.371 282.683 133.213 271.21L148.502 262.379C169.171 250.475 195.434 243.6 220.551 243.6C237.946 243.6 252.878 246.919 263.703 253.183C274.03 259.15 279.499 267.193 279.499 276.433Z" fill="#0018F9"/>
<path d="M160.421 343.959C143.019 343.959 128.087 340.64 117.269 334.383C106.928 328.431 101.467 320.366 101.467 311.126C101.467 297.607 113.334 282.683 133.213 271.203L148.495 262.386C169.163 250.482 195.419 243.608 220.537 243.608C237.939 243.608 252.871 246.919 263.689 253.176C274.03 259.128 279.499 267.193 279.499 276.433C279.499 289.952 267.595 304.876 247.752 316.356L232.47 325.18C211.802 337.084 185.539 343.959 160.429 343.959H160.421Z" fill="#0018F9"/>
<path opacity="0.7" d="M279.499 276.433C279.499 289.959 267.595 304.876 247.752 316.356L232.47 325.18C211.795 337.084 185.546 343.959 160.429 343.959C143.019 343.959 128.087 340.64 117.277 334.383C106.935 328.431 101.467 320.366 101.467 311.126C101.467 297.6 113.371 282.683 133.213 271.21L148.502 262.379C169.171 250.475 195.434 243.6 220.551 243.6C237.946 243.6 252.878 246.919 263.703 253.183C274.03 259.15 279.499 267.193 279.499 276.433Z" fill="white"/>
<path d="M167.259 333.029C153.725 333.029 142.104 330.448 133.652 325.589C125.506 320.887 121.198 314.526 121.198 307.205C121.198 296.581 130.461 284.885 145.973 275.957L157.78 269.142C173.821 259.879 194.199 254.567 213.684 254.567C227.218 254.567 238.839 257.149 247.291 262.007C255.438 266.709 259.745 273.07 259.745 280.391C259.745 291.016 250.49 302.711 234.978 311.639L223.2 318.432C207.122 327.717 186.744 333.029 167.259 333.029ZM167.259 332.062C186.603 332.062 206.78 326.802 222.679 317.621L234.487 310.806C249.694 302.027 258.771 290.651 258.771 280.376C258.771 273.42 254.634 267.349 246.8 262.825C238.489 258.034 227.039 255.497 213.677 255.497C194.333 255.497 174.156 260.765 158.256 269.938L146.449 276.768C131.234 285.555 122.158 296.923 122.158 307.198C122.158 314.154 126.294 320.225 134.128 324.749C142.439 329.525 153.889 332.062 167.251 332.062H167.259Z" fill="white"/>
<path opacity="0.3" d="M171.708 325.128C160.845 325.128 151.516 323.06 144.745 319.176C138.287 315.456 134.88 310.427 134.88 304.653C134.88 296.216 142.32 286.894 154.7 279.729L164.238 274.224C177.147 266.784 193.544 262.498 209.22 262.498C220.09 262.498 229.413 264.566 236.183 268.45C242.641 272.17 246.056 277.2 246.056 282.973C246.056 291.417 238.616 300.732 226.228 307.897L216.69 313.403C203.782 320.843 187.391 325.128 171.708 325.128Z" fill="#0018F9"/>
<path opacity="0.4" d="M176.164 317.688C167.876 317.688 160.771 316.111 155.608 313.135C150.682 310.248 148.056 306.439 148.056 302.064C148.056 295.628 153.711 288.531 163.174 283.062L170.443 278.866C180.286 273.182 192.763 269.938 204.749 269.938C213.03 269.938 220.135 271.515 225.306 274.499C230.224 277.341 232.828 281.195 232.828 285.57C232.828 292.005 227.181 299.11 217.717 304.571L210.463 308.76C200.62 314.437 188.143 317.688 176.164 317.688Z" fill="white"/>
<path d="M265.139 250.668C236.92 234.375 184.043 238.497 147.015 259.864L131.725 268.688C94.7114 290.063 87.569 320.604 115.789 336.898C144.009 353.192 196.885 349.07 233.921 327.695L249.24 318.871C286.217 297.496 293.359 266.962 265.139 250.668ZM247.752 316.356L232.47 325.18C211.795 337.084 185.546 343.959 160.429 343.959C143.019 343.959 128.087 340.64 117.277 334.383C106.935 328.431 101.467 320.366 101.467 311.126C101.467 297.6 113.371 282.683 133.213 271.21L148.503 262.379C169.171 250.475 195.434 243.6 220.552 243.6C237.946 243.6 252.878 246.919 263.704 253.183C274.045 259.135 279.514 267.193 279.514 276.433C279.499 289.959 267.624 304.876 247.752 316.356Z" fill="#0018F9"/>
<path opacity="0.3" d="M265.139 250.668C236.92 234.375 184.043 238.497 147.015 259.864L131.725 268.688C94.7114 290.063 87.569 320.604 115.789 336.898C144.009 353.192 196.885 349.07 233.921 327.695L249.24 318.871C286.217 297.496 293.359 266.962 265.139 250.668ZM247.752 316.356L232.47 325.18C211.795 337.084 185.546 343.959 160.429 343.959C143.019 343.959 128.087 340.64 117.277 334.383C106.935 328.431 101.467 320.366 101.467 311.126C101.467 297.6 113.371 282.683 133.213 271.21L148.503 262.379C169.171 250.475 195.434 243.6 220.552 243.6C237.946 243.6 252.878 246.919 263.704 253.183C274.045 259.135 279.514 267.193 279.514 276.433C279.499 289.959 267.624 304.876 247.752 316.356Z" fill="white"/>
<path d="M120.29 243.266L112.411 238.712L120.29 236.436V243.266Z" fill="#0018F9"/>
<path opacity="0.6" d="M120.29 243.266L112.411 238.712L120.29 236.436V243.266Z" fill="white"/>
<path opacity="0.05" d="M120.29 243.266L112.411 238.712L120.29 236.436V243.266Z" fill="black"/>
<path d="M120.29 243.266L124.233 240.989V234.159L120.29 236.436V243.266Z" fill="#0018F9"/>
<path opacity="0.75" d="M120.29 243.266L124.233 240.989V234.159L120.29 236.436V243.266Z" fill="white"/>
<path d="M80.7986 259.239V266.501L34.1274 239.508V232.254L80.7986 259.239Z" fill="#0018F9"/>
<path opacity="0.6" d="M80.7986 259.239V266.501L34.1274 239.508V232.254L80.7986 259.239Z" fill="white"/>
<path opacity="0.1" d="M80.7986 259.239V266.501L34.1274 239.508V232.254L80.7986 259.239Z" fill="black"/>
<path d="M80.7983 266.501L84.7415 264.224V256.963L80.7983 259.239V266.501Z" fill="#0018F9"/>
<path opacity="0.75" d="M80.7983 266.501L84.7415 264.224V256.963L80.7983 259.239V266.501Z" fill="white"/>
<path d="M30.1841 175.353L76.8552 202.338V261.516L30.1841 234.531V175.353Z" fill="#0018F9"/>
<path opacity="0.6" d="M30.1841 175.353L76.8552 202.338V261.516L30.1841 234.531V175.353Z" fill="white"/>
<path d="M76.855 202.338L128.176 172.705V231.89L76.855 261.516V202.338Z" fill="#0018F9"/>
<path opacity="0.75" d="M76.855 202.338L128.176 172.705V231.89L76.855 261.516V202.338Z" fill="white"/>
<path d="M128.176 172.705L81.5052 145.72L30.1841 175.353L76.8552 202.338L128.176 172.705Z" fill="#0018F9"/>
<path opacity="0.85" d="M128.176 172.705L81.5052 145.72L30.1841 175.353L76.8552 202.338L128.176 172.705Z" fill="white"/>
<path d="M80.7983 222.821L124.233 197.748V229.613L80.7983 254.686V222.821Z" fill="#0018F9"/>
<path opacity="0.6" d="M80.7983 222.821L124.233 197.748V229.613L80.7983 254.686V222.821Z" fill="white"/>
<path opacity="0.1" d="M124.233 229.613L96.8241 213.573L80.7983 222.821V254.686L124.233 229.613Z" fill="black"/>
<path opacity="0.05" d="M124.233 229.613L96.8242 213.573L124.233 197.748V229.613Z" fill="black"/>
<path d="M80.7983 204.615L124.233 179.535V193.194L80.7983 218.275V204.615Z" fill="#0018F9"/>
<path opacity="0.85" d="M80.7983 204.615L124.233 179.535V193.194L80.7983 218.275V204.615Z" fill="white"/>
<path d="M94.2573 199.719C94.2573 200.344 96.1396 199.771 98.4609 198.432L105.827 194.177C108.148 192.837 110.03 191.245 110.03 190.613V189.474L94.2573 198.581V199.719Z" fill="black"/>
<path d="M53.0547 178.523L54.2079 179.081L75.6202 166.716L74.4596 166.165L53.0547 178.523Z" fill="#0018F9"/>
<path opacity="0.2" d="M53.0547 178.523L54.2079 179.081L75.6202 166.716L74.4596 166.165L53.0547 178.523Z" fill="black"/>
<path d="M74.4597 166.165L54.0964 177.92L51.1353 147.453L71.4985 135.706L74.4597 166.165Z" fill="#0018F9"/>
<g opacity="0.8">
<path opacity="0.8" d="M74.4597 166.165L54.0964 177.92L51.1353 147.453L71.4985 135.706L74.4597 166.165Z" fill="white"/>
</g>
<path d="M74.3032 131.807L48.9551 146.442L52.4519 182.369L77.7925 167.735L74.3032 131.807ZM75.62 166.716L54.2077 179.081L51.135 147.453L72.5399 135.096L75.62 166.716Z" fill="#0018F9"/>
<path d="M74.3032 131.807L48.9551 146.442L52.4519 182.369L77.7925 167.735L74.3032 131.807ZM75.62 166.716L54.2077 179.081L51.135 147.453L72.5399 135.096L75.62 166.716Z" fill="#0018F9"/>
<path d="M75.6203 166.716L74.4597 166.165L71.4985 135.706L72.5401 135.096L75.6203 166.716Z" fill="#0018F9"/>
<path opacity="0.35" d="M75.6203 166.716L74.4597 166.165L71.4985 135.706L72.5401 135.096L75.6203 166.716Z" fill="black"/>
<path d="M74.3034 131.807L73.1279 131.264L47.7798 145.898L48.9553 146.442L74.3034 131.807Z" fill="#0018F9"/>
<path opacity="0.6" d="M74.3034 131.807L73.1279 131.264L47.7798 145.898L48.9553 146.442L74.3034 131.807Z" fill="white"/>
<path d="M47.7798 145.898L48.9553 146.442L52.4521 182.369L51.2766 181.826L47.7798 145.898Z" fill="#0018F9"/>
<path opacity="0.35" d="M47.7798 145.898L48.9553 146.442L52.4521 182.369L51.2766 181.826L47.7798 145.898Z" fill="black"/>
<path d="M73.5666 165.585L54.788 176.425L54.2896 171.291L57.7863 156.218L61.112 161.359L60.4201 165.696L65.9703 149.7L73.0681 160.451L73.5666 165.585Z" fill="#0018F9"/>
<path d="M57.496 149.864C57.1045 150.109 56.7839 150.452 56.5659 150.859C56.348 151.266 56.2403 151.724 56.2535 152.185C56.3354 153.026 56.9975 153.346 57.7862 152.929C58.1787 152.687 58.5003 152.346 58.7184 151.939C58.9366 151.533 59.0436 151.076 59.0287 150.615C58.9468 149.745 58.2623 149.425 57.496 149.864Z" fill="#0018F9"/>
<path opacity="0.05" d="M92.9183 170.242C96.6383 172.377 96.6383 175.837 92.9183 177.972C89.1983 180.108 83.2463 180.108 79.5263 177.972C75.8063 175.837 75.8063 172.377 79.5263 170.242C83.2463 168.107 89.2207 168.144 92.9183 170.242Z" fill="black"/>
<path d="M80.2109 175.629C76.9894 172.34 75.0996 164.141 78.2393 161.537H94.213C97.3526 164.141 95.4629 172.34 92.2488 175.621L92.1595 175.718L92.0479 175.822C91.9565 175.915 91.8596 176.002 91.7578 176.082L91.6759 176.142L91.4378 176.328C91.3041 176.423 91.165 176.51 91.0212 176.588C89.5356 177.344 87.8927 177.737 86.2261 177.737C84.5596 177.737 82.9166 177.344 81.431 176.588C81.2846 176.512 81.1451 176.422 81.0144 176.321L80.7838 176.157L80.6945 176.075C80.5903 175.993 80.501 175.911 80.4118 175.83L80.2853 175.703L80.2109 175.629Z" fill="#F5F5F5"/>
<path d="M92.8216 160.287C96.4672 162.393 96.4672 165.808 92.8216 167.906C89.176 170.004 83.2686 170.011 79.623 167.906C75.9774 165.8 75.9849 162.393 79.623 160.287C83.2612 158.182 89.1834 158.182 92.8216 160.287Z" fill="white"/>
<path d="M90.2398 161.783C92.4718 163.062 92.4718 165.138 90.2398 166.418C88.9959 167.049 87.6207 167.377 86.226 167.377C84.8312 167.377 83.4561 167.049 82.2121 166.418C79.9801 165.138 79.9801 163.062 82.2121 161.783C83.4561 161.152 84.8312 160.823 86.226 160.823C87.6207 160.823 88.9959 161.152 90.2398 161.783Z" fill="#EBEBEB"/>
<path d="M82.2121 163.978C83.4561 163.347 84.8313 163.018 86.226 163.018C87.6208 163.018 88.9959 163.347 90.2399 163.978C90.7773 164.269 91.2347 164.688 91.5717 165.198C91.2347 165.708 90.7773 166.127 90.2399 166.418C88.9959 167.049 87.6208 167.377 86.226 167.377C84.8313 167.377 83.4561 167.049 82.2121 166.418C81.6747 166.127 81.2173 165.708 80.8804 165.198C81.2173 164.688 81.6747 164.269 82.2121 163.978Z" fill="#E0E0E0"/>
<path d="M89.7488 165.168C90.885 164.015 91.8632 162.717 92.6579 161.307C93.9971 158.933 94.2426 155.756 93.5507 155.355C92.8588 154.953 90.0241 158.174 90.0241 158.174C90.2788 156.841 90.3762 155.483 90.3143 154.127C90.2027 152.014 89.6819 150.095 89.0792 149.708C88.4766 149.321 87.1225 151.984 86.5422 153.911C85.9619 155.838 85.6122 157.43 85.6122 157.43C85.3807 155.918 85.0325 154.425 84.5706 152.966C83.8712 150.965 83.2314 150.511 82.7329 150.734C82.2344 150.958 81.9145 151.873 81.7657 154.544C81.716 155.817 81.7558 157.093 81.8848 158.36C81.8848 158.36 80.8952 157.267 79.7867 156.203C78.6781 155.139 78.0532 154.878 77.7109 155.102C77.3687 155.325 77.2645 157.14 79.1468 160.54C80.0793 162.269 81.2739 163.843 82.6883 165.205C82.6883 165.205 85.3072 166.879 89.7488 165.168Z" fill="#0018F9"/>
<path opacity="0.2" d="M89.7488 165.168C90.885 164.015 91.8632 162.717 92.6579 161.307C93.9971 158.933 94.2426 155.756 93.5507 155.355C92.8588 154.953 90.0241 158.174 90.0241 158.174C90.2788 156.841 90.3762 155.483 90.3143 154.127C90.2027 152.014 89.6819 150.095 89.0792 149.708C88.4766 149.321 87.1225 151.984 86.5422 153.911C85.9619 155.838 85.6122 157.43 85.6122 157.43C85.3807 155.918 85.0325 154.425 84.5706 152.966C83.8712 150.965 83.2314 150.511 82.7329 150.734C82.2344 150.958 81.9145 151.873 81.7657 154.544C81.716 155.817 81.7558 157.093 81.8848 158.36C81.8848 158.36 80.8952 157.267 79.7867 156.203C78.6781 155.139 78.0532 154.878 77.7109 155.102C77.3687 155.325 77.2645 157.14 79.1468 160.54C80.0793 162.269 81.2739 163.843 82.6883 165.205C82.6883 165.205 85.3072 166.879 89.7488 165.168Z" fill="black"/>
<path d="M347.909 140.981L345.566 142.372L258.094 91.631L260.43 90.2397L347.909 140.981Z" fill="#FAFAFA"/>
<path d="M260.43 90.2398L345.566 139.619V74.3107L260.43 24.9463V90.2398Z" fill="white"/>
<path d="M302.934 47.125V115.179L298.522 112.627V44.5731L302.934 47.125Z" fill="#F0F0F0"/>
<path d="M305.144 45.8378L302.935 47.1249V115.179L305.144 113.899V45.8378Z" fill="#E0E0E0"/>
<path d="M253.704 94.183L350.015 149.983V71.7663L253.704 15.929V94.183ZM258.123 23.5699L345.596 74.3107V142.372L258.094 91.6311L258.123 23.5699Z" fill="#F0F0F0"/>
<path d="M258.094 91.631L260.43 90.2398V24.9463L258.094 23.5699V91.631Z" fill="#E0E0E0"/>
<path d="M253.674 15.929L256.055 14.5675L352.358 70.4047L349.985 71.7662L253.674 15.929Z" fill="#FAFAFA"/>
<path d="M352.358 70.4047L349.985 71.7662L349.978 150.013L352.358 148.659V70.4047Z" fill="#E0E0E0"/>
<path d="M302.935 49.662L298.53 47.125V49.6695L302.935 52.2139V49.662Z" fill="#E0E0E0"/>
<path opacity="0.15" d="M302.935 52.2139L305.137 50.9342L302.935 49.662V52.2139Z" fill="black"/>
<path d="M35.9053 107.969L37.2222 108.758L64.3484 93.0893L63.0315 92.3006L35.9053 107.969Z" fill="#FAFAFA"/>
<path d="M63.0315 92.3006L37.2222 107.196V80.1735L63.0315 65.286V92.3006Z" fill="white"/>
<path d="M66.8485 60.1896L34.73 78.7375V113.088L66.8485 94.5475V60.1896ZM64.3486 93.0893L37.2001 108.75V80.1734L64.3486 64.5122V93.0893Z" fill="#F0F0F0"/>
<path d="M64.3486 93.0893L63.0317 92.3006V65.286L64.3486 64.5122V93.0893Z" fill="#E0E0E0"/>
<path d="M66.8483 60.197L65.5017 59.4233L33.3906 77.9712L34.7298 78.7375L66.8483 60.197Z" fill="#FAFAFA"/>
<path d="M33.3906 77.9712L34.7298 78.7375V113.073L33.3906 112.307V77.9712Z" fill="#E0E0E0"/>
<path d="M62.0196 91.4971L38.2339 105.231V98.3643L44.1784 84.63L47.8836 88.0598L46.5518 93.8184L54.7656 76.2526L62.0196 84.63V91.4971Z" fill="#F0F0F0"/>
<path d="M47.6601 77.9935C47.1479 78.3278 46.7219 78.7783 46.4168 79.3084C46.1117 79.8385 45.9361 80.4331 45.9043 81.0439C45.9043 82.1674 46.6483 82.6212 47.6601 82.0558C48.1736 81.7239 48.601 81.2752 48.9075 80.7462C49.214 80.2173 49.3908 79.6233 49.4234 79.0128C49.4234 77.8894 48.6348 77.4355 47.6601 77.9935Z" fill="#F0F0F0"/>
<path d="M81.9365 73.0831L83.2608 73.8718L110.387 58.2031L109.063 57.4145L81.9365 73.0831Z" fill="#FAFAFA"/>
<path d="M109.063 57.4145L83.2607 72.3168V45.2873L109.063 30.4073V57.4145Z" fill="white"/>
<path d="M112.88 25.296L80.7612 43.8514V78.187L112.88 59.6465V25.296ZM110.387 58.1882L83.2536 73.8718V45.2873L110.38 29.6633L110.387 58.1882Z" fill="#F0F0F0"/>
<path d="M110.387 58.2031L109.063 57.4145V30.4073L110.387 29.6261V58.2031Z" fill="#E0E0E0"/>
<path d="M112.88 25.3109L111.533 24.5371L79.4219 43.085L80.7611 43.8514L112.88 25.3109Z" fill="#FAFAFA"/>
<path d="M79.4219 43.085L80.7611 43.8514V78.187L79.4219 77.4206V43.085Z" fill="#E0E0E0"/>
<path d="M108.059 56.611L84.2656 70.3452V63.4781L90.2102 49.7439L93.9153 53.1737L92.5835 58.9323L100.797 41.3664L108.059 49.7439V56.611Z" fill="#F0F0F0"/>
<path d="M93.6919 43.1074C93.1809 43.443 92.7559 43.8938 92.4509 44.4236C92.1459 44.9534 91.9696 45.5474 91.936 46.1578C91.936 47.2812 92.7247 47.735 93.6919 47.177C94.2046 46.8427 94.6314 46.3924 94.9378 45.8624C95.2441 45.3325 95.4214 44.7378 95.4552 44.1267C95.4552 43.0032 94.6665 42.5494 93.6919 43.1074Z" fill="#F0F0F0"/>
<path d="M148.502 64.914C148.418 64.8683 148.323 64.8453 148.227 64.847H147.609V75.144L153.68 68.6265C153.734 68.5663 153.774 68.4948 153.797 68.4171C153.82 68.3395 153.825 68.2578 153.812 68.178C153.799 68.0981 153.769 68.0221 153.723 67.9556C153.677 67.889 153.617 67.8336 153.547 67.7933L148.502 64.914Z" fill="#0018F9"/>
<path opacity="0.3" d="M148.502 64.914C148.418 64.8683 148.323 64.8453 148.227 64.847H147.609V75.144L153.68 68.6265C153.734 68.5663 153.774 68.4948 153.797 68.4171C153.82 68.3395 153.825 68.2578 153.812 68.178C153.799 68.0981 153.769 68.0221 153.723 67.9556C153.677 67.889 153.617 67.8336 153.547 67.7933L148.502 64.914Z" fill="white"/>
<path d="M147.609 75.144L153.68 68.6265C153.757 68.5484 153.808 68.449 153.827 68.3412C153.846 68.2335 153.833 68.1225 153.788 68.0228C153.743 67.9231 153.668 67.8393 153.575 67.7824C153.482 67.7255 153.373 67.6982 153.264 67.704H147.609L146.196 68.8944L147.609 75.144Z" fill="#0018F9"/>
<path d="M147.61 61.6181C147.565 60.7911 147.327 59.9862 146.913 59.2688C146.499 58.5513 145.922 57.9415 145.229 57.4889C144.489 57.1149 143.673 56.92 142.844 56.92C142.016 56.92 141.199 57.1149 140.46 57.4889L105.685 77.6736C104.991 78.1259 104.413 78.7354 103.998 79.4528C103.583 80.1702 103.343 80.9753 103.297 81.8028V100.209C103.343 101.038 103.583 101.844 103.998 102.563C104.412 103.281 104.99 103.892 105.685 104.346C106.424 104.72 107.241 104.915 108.07 104.915C108.898 104.915 109.715 104.72 110.454 104.346L145.422 83.9976C147.565 82.7774 147.58 81.5498 147.58 80.0321L147.61 61.6181Z" fill="#0018F9"/>
<path opacity="0.2" d="M103.297 100.209C103.343 101.038 103.583 101.844 103.998 102.563C104.412 103.281 104.99 103.892 105.685 104.346C106.356 104.687 107.092 104.882 107.843 104.916C108.595 104.951 109.346 104.825 110.045 104.547C108.922 104.971 108.073 104.331 108.073 102.97V84.5556C108.1 83.7258 108.338 82.9166 108.765 82.2045L103.996 79.4518C103.567 80.1634 103.327 80.9725 103.297 81.8028V100.209Z" fill="black"/>
<path opacity="0.3" d="M147.535 60.941C147.252 59.9292 146.33 59.6018 145.228 60.2417L110.454 80.4264C109.747 80.8645 109.167 81.4802 108.772 82.212L104.003 79.4592C104.403 78.7325 104.982 78.1203 105.685 77.681L140.452 57.4889C141.194 57.1182 142.011 56.9253 142.84 56.9253C143.669 56.9253 144.487 57.1182 145.228 57.4889C145.826 57.8787 146.339 58.3855 146.735 58.9788C147.131 59.5722 147.404 60.2397 147.535 60.941Z" fill="white"/>
<path d="M115.484 83.8785C115.813 83.6746 116.185 83.5498 116.57 83.514C116.867 83.4888 117.165 83.5536 117.426 83.7C117.664 83.8374 117.86 84.0383 117.991 84.2803C118.124 84.5381 118.196 84.8234 118.199 85.1136C118.201 85.2015 118.18 85.2885 118.14 85.3665C118.116 85.4372 118.069 85.4975 118.006 85.5377L116.793 86.237C116.765 86.2599 116.733 86.277 116.699 86.2872C116.664 86.2975 116.628 86.3006 116.592 86.2965C116.532 86.2879 116.475 86.2621 116.429 86.2221C116.395 86.1964 116.365 86.1663 116.339 86.1329C116.292 86.0823 116.234 86.044 116.168 86.0213C116.078 86.0013 115.984 86.0013 115.893 86.0213C115.748 86.0487 115.61 86.1016 115.484 86.1775C115.25 86.3126 115.039 86.4833 114.859 86.6834C114.776 86.7876 114.709 86.9028 114.658 87.0257C114.604 87.1529 114.577 87.2894 114.576 87.4274C114.565 87.5368 114.597 87.6462 114.665 87.7325C114.749 87.8002 114.856 87.8323 114.963 87.8217C115.149 87.8175 115.334 87.7901 115.513 87.7399L116.362 87.5167C116.649 87.4337 116.948 87.3961 117.247 87.4051C117.478 87.412 117.701 87.4958 117.879 87.6432C118.066 87.8148 118.198 88.0372 118.259 88.283C118.355 88.6367 118.398 89.0029 118.385 89.3693C118.387 89.8482 118.317 90.3247 118.177 90.7829C117.883 91.7098 117.373 92.5538 116.689 93.2455C116.346 93.5836 115.961 93.8761 115.543 94.116C115.197 94.3364 114.805 94.4762 114.397 94.5252C114.09 94.5555 113.781 94.4988 113.505 94.3615C113.253 94.2226 113.051 94.0096 112.924 93.7514C112.777 93.4608 112.701 93.1396 112.701 92.814C112.703 92.7264 112.723 92.6402 112.761 92.561C112.787 92.4917 112.834 92.432 112.895 92.3899L114.107 91.6905C114.165 91.6461 114.236 91.6225 114.308 91.6236C114.363 91.6333 114.414 91.6563 114.457 91.6905L114.569 91.8096C114.622 91.8723 114.688 91.9231 114.762 91.9584C114.862 92.0039 114.973 92.0219 115.082 92.0105C115.247 91.9922 115.406 91.9335 115.543 91.8393C115.846 91.6708 116.122 91.4576 116.362 91.2069C116.561 91.0093 116.678 90.7434 116.689 90.4629C116.697 90.4084 116.689 90.3528 116.669 90.3018C116.648 90.2509 116.614 90.2064 116.57 90.1728C116.458 90.1245 116.334 90.1065 116.213 90.1207C116.004 90.1433 115.798 90.1831 115.595 90.2397L114.717 90.4629C114.487 90.5594 114.234 90.5882 113.987 90.5461C113.741 90.5039 113.512 90.3925 113.326 90.2249C112.979 89.7286 112.823 89.1234 112.887 88.5211C112.89 88.091 112.95 87.6631 113.066 87.2489C113.187 86.8028 113.362 86.3731 113.587 85.9692C113.816 85.5537 114.093 85.1666 114.412 84.816C114.718 84.4487 115.079 84.1323 115.484 83.8785Z" fill="white"/>
<path d="M124.248 84.6746C124.248 84.816 124.248 84.9946 124.248 85.2178C124.248 85.441 124.248 85.627 124.248 85.7758C124.233 86.246 124.163 86.7129 124.04 87.167C123.924 87.6316 123.754 88.0811 123.534 88.5062C123.322 88.9239 123.06 89.3138 122.753 89.6669C122.46 89.9995 122.116 90.2833 121.733 90.5076C121.426 90.7004 121.076 90.8153 120.714 90.8424C120.444 90.8491 120.18 90.7594 119.97 90.5894C119.736 90.3914 119.559 90.1346 119.457 89.8454C119.329 89.4715 119.262 89.0798 119.256 88.6848C119.256 88.5434 119.256 88.3649 119.256 88.1417C119.256 87.9185 119.256 87.7325 119.256 87.5837C119.266 87.114 119.331 86.6471 119.449 86.1924C119.574 85.7294 119.746 85.2806 119.963 84.8532C120.181 84.4356 120.446 84.0438 120.751 83.6851C121.04 83.3466 121.385 83.0598 121.771 82.837C122.076 82.6409 122.427 82.5281 122.79 82.5096C123.075 82.5046 123.353 82.5964 123.579 82.77C123.814 82.9653 123.989 83.2232 124.084 83.514C124.199 83.89 124.254 84.2816 124.248 84.6746ZM120.885 87.6506C120.876 87.7784 120.894 87.9067 120.937 88.0272C120.981 88.1476 121.049 88.2576 121.138 88.35C121.287 88.469 121.488 88.4542 121.733 88.35C121.991 88.197 122.198 87.972 122.329 87.7027C122.485 87.3928 122.571 87.0525 122.582 86.7058C122.582 86.557 122.582 86.3933 122.582 86.2147C122.59 86.0561 122.59 85.8972 122.582 85.7386C122.591 85.6108 122.573 85.4825 122.529 85.362C122.486 85.2415 122.417 85.1316 122.329 85.0392C122.18 84.9202 121.979 84.935 121.733 85.0764C121.473 85.2292 121.266 85.4576 121.138 85.7311C120.982 86.0384 120.896 86.3762 120.885 86.7206C120.885 86.8694 120.885 87.0331 120.885 87.2117C120.881 87.3556 120.883 87.4996 120.893 87.6432L120.885 87.6506Z" fill="white"/>
<path d="M128.712 78.9458C128.737 78.9253 128.769 78.9141 128.801 78.9141C128.834 78.9141 128.865 78.9253 128.89 78.9458C128.944 79.0104 128.97 79.0929 128.965 79.1765V80.6124C128.961 80.7205 128.936 80.8268 128.89 80.9249C128.851 81.0113 128.789 81.0858 128.712 81.1406L127.871 81.6242C127.577 81.817 127.343 82.0871 127.193 82.4049C127.043 82.7226 126.985 83.0756 127.023 83.4247V86.9215C127.023 87.0301 126.998 87.1372 126.949 87.234C126.914 87.3232 126.851 87.3988 126.77 87.4498L125.609 88.1268C125.584 88.1473 125.553 88.1586 125.52 88.1586C125.488 88.1586 125.456 88.1473 125.431 88.1268C125.379 88.0616 125.352 87.9795 125.356 87.8962V81.2671C125.36 81.159 125.385 81.0526 125.431 80.9546C125.47 80.8681 125.532 80.7937 125.609 80.7389L126.681 80.1213C126.705 80.0994 126.737 80.0872 126.77 80.0872C126.803 80.0872 126.835 80.0994 126.859 80.1213C126.886 80.1518 126.906 80.1872 126.919 80.2255C126.932 80.2638 126.937 80.3043 126.934 80.3445V80.6719C127.073 80.3868 127.243 80.1175 127.44 79.8684C127.645 79.6162 127.898 79.4065 128.184 79.2509L128.712 78.9458Z" fill="white"/>
<path d="M133.176 76.3642C133.201 76.3436 133.233 76.3324 133.265 76.3324C133.298 76.3324 133.33 76.3436 133.355 76.3642C133.408 76.4287 133.435 76.5112 133.429 76.5948V78.0307C133.426 78.1388 133.401 78.2452 133.355 78.3432C133.315 78.4297 133.254 78.5041 133.176 78.559L132.335 79.0426C132.042 79.2353 131.807 79.5055 131.657 79.8232C131.508 80.141 131.449 80.4939 131.487 80.843V84.3398C131.488 84.4484 131.462 84.5555 131.413 84.6523C131.378 84.7415 131.315 84.8172 131.234 84.8681L130.074 85.5377C130.049 85.5596 130.017 85.5718 129.984 85.5718C129.951 85.5718 129.92 85.5596 129.895 85.5377C129.843 85.4725 129.817 85.3904 129.821 85.307V78.678C129.824 78.5699 129.849 78.4635 129.895 78.3655C129.934 78.279 129.996 78.2046 130.074 78.1498L131.145 77.5322C131.17 77.5103 131.201 77.4981 131.234 77.4981C131.267 77.4981 131.299 77.5103 131.324 77.5322C131.35 77.5627 131.37 77.5981 131.383 77.6364C131.396 77.6747 131.401 77.7152 131.398 77.7554V78.12C131.538 77.8349 131.707 77.5656 131.904 77.3165C132.11 77.0643 132.362 76.8546 132.648 76.699L133.176 76.3642Z" fill="white"/>
<path d="M136.799 84.072C136.777 84.1686 136.748 84.2632 136.71 84.3547C136.673 84.4429 136.611 84.5181 136.531 84.5705L135.319 85.2698C135.296 85.2873 135.269 85.2968 135.24 85.2968C135.212 85.2968 135.185 85.2873 135.162 85.2698C135.139 85.2425 135.121 85.2105 135.111 85.1758C135.1 85.1412 135.098 85.1047 135.103 85.0689C135.099 85.0343 135.099 84.9994 135.103 84.9648L135.802 81.9888L133.92 76.3641C133.915 76.3345 133.915 76.3045 133.92 76.2749C133.92 76.1767 133.943 76.0799 133.987 75.9921C134.02 75.9148 134.074 75.8479 134.143 75.7987L135.348 75.0993C135.43 75.0993 135.482 75.0993 135.527 75.0993C135.57 75.1519 135.603 75.2126 135.624 75.2779L136.643 78.3804L137.662 74.0949C137.662 74.0057 137.714 73.9164 137.751 73.8122C137.788 73.724 137.85 73.6489 137.93 73.5965L139.15 72.8971C139.171 72.8767 139.199 72.8652 139.228 72.8652C139.257 72.8652 139.285 72.8767 139.306 72.8971C139.33 72.9245 139.348 72.9564 139.36 72.9909C139.371 73.0253 139.376 73.0617 139.373 73.098C139.373 73.1426 139.373 73.1724 139.373 73.2096L136.799 84.072Z" fill="white"/>
<path d="M142 75.2258C142 75.3344 141.975 75.4415 141.925 75.5383C141.893 75.627 141.833 75.7028 141.754 75.7541L140.586 76.4237C140.563 76.4451 140.532 76.457 140.501 76.457C140.469 76.457 140.438 76.4451 140.415 76.4237C140.387 76.3923 140.367 76.3557 140.354 76.316C140.341 76.2764 140.337 76.2345 140.341 76.193V70.055C140.34 69.9464 140.366 69.8393 140.415 69.7425C140.447 69.6539 140.507 69.5781 140.586 69.5268L141.754 68.8572C141.778 68.8357 141.808 68.8239 141.84 68.8239C141.871 68.8239 141.902 68.8357 141.925 68.8572C141.953 68.8869 141.974 68.9222 141.987 68.9607C142 68.9992 142.004 69.04 142 69.0804V75.2258ZM142 78.2837C142 78.3923 141.975 78.4994 141.925 78.5961C141.893 78.6848 141.833 78.7606 141.754 78.8119L140.586 79.4889C140.562 79.5089 140.532 79.5198 140.501 79.5198C140.469 79.5198 140.439 79.5089 140.415 79.4889C140.387 79.4579 140.366 79.4213 140.353 79.3815C140.34 79.3418 140.336 79.2998 140.341 79.2583V77.8224C140.34 77.7138 140.366 77.6067 140.415 77.5099C140.447 77.4212 140.507 77.3454 140.586 77.2941L141.754 76.6245C141.778 76.6031 141.808 76.5912 141.84 76.5912C141.871 76.5912 141.902 76.6031 141.925 76.6245C141.953 76.6542 141.974 76.6895 141.987 76.728C142 76.7666 142.004 76.8074 142 76.8477V78.2837Z" fill="white"/>
<path opacity="0.2" d="M159.052 323.491C160.588 322.933 162.03 322.145 163.33 321.155C165.169 319.704 166.798 318.006 168.174 316.111C169.537 314.247 171.042 312.491 172.675 310.858C175.569 308.053 178.88 305.576 182.741 304.281C188.053 302.496 193.738 303.173 199.184 303.671C205.411 304.244 211.556 305.241 217.784 305.605C221.541 305.821 225.625 305.851 228.676 303.641C229.799 302.823 230.781 301.566 230.655 300.174C230.528 298.783 229.167 297.384 227.984 296.343C224.182 293.091 219.339 290.911 214.778 288.955C206.594 285.443 198.164 282.259 189.37 280.771C180.576 279.283 171.343 279.536 163.003 282.69C158.048 284.565 153.495 289.981 150.764 294.408C148.344 298.309 146.638 302.609 145.727 307.108C145.276 309.376 145.071 311.686 145.117 313.998C145.184 316.609 145.579 319.95 147.55 321.914C148.525 322.89 149.73 323.604 151.054 323.99C153.708 324.647 156.5 324.473 159.052 323.491Z" fill="black"/>
<path d="M207.576 275.28C207.442 270.764 208.216 234.092 208.216 234.092L190.457 245.252C193.284 265.34 195.598 274.848 195.895 278.338C195.958 278.582 196.001 278.831 196.022 279.082C196.081 283.07 200.828 285.168 204.54 287.787C207.707 290.096 211.065 292.132 214.577 293.872C217.263 295.13 222.701 295.189 223.356 293.545C218.84 290.331 213.61 286.849 209.964 283.129C208.32 281.277 207.702 279.439 207.576 275.28Z" fill="#A96E38"/>
<path d="M231.057 297.66C231.287 297.66 231.659 300.063 230.424 301.104C228.996 302.302 224.785 304.289 219.19 303.656C213.595 303.024 210.545 301.424 208.29 299.646C206.036 297.868 202.867 295.405 200.337 294.899C197.978 294.431 195.419 293.411 194.66 292.764C193.901 292.117 193.968 288.999 193.968 288.999L231.057 297.66Z" fill="#263238"/>
<path d="M195.754 277.207C195.754 277.207 195.36 277.207 195.226 277.877C195.062 278.732 194.906 281.195 194.549 282.586C194.058 284.528 193.76 288.486 194.087 290.026C194.415 291.566 198.254 292.66 200.709 293.515C203.585 294.679 206.275 296.258 208.692 298.203C211.341 300.241 216.876 302.25 220.537 302.265C226.094 302.265 229.68 300.814 230.774 298.902C232.121 296.529 231.027 295.182 224.606 292.422C223.386 291.901 219.116 289.55 217.657 288.702C213.707 286.395 210.47 283.278 208.625 279.141C208.468 278.624 208.137 278.177 207.688 277.877C207.292 277.721 206.86 277.687 206.445 277.78C205.178 277.9 203.929 278.17 202.725 278.583C201.877 278.985 200.664 279.454 200.694 280.495C200.719 280.862 200.804 281.221 200.947 281.559C201.021 281.768 201.088 282.05 200.895 282.184C200.702 282.318 200.463 282.184 200.292 282.028C199.658 281.429 199.076 280.777 198.551 280.079C198.246 279.717 197.902 279.39 197.525 279.104C197.145 278.906 196.777 278.684 196.424 278.442C196.063 278.121 195.826 277.684 195.754 277.207Z" fill="#37474F"/>
<path d="M225.64 292.905C217.598 293.515 215.113 298.277 214.8 301.208C216.649 301.851 218.581 302.217 220.537 302.295C226.094 302.295 229.911 300.844 231.005 298.932C232.277 296.692 231.384 294.914 225.64 292.905Z" fill="#FAFAFA"/>
<path d="M213.573 293.136C213.481 293.139 213.392 293.11 213.32 293.054C213.28 293.024 213.246 292.987 213.222 292.943C213.197 292.9 213.181 292.852 213.176 292.803C213.17 292.753 213.175 292.703 213.189 292.656C213.204 292.608 213.228 292.564 213.26 292.526C214.209 291.583 215.342 290.847 216.589 290.364C217.837 289.881 219.171 289.662 220.507 289.721C220.556 289.726 220.603 289.74 220.646 289.764C220.69 289.787 220.728 289.818 220.759 289.856C220.79 289.894 220.813 289.938 220.827 289.985C220.842 290.032 220.846 290.081 220.842 290.13C220.837 290.179 220.822 290.227 220.799 290.27C220.776 290.313 220.744 290.351 220.706 290.382C220.668 290.413 220.625 290.437 220.578 290.451C220.531 290.465 220.481 290.47 220.432 290.465C219.225 290.426 218.022 290.63 216.895 291.065C215.768 291.499 214.739 292.156 213.87 292.995C213.835 293.039 213.79 293.076 213.738 293.1C213.686 293.125 213.63 293.137 213.573 293.136Z" fill="#F0F0F0"/>
<path d="M210.083 291.216C209.992 291.219 209.903 291.19 209.83 291.135C209.791 291.106 209.758 291.069 209.733 291.026C209.708 290.983 209.692 290.936 209.687 290.887C209.681 290.838 209.686 290.789 209.7 290.742C209.715 290.695 209.739 290.651 209.771 290.614C210.719 289.669 211.852 288.932 213.099 288.448C214.347 287.964 215.681 287.744 217.017 287.802C217.066 287.806 217.114 287.821 217.157 287.844C217.2 287.867 217.239 287.899 217.27 287.937C217.301 287.975 217.324 288.019 217.338 288.066C217.352 288.113 217.357 288.162 217.352 288.211C217.347 288.26 217.333 288.307 217.31 288.35C217.286 288.394 217.255 288.432 217.217 288.463C217.179 288.494 217.135 288.517 217.088 288.531C217.041 288.546 216.992 288.55 216.943 288.546C215.736 288.507 214.533 288.711 213.406 289.145C212.279 289.58 211.25 290.236 210.381 291.075C210.346 291.12 210.3 291.156 210.249 291.181C210.197 291.205 210.141 291.217 210.083 291.216Z" fill="#F0F0F0"/>
<path d="M206.832 289.051C206.76 289.055 206.689 289.039 206.627 289.003C206.564 288.968 206.514 288.915 206.481 288.851C206.448 288.788 206.434 288.716 206.441 288.644C206.448 288.573 206.475 288.505 206.52 288.449C207.467 287.504 208.601 286.767 209.848 286.283C211.095 285.799 212.429 285.579 213.766 285.636C213.867 285.644 213.962 285.691 214.029 285.768C214.095 285.844 214.129 285.944 214.123 286.046C214.118 286.096 214.102 286.145 214.077 286.19C214.052 286.234 214.019 286.273 213.979 286.305C213.938 286.336 213.892 286.359 213.843 286.372C213.794 286.385 213.742 286.388 213.692 286.38C212.484 286.341 211.28 286.546 210.153 286.981C209.025 287.417 207.997 288.076 207.13 288.917C207.093 288.96 207.047 288.994 206.996 289.017C206.944 289.041 206.888 289.052 206.832 289.051Z" fill="#F0F0F0"/>
<path d="M203.67 286.886C203.582 286.887 203.497 286.861 203.424 286.812C203.384 286.783 203.35 286.746 203.324 286.703C203.299 286.66 203.283 286.612 203.276 286.562C203.27 286.513 203.274 286.463 203.288 286.415C203.302 286.367 203.326 286.322 203.357 286.284C204.845 284.416 208.35 283.159 211.274 283.434C211.324 283.437 211.374 283.45 211.419 283.472C211.465 283.494 211.505 283.525 211.538 283.564C211.572 283.602 211.597 283.646 211.613 283.694C211.629 283.742 211.635 283.793 211.631 283.843C211.616 283.944 211.563 284.035 211.482 284.098C211.402 284.16 211.3 284.189 211.199 284.178C208.565 283.933 205.329 285.086 203.975 286.745C203.939 286.791 203.892 286.828 203.839 286.852C203.786 286.877 203.728 286.888 203.67 286.886Z" fill="#F0F0F0"/>
<path d="M169.818 255.75L152.81 253.823C151.917 264.678 152.453 276.887 151.679 287.058C151.53 288.977 150.057 301.938 150.4 305.918C150.913 311.944 158.368 311.87 159.134 308.351C159.9 304.832 161.753 289.565 161.939 288.002C162.564 281.485 165.808 270.89 168.724 259.344C168.888 258.771 169.677 256.301 169.818 255.75Z" fill="#A96E38"/>
<path d="M161.649 311.074C161.441 314.563 160.868 316.877 159.566 318.923C158.264 320.969 155.846 321.616 153.331 321.014C150.816 320.411 147.662 318.782 146.955 315.806C146.248 312.83 146.382 310.732 146.955 307.495L161.649 311.074Z" fill="#263238"/>
<path d="M151.776 285.808C150.749 285.889 150.452 290.569 149.857 295.264C149.224 300.293 147.625 302.369 147.082 306.491C146.442 311.2 146.695 313.306 148.428 316.163C150.162 319.02 156.3 321.802 159.32 317.725C161.79 314.4 161.895 310.709 161.664 306.007C161.539 302.036 161.651 298.061 161.999 294.103C162.192 290.577 163.018 287.02 162.125 286.663C162.058 287.177 161.991 287.839 161.917 288.345C161.865 288.732 161.761 290.644 161.173 290.666C161.132 290.223 161.132 289.777 161.173 289.334C161.206 289.136 161.199 288.932 161.152 288.737C161.105 288.541 161.018 288.357 160.898 288.196C160.579 287.919 160.18 287.749 159.759 287.712C158.755 287.526 156.62 287.437 155.593 287.348C155.083 287.302 154.572 287.282 154.06 287.288C153.622 287.28 153.185 287.34 152.766 287.467C152.644 287.501 152.531 287.562 152.435 287.644C152.338 287.726 152.261 287.828 152.208 287.943C152.157 288.117 152.139 288.298 152.156 288.479C152.155 288.805 152.112 289.13 152.029 289.446C151.992 289.587 151.888 289.758 151.746 289.721C151.605 289.684 151.575 289.557 151.575 289.438C151.575 288.873 151.65 288.456 151.679 287.794C151.679 287.489 151.739 287.05 151.746 286.767C151.754 286.485 151.776 286.113 151.776 285.808Z" fill="#37474F"/>
<path d="M146.791 309.221C146.613 312.145 146.791 314.147 148.145 316.379C149.879 319.228 156.508 322.026 159.536 317.948C161.024 315.925 161.441 313.484 161.649 311.074C159.841 307.927 149.648 306.528 146.791 309.221Z" fill="#FAFAFA"/>
<path d="M159.023 305.955C158.979 305.95 158.936 305.937 158.896 305.918C156.101 304.779 153.037 304.474 150.072 305.04C149.975 305.061 149.873 305.044 149.787 304.993C149.702 304.942 149.639 304.86 149.611 304.765C149.601 304.717 149.601 304.668 149.61 304.621C149.62 304.573 149.639 304.528 149.666 304.488C149.693 304.448 149.727 304.414 149.768 304.387C149.808 304.36 149.854 304.342 149.901 304.333C153.03 303.722 156.27 304.046 159.216 305.263C159.26 305.282 159.3 305.31 159.333 305.345C159.366 305.38 159.392 305.422 159.408 305.467C159.425 305.512 159.432 305.56 159.43 305.608C159.428 305.656 159.416 305.704 159.395 305.747C159.361 305.815 159.307 305.871 159.241 305.908C159.174 305.945 159.098 305.962 159.023 305.955Z" fill="#F0F0F0"/>
<path d="M150.288 301.543C150.217 301.537 150.149 301.511 150.092 301.468C150.035 301.424 149.992 301.365 149.968 301.298C149.953 301.252 149.947 301.203 149.951 301.155C149.955 301.107 149.969 301.06 149.991 301.017C150.013 300.974 150.043 300.936 150.08 300.905C150.117 300.874 150.16 300.851 150.206 300.836C154.789 299.348 159.328 301.58 159.521 301.677C159.564 301.698 159.602 301.727 159.634 301.762C159.665 301.798 159.689 301.84 159.703 301.885C159.718 301.931 159.723 301.978 159.719 302.026C159.714 302.073 159.7 302.119 159.677 302.161C159.627 302.247 159.547 302.311 159.451 302.34C159.356 302.369 159.254 302.361 159.164 302.317C159.119 302.317 154.7 300.144 150.452 301.528C150.399 301.544 150.343 301.549 150.288 301.543Z" fill="#F0F0F0"/>
<path d="M150.578 298.232C150.508 298.226 150.441 298.2 150.385 298.158C150.329 298.116 150.285 298.059 150.258 297.994C150.243 297.949 150.237 297.901 150.24 297.853C150.244 297.805 150.256 297.759 150.278 297.716C150.299 297.673 150.329 297.635 150.365 297.603C150.401 297.572 150.443 297.548 150.489 297.533C152.042 297.032 153.68 296.845 155.306 296.985C156.932 297.124 158.514 297.586 159.96 298.344C160.002 298.366 160.039 298.397 160.069 298.435C160.098 298.472 160.12 298.515 160.132 298.561C160.144 298.608 160.146 298.656 160.138 298.703C160.13 298.75 160.113 298.795 160.086 298.835C160.033 298.919 159.948 298.979 159.851 299.003C159.754 299.027 159.652 299.012 159.565 298.961C156.83 297.559 153.651 297.292 150.719 298.218C150.674 298.232 150.626 298.237 150.578 298.232Z" fill="#F0F0F0"/>
<path d="M150.891 294.512C150.822 294.507 150.757 294.482 150.702 294.441C150.647 294.4 150.604 294.345 150.578 294.282C150.56 294.237 150.552 294.189 150.553 294.141C150.555 294.093 150.566 294.045 150.586 294.001C150.606 293.958 150.635 293.918 150.671 293.886C150.706 293.854 150.748 293.829 150.794 293.813C155.526 292.132 160.168 294.617 160.369 294.728C160.411 294.751 160.448 294.781 160.478 294.819C160.508 294.856 160.53 294.899 160.542 294.945C160.555 294.991 160.558 295.039 160.551 295.086C160.544 295.133 160.528 295.179 160.503 295.219C160.452 295.304 160.37 295.366 160.274 295.391C160.178 295.416 160.076 295.402 159.99 295.353C159.945 295.353 155.451 292.928 151.062 294.49C151.008 294.512 150.949 294.52 150.891 294.512Z" fill="#EBEBEB"/>
<path d="M165.607 134.612C165.421 136.055 164.856 137.423 163.97 138.577C159.462 144.946 155.943 151.062 155.585 162.616C154.685 191.186 155.385 220.782 155.385 220.782C155.191 223.304 153.071 227.768 152.111 240.825C151.263 252.246 151.56 267.9 151.56 267.9C151.56 267.9 159.796 271.798 166.872 269.053C169.692 259.768 175.547 235.662 178.62 223.23C181.41 211.943 183.27 195.33 183.27 195.33L188.165 218.349C187.677 223.301 187.742 228.292 188.359 233.229C189.259 240.877 192.741 262.788 192.741 262.788C192.741 262.788 201.795 265.474 207.881 261.181C207.881 261.181 209.369 222.999 209.466 213.751C209.592 196.535 209.466 161.307 204.221 139.351C204.018 137.652 203.907 135.943 203.886 134.232C197.904 139.217 173.605 139.984 165.607 134.612Z" fill="#37474F"/>
<path d="M175.093 142.707C175.009 142.686 174.921 142.698 174.846 142.741C174.771 142.784 174.716 142.854 174.691 142.937C174.364 144.269 174.111 145.467 173.865 146.62C172.988 150.794 172.377 153.815 169.215 157.036C168.179 158.063 166.947 158.871 165.592 159.413C164.237 159.954 162.788 160.219 161.329 160.191C162.683 151.642 165.548 144.82 170.116 139.188C170.142 139.155 170.161 139.117 170.172 139.076C170.184 139.036 170.186 138.993 170.181 138.952C170.175 138.91 170.161 138.87 170.14 138.834C170.119 138.797 170.09 138.766 170.056 138.741C169.985 138.691 169.897 138.669 169.81 138.68C169.723 138.691 169.644 138.734 169.587 138.801C164.893 144.589 161.969 151.612 160.615 160.421C160.617 160.434 160.617 160.446 160.615 160.458C160.09 163.989 159.802 167.551 159.752 171.12C159.454 187.19 159.008 211.475 158.77 217.851C158.643 221.266 157.884 224.227 156.917 227.984C156.091 231.213 155.146 234.881 154.306 239.888C152.52 250.728 153.42 268.584 153.428 268.763C153.435 268.845 153.474 268.922 153.536 268.978C153.599 269.033 153.679 269.062 153.763 269.06C153.806 269.059 153.848 269.05 153.887 269.032C153.927 269.015 153.962 268.99 153.992 268.959C154.022 268.928 154.045 268.891 154.06 268.851C154.076 268.811 154.084 268.768 154.083 268.725C154.083 268.554 153.153 250.78 154.953 239.992C155.786 235 156.724 231.347 157.55 228.125C158.524 224.338 159.291 221.347 159.424 217.865C159.663 211.482 160.109 187.198 160.399 171.127C160.449 167.684 160.72 164.247 161.21 160.838H161.56C163.07 160.843 164.567 160.549 165.963 159.972C167.359 159.394 168.626 158.546 169.692 157.475C172.95 154.105 173.605 151.017 174.505 146.739C174.751 145.586 175.004 144.396 175.324 143.079C175.342 142.999 175.328 142.915 175.284 142.845C175.241 142.776 175.173 142.726 175.093 142.707Z" fill="black"/>
<path d="M151.508 264.38C153.934 266.672 164.082 267.892 167.794 265.868L166.24 271.992C166.24 271.992 163.829 273.48 158.435 273.003C152.178 272.438 151.508 270.429 151.508 270.429V264.38Z" fill="black"/>
<path d="M192.22 259.463C195.434 260.534 204.518 259.872 208.015 257.677L207.866 262.788C207.866 262.788 205.902 264.7 200.515 265.281C195.129 265.861 192.941 264.38 192.941 264.38L192.22 259.463Z" fill="black"/>
<path d="M183.27 195.33L186.789 167.117C189.515 167.143 192.211 166.536 194.664 165.345C197.116 164.153 199.259 162.41 200.925 160.25C200.925 160.25 201.155 167.303 189.653 170.547L185.442 196.587L188.165 218.386L183.27 195.33Z" fill="#263238"/>
<path d="M208.93 96.0802C206.036 91.9584 203.581 81.7805 203.573 70.0402V61.2312C203.574 58.575 203.052 55.9446 202.036 53.4903C201.02 51.036 199.531 48.8059 197.653 46.9273C195.775 45.0488 193.546 43.5586 191.092 42.5418C188.638 41.5251 186.008 41.0018 183.351 41.0018C177.986 41.0018 172.841 43.1331 169.047 46.9269C165.253 50.7206 163.122 55.866 163.122 61.2312V127.544H203.573V87.2786C204.749 90.4034 206.601 93.93 208.93 96.0802Z" fill="black"/>
<path d="M223.349 134.128C224.011 127.499 216.035 113.43 207.539 98.3121C204.012 92.0328 201.899 88.6773 193.202 87.1968L188.656 110.64C188.656 110.64 209.533 133.593 209.979 133.593C210.426 133.593 223.349 134.128 223.349 134.128Z" fill="#93492A"/>
<path d="M192.897 86.423C198.403 87.7325 200.984 88.8038 203.573 91.8022C206.162 94.8005 213.58 109.003 215.805 112.999C218.029 116.994 220.596 123.206 220.596 123.206L206.75 128.094L196.483 109.874L192.897 86.423Z" fill="#0018F9"/>
<path opacity="0.3" d="M192.897 86.423C198.403 87.7325 200.984 88.8038 203.573 91.8022C206.162 94.8005 213.58 109.003 215.805 112.999C218.029 116.994 220.596 123.206 220.596 123.206L206.75 128.094L196.483 109.874L192.897 86.423Z" fill="black"/>
<path d="M204.95 125.736C206.497 124.002 214.934 120.565 220.112 122.061C220.7 122.213 221.225 122.547 221.61 123.017C221.995 123.486 222.221 124.066 222.255 124.672C222.426 125.736 223.557 127.031 223.386 127.812C223.215 128.593 223.773 129.999 223.937 131.011C224.1 132.023 224.152 133.407 223.349 134.143C221.251 132.864 213.402 130.676 206.021 131.628L204.95 125.736Z" fill="#37474F"/>
<path d="M211.728 154.529C211.14 150.943 195.27 147.208 186.781 147.632V104.904H207.613L211.728 154.529Z" fill="#0018F9"/>
<path opacity="0.5" d="M211.728 154.529C211.14 150.943 195.27 147.208 186.781 147.632V104.904H207.613L211.728 154.529Z" fill="black"/>
<path d="M178.642 84.8978L165.041 88.4318C162.809 89.1758 155.369 94.7633 158.249 107.359C159.208 111.518 160.518 117.366 161.693 123.206C162.594 127.67 159.283 136.256 156.604 149.938C156.604 149.938 167.578 158.732 189.385 156.247C206.021 154.358 207.821 148.063 207.821 148.063C207.36 132.439 205.991 126.435 206.021 120.498C206.021 120.498 208.454 117.522 208.558 112.21C208.662 106.645 207.211 103.654 202.264 97.3301C199.464 93.7518 196.437 90.3571 193.202 87.167L178.642 84.8978Z" fill="#FAFAFA"/>
<path d="M202.294 104.301C206.148 113.133 203.544 163.516 203.893 159.737C203.893 159.737 211.058 156.939 211.728 154.529C211.728 145.459 210.061 127.239 209.964 121.004C209.845 113.839 209.912 108.654 207.621 104.257C205.329 99.8597 196.639 89.0642 193.202 87.1968C196.751 90.2993 200.836 99.0115 202.294 104.301Z" fill="#0018F9"/>
<path opacity="0.2" d="M202.294 104.301C206.148 113.133 203.544 163.516 203.893 159.737C203.893 159.737 211.058 156.939 211.728 154.529C211.728 145.459 210.061 127.239 209.964 121.004C209.845 113.839 209.912 108.654 207.621 104.257C205.329 99.8597 196.639 89.0642 193.202 87.1968C196.751 90.2993 200.836 99.0115 202.294 104.301Z" fill="black"/>
<path d="M188.411 87.859C190.829 89.533 201.55 96.8762 203.7 111.488C203.7 105.045 201.297 97.159 199.013 93.4166C196.23 88.8559 192.525 84.6002 188.381 83.3578L188.411 87.859Z" fill="#37474F"/>
<path d="M173.746 85.0466C173.746 85.0466 173.627 85.2401 173.746 87.978C173.865 90.7159 178.151 111.421 178.21 121.346C178.239 134.693 177.444 148.028 175.83 161.277C175.83 161.277 158.524 161.79 152.676 153.837C155.16 146.944 156.999 139.836 158.167 132.603C160.124 120.521 163.732 88.4393 163.732 88.4393L173.746 85.0466Z" fill="#0018F9"/>
<path opacity="0.2" d="M173.746 85.0466C173.746 85.0466 173.627 85.2401 173.746 87.978C173.865 90.7159 178.151 111.421 178.21 121.346C178.239 134.693 177.444 148.028 175.83 161.277C175.83 161.277 158.524 161.79 152.676 153.837C155.16 146.944 156.999 139.836 158.167 132.603C160.124 120.521 163.732 88.4393 163.732 88.4393L173.746 85.0466Z" fill="black"/>
<path d="M199.749 53.0323C200.761 55.2643 203.975 58.3966 202.487 70.7544C201.356 80.1734 198.581 82.2046 195.456 83.328C193.139 83.9526 190.698 83.9526 188.381 83.328V87.792C188.381 87.792 193.849 93.3422 191.684 104.234C173.672 96.0504 173.724 86.7281 173.724 86.7281L173.642 71.8927C173.024 72.845 170.1 74.0726 167.913 71.0892C165.339 67.5775 166.053 63.493 168.471 62.0496C170.889 60.6062 173.746 62.1166 174.75 64.9512C177.28 66.097 179.386 63.8054 179.497 53.8358C185.419 51.0012 193.321 49.3346 199.749 53.0323Z" fill="#A96E38"/>
<path d="M173.716 80.1288C172.504 80.0395 172.162 82.5468 170.502 84.3473C169.556 85.3886 168.518 86.3423 167.4 87.1968C168.628 96.3405 172.92 106.176 177.935 116.213L173.739 83.1643L173.716 80.1288Z" fill="#37474F"/>
<path d="M169.401 69.8839C169.355 70.1479 169.388 70.4197 169.496 70.6649C169.605 70.91 169.783 71.1175 170.01 71.261C170.236 71.4045 170.5 71.4777 170.768 71.4711C171.036 71.4646 171.296 71.3787 171.515 71.2243C171.734 71.0699 171.902 70.8539 171.999 70.6038C172.095 70.3537 172.115 70.0806 172.056 69.8191C171.997 69.5577 171.861 69.3197 171.667 69.1352C171.473 68.9507 171.228 68.8281 170.964 68.7828C170.61 68.7223 170.248 68.8042 169.955 69.0106C169.662 69.217 169.463 69.531 169.401 69.8839Z" fill="#0018F9"/>
<path d="M192.041 62.8903L191.714 72.8302L196.929 71.9448L192.041 62.8903Z" fill="#93492A"/>
<path d="M188.381 83.328C180.777 80.9323 176.165 78.0233 175.443 74.772C175.443 74.772 175.406 78.0307 177.571 79.98C180.614 82.6807 188.381 85.0392 188.381 85.0392V83.328Z" fill="#93492A"/>
<path d="M185.74 67.0641C185.904 67.4636 186.217 67.7834 186.613 67.9557C187.009 68.1279 187.456 68.1391 187.86 67.9867C188.058 67.9158 188.239 67.8057 188.394 67.663C188.548 67.5203 188.672 67.3479 188.758 67.1562C188.844 66.9645 188.891 66.7574 188.895 66.5472C188.899 66.3371 188.861 66.1283 188.783 65.9333C188.455 65.1074 187.674 65.1 186.833 65.4125C185.993 65.7249 185.405 66.216 185.74 67.0641Z" fill="#263238"/>
<path d="M199.652 67.0641C199.488 67.4636 199.175 67.7834 198.779 67.9557C198.383 68.1279 197.936 68.1391 197.532 67.9867C197.334 67.9158 197.152 67.8057 196.998 67.663C196.844 67.5203 196.72 67.3479 196.634 67.1562C196.548 66.9645 196.501 66.7574 196.497 66.5472C196.493 66.3371 196.531 66.1283 196.609 65.9333C196.937 65.1074 197.718 65.1 198.559 65.4125C199.399 65.7249 199.987 66.216 199.652 67.0641Z" fill="#263238"/>
<path d="M191.721 76.2972C191.146 75.8308 190.476 75.4956 189.757 75.3151C189.372 75.2286 188.974 75.2084 188.582 75.2556C188.155 75.2626 187.739 75.3917 187.384 75.6276C187.332 75.6276 187.295 75.821 187.384 75.8434C187.569 75.8731 187.757 75.8731 187.942 75.8434C188.135 75.8322 188.329 75.8322 188.522 75.8434C188.885 75.8876 189.243 75.9623 189.594 76.0666C190.307 76.2451 190.969 76.5863 191.528 77.0635C191.714 77.2346 192.272 77.9191 192.406 77.3611C192.518 76.9519 192.027 76.5502 191.721 76.2972Z" fill="#B16668"/>
<path d="M198.001 47.2812C205.411 49.104 205.999 58.5825 205.344 62.496C204.28 62.9945 201.029 63.1805 198.685 62.9275C198.316 60.4977 197.589 58.1359 196.528 55.919C196.829 58.2971 196.941 60.6954 196.862 63.0912C194.797 63.5531 192.652 63.5276 190.598 63.0168C190.598 63.0168 190.464 58.6793 190.724 53.129C189.288 56.7374 188.939 62.9275 188.939 62.9275C188.939 62.9275 184.69 63.0689 181.945 61.9603C181.997 59.5465 182.258 57.1418 182.726 54.7733C181.29 57.221 180.643 60.1077 180.003 62.9573C179.363 65.8068 175.882 67.5031 174.795 65.0851C174.587 62.5853 174.051 56.291 176.692 52.0353C179.334 47.7797 189.623 45.2054 198.001 47.2812Z" fill="black"/>
<path d="M197.904 60.7625L201.423 62.4216C201.326 62.6561 201.183 62.8685 201.002 63.0458C200.82 63.2231 200.604 63.3616 200.368 63.4528C200.131 63.544 199.878 63.586 199.625 63.5763C199.371 63.5666 199.122 63.5053 198.893 63.3962C198.422 63.1685 198.056 62.7678 197.871 62.2774C197.687 61.787 197.699 61.2445 197.904 60.7625Z" fill="#263238"/>
<path d="M187.488 60.6137L184.214 62.8457C184.347 63.0651 184.523 63.2554 184.731 63.405C184.939 63.5546 185.176 63.6604 185.426 63.716C185.677 63.7717 185.936 63.776 186.188 63.7287C186.44 63.6814 186.68 63.5835 186.893 63.4409C187.34 63.1393 187.652 62.6755 187.763 62.1478C187.874 61.6201 187.775 61.0699 187.488 60.6137Z" fill="#263238"/>
<path d="M205.292 123.206C205.775 127.194 215.946 125.662 219.539 128.318C224.063 131.658 225.03 135.252 220.023 137.7C215.016 140.147 211.021 139.359 207.085 137.848C202.465 136.078 200.091 136.159 200.091 136.159L205.292 123.206Z" fill="#A96E38"/>
<path d="M197.428 135.601C195.821 134.56 194.355 131.532 194.065 129.516C193.656 126.644 194.199 125.929 194.348 123.162C194.319 121.865 194.573 120.578 195.092 119.39C195.092 119.39 195.285 117.864 194.035 113.825C193.574 112.337 193.79 111.168 194.913 110.945C194.549 108.914 195.486 108.282 196.439 108.416C196.119 106.824 195.977 105.395 197.562 104.874C197.726 104.815 198.075 105.328 198.47 106.474C198.589 105.44 199.839 104.45 200.278 105.239C201.603 107.813 202.797 110.453 203.856 113.148C205.054 116.295 205.53 117.612 205.344 123.206C205.218 126.673 205.3 128.005 204.6 131.457C204.318 132.945 204.258 133.355 202.703 135.125C201.379 136.621 198.217 136.241 197.428 135.601Z" fill="#A96E38"/>
<path d="M200.605 125.066C200.686 123.773 200.483 122.478 200.01 121.272C200.01 121.272 199.876 119.732 201.274 115.744C201.788 114.256 201.617 113.095 200.53 112.835C200.969 110.819 200.054 110.149 199.102 110.246C199.474 108.676 199.66 107.27 198.098 106.667C197.941 106.608 197.569 107.106 197.138 108.237C197.073 107.715 196.806 107.239 196.394 106.913C196.39 107.566 196.485 108.215 196.677 108.84C195.717 108.75 194.817 109.435 195.285 111.451C194.177 111.726 194.02 112.939 194.541 114.368C196.029 118.333 195.888 119.873 195.888 119.873C195.437 121.087 195.254 122.384 195.352 123.675C195.352 126.443 194.445 128.139 195.003 130.996C195.188 131.913 195.578 132.777 196.142 133.524C196.706 134.271 197.43 134.881 198.261 135.311C198.611 135.512 199.526 134.523 199.883 134.746C200.578 133.927 201.02 132.924 201.155 131.859C201.55 129.307 200.657 127.834 200.605 125.066Z" fill="#93492A"/>
<path d="M197.487 137.112C199.444 136.167 200.091 134.664 200.597 132.685C201.386 129.62 200.024 127.797 199.98 125.029C200.061 123.736 199.857 122.441 199.384 121.235C199.384 121.235 199.243 119.702 200.642 115.714C201.163 114.226 200.984 113.066 199.898 112.805C200.337 110.782 199.422 110.119 198.462 110.216C198.841 108.639 199.027 107.24 197.465 106.638C197.309 106.578 196.937 107.069 196.505 108.207C196.423 107.166 195.211 106.132 194.742 106.905C193.327 109.428 192.046 112.023 190.903 114.68C189.586 117.775 189.497 119.144 189.497 124.694C189.497 126.182 189.355 128.69 186.446 129.568C183.537 130.445 165.681 130.14 165.681 130.14C165.681 130.14 165.495 119.524 165.562 112.441C168.672 102.293 166.686 91.9286 164.29 88.4021C156.604 90.2695 152.245 93.3943 151.53 100.105C150.816 106.816 150.496 124.746 151.121 133.474C151.768 142.446 154.045 144.834 160.555 144.634C171.641 144.269 185.829 142.714 197.487 137.112Z" fill="#A96E38"/>
<path d="M199.013 113.832C198.24 115.485 197.608 117.199 197.123 118.958C196.937 119.948 196.632 122.075 196.632 122.075C196.533 120.971 196.576 119.858 196.758 118.765C197.063 116.607 199.013 113.832 199.013 113.832Z" fill="#93492A"/>
<path d="M198.194 110.328C197.45 112.009 195.962 114.353 195.627 115.595C195.165 117.483 194.869 119.407 194.742 121.346C194.5 119.348 194.677 117.321 195.263 115.394C195.88 113.46 196.9 112.478 198.194 110.328Z" fill="#93492A"/>
<path d="M196.483 108.207C195.412 110.484 193.708 113.676 193.343 114.621C192.979 115.565 192.465 120.268 192.465 120.268C192.37 118.609 192.433 116.945 192.651 115.298C193.009 113.579 196.483 108.207 196.483 108.207Z" fill="#93492A"/>
<path d="M164.484 88.1789C162.304 88.7294 157.215 89.8231 154.068 93.1785C150.92 96.534 150.943 100.016 150.623 106.667C150.303 113.319 150.266 126.644 150.4 128.771C150.4 128.771 152.751 129.739 158.063 129.575C163.375 129.411 165.815 127.968 165.815 127.968C165.815 127.968 165.912 120.007 166.105 116.756C166.299 113.505 167.913 106.251 167.593 100.581C167.274 94.9121 166.954 91.2665 164.484 88.1789Z" fill="#0018F9"/>
<path opacity="0.3" d="M164.484 88.1789C162.304 88.7294 157.215 89.8231 154.068 93.1785C150.92 96.534 150.943 100.016 150.623 106.667C150.303 113.319 150.266 126.644 150.4 128.771C150.4 128.771 152.751 129.739 158.063 129.575C163.375 129.411 165.815 127.968 165.815 127.968C165.815 127.968 165.912 120.007 166.105 116.756C166.299 113.505 167.913 106.251 167.593 100.581C167.274 94.9121 166.954 91.2665 164.484 88.1789Z" fill="black"/>
<path d="M165.845 126.101C165.332 127.261 162.795 128.094 158.249 128.228C155.533 128.31 150.846 127.358 150.348 126.54V125.267C150.348 125.267 149.038 125.505 149.358 128.057C149.678 130.609 148.391 131.837 148.904 133.124C149.418 134.411 149.165 136.561 150.005 137.551C150.474 138.124 151.121 138.525 151.843 138.689C151.843 138.689 161.857 137.29 166.433 130.148C166.82 129.449 166.433 128.615 166.433 127.842C166.433 127.068 166.827 125.662 165.86 125.342L165.845 126.101Z" fill="#37474F"/>
</svg>
