<svg width="259" height="228" viewBox="0 0 259 228" fill="none" xmlns="http://www.w3.org/2000/svg">
<rect x="116" y="76" width="26" height="23" rx="8" fill="#FBD133"/>
<rect x="122" y="81" width="14" height="22" rx="5" fill="#7165E3"/>
<path fill-rule="evenodd" clip-rule="evenodd" d="M194.061 155.031C194.061 190.946 164.946 220.061 129.031 220.061C93.1151 220.061 64 190.946 64 155.031C64 119.115 93.1151 90 129.031 90C164.946 90 194.061 119.115 194.061 155.031Z" fill="#FBD133"/>
<path fill-rule="evenodd" clip-rule="evenodd" d="M107.819 119.971C106.376 119.312 105.373 118.106 104.948 116.723C106.304 116.154 107.893 116.129 109.337 116.787C110.78 117.445 111.782 118.652 112.207 120.034C110.851 120.604 109.262 120.629 107.819 119.971Z" fill="#FFBF1E"/>
<path fill-rule="evenodd" clip-rule="evenodd" d="M107.569 113.41C106.914 114.86 105.714 115.868 104.338 116.295C103.77 114.932 103.746 113.335 104.401 111.885C105.056 110.434 106.256 109.427 107.632 109C108.199 110.363 108.224 111.96 107.569 113.41Z" fill="#FFBF1E"/>
<path fill-rule="evenodd" clip-rule="evenodd" d="M101.919 123.39C100.476 122.942 99.3486 121.812 98.7256 120.379C99.8835 119.5 101.348 119.173 102.792 119.621C104.235 120.069 105.362 121.199 105.985 122.631C104.827 123.511 103.362 123.837 101.919 123.39Z" fill="#FFBF1E"/>
<path fill-rule="evenodd" clip-rule="evenodd" d="M101.638 116.796C101.192 118.453 100.067 119.747 98.6419 120.463C97.7665 119.133 97.442 117.451 97.8873 115.794C98.3326 114.137 99.4578 112.842 100.883 112.126C101.758 113.457 102.083 115.138 101.638 116.796Z" fill="#FFBF1E"/>
<path fill-rule="evenodd" clip-rule="evenodd" d="M97.0272 126.692C95.5842 126.532 94.3436 125.592 93.54 124.23C94.5179 123.064 95.8691 122.411 97.3121 122.571C98.7556 122.731 99.9958 123.671 100.799 125.034C99.8214 126.199 98.4702 126.852 97.0272 126.692Z" fill="#FFBF1E"/>
<path fill-rule="evenodd" clip-rule="evenodd" d="M95.5967 120.627C95.4775 122.284 94.7758 123.709 93.759 124.632C92.8893 123.509 92.4016 121.957 92.5213 120.3C92.6406 118.642 93.3423 117.218 94.3591 116.295C95.2287 117.418 95.716 118.97 95.5967 120.627Z" fill="#FFBF1E"/>
<path fill-rule="evenodd" clip-rule="evenodd" d="M93.1642 131.902C91.7211 132.062 90.3705 131.409 89.3921 130.244C90.1956 128.882 91.4363 127.942 92.8793 127.782C94.3228 127.622 95.6735 128.275 96.6513 129.44C95.8483 130.803 94.6072 131.743 93.1642 131.902Z" fill="#FFBF1E"/>
<path fill-rule="evenodd" clip-rule="evenodd" d="M90.4112 125.51C90.5304 127.167 90.0432 128.718 89.1735 129.842C88.1566 128.919 87.4545 127.494 87.3357 125.837C87.2164 124.179 87.7037 122.628 88.5734 121.505C89.5902 122.428 90.2919 123.853 90.4112 125.51Z" fill="#FFBF1E"/>
<path fill-rule="evenodd" clip-rule="evenodd" d="M89.3099 136.937C87.8668 137.385 86.4025 137.058 85.2441 136.179C85.8677 134.746 86.9946 133.616 88.4377 133.168C89.8807 132.721 91.345 133.047 92.5034 133.927C91.8799 135.359 90.7529 136.489 89.3099 136.937Z" fill="#FFBF1E"/>
<path fill-rule="evenodd" clip-rule="evenodd" d="M86.0819 131.426C86.5277 133.083 86.2027 134.765 85.3273 136.095C83.9021 135.379 82.7769 134.085 82.3317 132.427C81.8864 130.77 82.2108 129.088 83.0862 127.758C84.5114 128.474 85.6366 129.768 86.0819 131.426Z" fill="#FFBF1E"/>
<path fill-rule="evenodd" clip-rule="evenodd" d="M87.5583 142.897C86.1153 143.555 84.526 143.531 83.1699 142.96C83.5953 141.578 84.5973 140.372 86.0403 139.713C87.4838 139.056 89.0731 139.08 90.4292 139.65C90.0038 141.033 89.0013 142.239 87.5583 142.897Z" fill="#FFBF1E"/>
<path fill-rule="evenodd" clip-rule="evenodd" d="M82.6799 138.979C83.3351 140.429 83.3104 142.027 82.7435 143.389C81.3675 142.963 80.167 141.955 79.5123 140.505C78.8572 139.054 78.8814 137.458 79.4488 136.095C80.8248 136.522 82.0248 137.529 82.6799 138.979Z" fill="#FFBF1E"/>
<path fill-rule="evenodd" clip-rule="evenodd" d="M85.1839 149.649C83.9465 150.624 82.4586 150.892 81.0957 150.53C81.2601 148.966 81.9932 147.484 83.2302 146.509C84.4672 145.534 85.9555 145.266 87.3179 145.627C87.1541 147.192 86.4209 148.674 85.1839 149.649Z" fill="#FFBF1E"/>
<path fill-rule="evenodd" clip-rule="evenodd" d="M81.1027 145.534C82.0728 146.777 82.3394 148.273 81.9799 149.642C80.4227 149.477 78.9481 148.74 77.978 147.497C77.0079 146.254 76.7413 144.759 77.1008 143.389C78.658 143.554 80.1326 144.291 81.1027 145.534Z" fill="#FFBF1E"/>
<path fill-rule="evenodd" clip-rule="evenodd" d="M84.8471 156.25C83.8194 157.489 82.4487 158.062 81.1036 157.969C81.0273 156.347 81.5017 154.694 82.5295 153.455C83.5567 152.216 84.9279 151.644 86.2729 151.736C86.3493 153.358 85.8749 155.011 84.8471 156.25Z" fill="#FFBF1E"/>
<mask id="mask0" mask-type="alpha" maskUnits="userSpaceOnUse" x="75" y="151" width="7" height="7">
<path fill-rule="evenodd" clip-rule="evenodd" d="M75.9106 151.782H81.3676V157.266H75.9106V151.782Z" fill="white"/>
</mask>
<g mask="url(#mask0)">
<path fill-rule="evenodd" clip-rule="evenodd" d="M79.8587 153.299C80.9403 154.386 81.4397 155.835 81.3593 157.258C79.9437 157.339 78.5007 156.837 77.4191 155.75C76.338 154.663 75.8386 153.214 75.919 151.791C77.3346 151.71 78.7771 152.212 79.8587 153.299Z" fill="#FFBF1E"/>
</g>
<path fill-rule="evenodd" clip-rule="evenodd" d="M86.2878 162.087C85.3177 163.33 83.843 164.066 82.2858 164.232C81.9263 162.862 82.193 161.367 83.163 160.124C84.1331 158.881 85.6078 158.144 87.165 157.979C87.5245 159.348 87.2579 160.844 86.2878 162.087Z" fill="#FFBF1E"/>
<path fill-rule="evenodd" clip-rule="evenodd" d="M79.9984 161.099C81.2359 162.073 81.9685 163.555 82.1329 165.12C80.7699 165.481 79.2821 165.213 78.0446 164.239C76.8077 163.264 76.0745 161.782 75.9106 160.217C77.2731 159.855 78.7614 160.124 79.9984 161.099Z" fill="#FFBF1E"/>
<path fill-rule="evenodd" clip-rule="evenodd" d="M87.8648 168.642C87.2102 170.092 86.0096 171.099 84.6336 171.526C84.0667 170.164 84.042 168.567 84.6972 167.116C85.3518 165.666 86.5524 164.659 87.9284 164.232C88.4958 165.595 88.52 167.191 87.8648 168.642Z" fill="#FFBF1E"/>
<path fill-rule="evenodd" clip-rule="evenodd" d="M82.3736 167.85C83.8167 168.509 84.8192 169.715 85.2441 171.097C83.8879 171.668 82.2985 171.692 80.8554 171.034C79.4123 170.376 78.4098 169.17 77.9849 167.787C79.341 167.217 80.9305 167.192 82.3736 167.85Z" fill="#FFBF1E"/>
<path fill-rule="evenodd" clip-rule="evenodd" d="M91.2672 174.111C90.8213 175.768 89.6967 177.063 88.2716 177.779C87.3962 176.449 87.0711 174.767 87.517 173.109C87.9623 171.452 89.0874 170.158 90.5126 169.442C91.388 170.772 91.7125 172.453 91.2672 174.111Z" fill="#FFBF1E"/>
<path fill-rule="evenodd" clip-rule="evenodd" d="M85.1615 174.852C86.6047 175.3 87.7319 176.431 88.355 177.863C87.1969 178.742 85.7324 179.068 84.2892 178.622C82.8459 178.174 81.7188 177.043 81.0957 175.611C82.2537 174.732 83.7177 174.405 85.1615 174.852Z" fill="#FFBF1E"/>
<path fill-rule="evenodd" clip-rule="evenodd" d="M94.5596 180.026C94.4403 181.684 93.7387 183.109 92.7219 184.032C91.8522 182.908 91.3645 181.356 91.4842 179.699C91.603 178.042 92.3052 176.617 93.3219 175.695C94.1916 176.818 94.6789 178.369 94.5596 180.026Z" fill="#FFBF1E"/>
<path fill-rule="evenodd" clip-rule="evenodd" d="M89.0162 180.929C90.4592 181.089 91.7004 182.029 92.5034 183.391C91.5255 184.557 90.1743 185.21 88.7313 185.05C87.2883 184.89 86.0477 183.95 85.2441 182.588C86.2225 181.422 87.5732 180.769 89.0162 180.929Z" fill="#FFBF1E"/>
<path fill-rule="evenodd" clip-rule="evenodd" d="M98.7076 183.868C98.8268 185.525 98.3396 187.076 97.47 188.2C96.4529 187.277 95.7513 185.853 95.6321 184.195C95.5128 182.538 96.0005 180.987 96.8701 179.863C97.8867 180.785 98.5883 182.211 98.7076 183.868Z" fill="#FFBF1E"/>
<path fill-rule="evenodd" clip-rule="evenodd" d="M93.9164 187.182C95.3594 187.021 96.7101 187.675 97.6885 188.84C96.8849 190.202 95.6443 191.143 94.2013 191.302C92.7578 191.463 91.4071 190.809 90.4292 189.644C91.2322 188.282 92.4734 187.342 93.9164 187.182Z" fill="#FFBF1E"/>
<path fill-rule="evenodd" clip-rule="evenodd" d="M104.749 187.699C105.194 189.357 104.869 191.038 103.994 192.368C102.569 191.653 101.443 190.358 100.998 188.701C100.553 187.043 100.877 185.361 101.753 184.032C103.178 184.747 104.303 186.041 104.749 187.699Z" fill="#FFBF1E"/>
<path fill-rule="evenodd" clip-rule="evenodd" d="M98.808 191.526C100.251 191.079 101.716 191.405 102.874 192.284C102.25 193.717 101.123 194.847 99.6803 195.295C98.2371 195.742 96.7727 195.416 95.6143 194.537C96.2378 193.104 97.3649 191.974 98.808 191.526Z" fill="#FFBF1E"/>
<path fill-rule="evenodd" clip-rule="evenodd" d="M109.643 190.043C110.298 191.493 110.274 193.089 109.706 194.453C108.33 194.025 107.13 193.018 106.475 191.568C105.82 190.118 105.844 188.521 106.412 187.158C107.788 187.585 108.988 188.592 109.643 190.043Z" fill="#FFBF1E"/>
<path fill-rule="evenodd" clip-rule="evenodd" d="M105.744 194.945C107.187 194.287 108.777 194.311 110.133 194.882C109.708 196.264 108.705 197.47 107.262 198.128C105.819 198.787 104.23 198.762 102.874 198.192C103.298 196.809 104.301 195.603 105.744 194.945Z" fill="#FFBF1E"/>
<path fill-rule="evenodd" clip-rule="evenodd" d="M114.355 114.916C112.912 115.48 111.387 115.311 110.133 114.587C110.66 113.167 111.727 111.984 113.17 111.421C114.613 110.857 116.138 111.025 117.392 111.75C116.865 113.17 115.798 114.352 114.355 114.916Z" fill="#FFBF1E"/>
<mask id="mask1" mask-type="alpha" maskUnits="userSpaceOnUse" x="81" y="112" width="51" height="95">
<path fill-rule="evenodd" clip-rule="evenodd" d="M81.4204 112.304H131.087V206.958H81.4204V112.304Z" fill="white"/>
</mask>
<g mask="url(#mask1)">
<path fill-rule="evenodd" clip-rule="evenodd" d="M128.573 206.958C121.544 199.564 115.012 196.649 110.178 194.907C109.713 194.739 109.281 194.583 108.888 194.437C92.4592 188.322 81.4204 172.154 81.4204 154.203C81.4204 134.003 95.3831 116.382 114.62 112.304L114.742 112.955C95.7958 116.971 82.0452 134.318 82.0452 154.203C82.0452 171.872 92.9149 187.789 109.094 193.809C109.486 193.955 109.916 194.11 110.379 194.278C115.263 196.038 123.956 198.984 131.087 206.486L128.573 206.958Z" fill="#FFBF1E"/>
</g>
<path fill-rule="evenodd" clip-rule="evenodd" d="M152.003 119.971C153.446 119.312 154.448 118.106 154.874 116.723C153.517 116.154 151.928 116.129 150.485 116.787C149.042 117.445 148.04 118.652 147.614 120.034C148.97 120.604 150.56 120.629 152.003 119.971Z" fill="#FFBF1E"/>
<path fill-rule="evenodd" clip-rule="evenodd" d="M152.253 113.41C152.908 114.86 154.108 115.868 155.484 116.295C156.051 114.932 156.075 113.335 155.421 111.885C154.766 110.434 153.566 109.427 152.19 109C151.622 110.363 151.597 111.96 152.253 113.41Z" fill="#FFBF1E"/>
<path fill-rule="evenodd" clip-rule="evenodd" d="M157.902 123.39C159.345 122.942 160.473 121.812 161.096 120.379C159.938 119.5 158.473 119.173 157.03 119.621C155.587 120.069 154.459 121.199 153.836 122.631C154.994 123.511 156.459 123.837 157.902 123.39Z" fill="#FFBF1E"/>
<path fill-rule="evenodd" clip-rule="evenodd" d="M158.184 116.796C158.63 118.453 159.754 119.747 161.179 120.463C162.055 119.133 162.379 117.451 161.934 115.794C161.489 114.137 160.364 112.842 158.938 112.126C158.063 113.457 157.738 115.138 158.184 116.796Z" fill="#FFBF1E"/>
<path fill-rule="evenodd" clip-rule="evenodd" d="M162.794 126.692C164.237 126.532 165.478 125.592 166.281 124.23C165.303 123.064 163.952 122.411 162.509 122.571C161.066 122.731 159.826 123.671 159.022 125.034C160 126.199 161.351 126.852 162.794 126.692Z" fill="#FFBF1E"/>
<path fill-rule="evenodd" clip-rule="evenodd" d="M164.225 120.627C164.344 122.284 165.046 123.709 166.062 124.632C166.932 123.509 167.42 121.957 167.3 120.3C167.181 118.642 166.479 117.218 165.462 116.295C164.593 117.418 164.105 118.97 164.225 120.627Z" fill="#FFBF1E"/>
<path fill-rule="evenodd" clip-rule="evenodd" d="M166.657 131.902C168.1 132.062 169.451 131.409 170.429 130.244C169.626 128.882 168.385 127.942 166.942 127.782C165.499 127.622 164.148 128.275 163.17 129.44C163.973 130.803 165.214 131.743 166.657 131.902Z" fill="#FFBF1E"/>
<path fill-rule="evenodd" clip-rule="evenodd" d="M169.41 125.51C169.291 127.167 169.778 128.718 170.648 129.842C171.665 128.919 172.367 127.494 172.486 125.837C172.605 124.179 172.118 122.628 171.248 121.505C170.231 122.428 169.529 123.853 169.41 125.51Z" fill="#FFBF1E"/>
<path fill-rule="evenodd" clip-rule="evenodd" d="M170.511 136.937C171.954 137.385 173.419 137.058 174.577 136.179C173.954 134.746 172.827 133.616 171.384 133.168C169.941 132.721 168.476 133.047 167.318 133.927C167.941 135.359 169.068 136.489 170.511 136.937Z" fill="#FFBF1E"/>
<path fill-rule="evenodd" clip-rule="evenodd" d="M173.739 131.426C173.294 133.083 173.619 134.765 174.494 136.095C175.919 135.379 177.044 134.085 177.49 132.427C177.935 130.77 177.61 129.088 176.735 127.758C175.31 128.474 174.185 129.768 173.739 131.426Z" fill="#FFBF1E"/>
<path fill-rule="evenodd" clip-rule="evenodd" d="M172.263 142.897C173.706 143.555 175.295 143.531 176.651 142.96C176.226 141.578 175.224 140.372 173.781 139.713C172.337 139.056 170.748 139.08 169.392 139.65C169.818 141.033 170.82 142.239 172.263 142.897Z" fill="#FFBF1E"/>
<path fill-rule="evenodd" clip-rule="evenodd" d="M177.141 138.979C176.486 140.429 176.511 142.027 177.078 143.389C178.454 142.963 179.654 141.955 180.309 140.505C180.964 139.054 180.94 137.458 180.373 136.095C178.997 136.522 177.797 137.529 177.141 138.979Z" fill="#FFBF1E"/>
<path fill-rule="evenodd" clip-rule="evenodd" d="M174.637 149.649C175.875 150.624 177.363 150.892 178.726 150.53C178.561 148.966 177.828 147.484 176.591 146.509C175.354 145.534 173.866 145.266 172.503 145.627C172.667 147.192 173.4 148.674 174.637 149.649Z" fill="#FFBF1E"/>
<path fill-rule="evenodd" clip-rule="evenodd" d="M178.719 145.534C177.748 146.777 177.482 148.273 177.841 149.642C179.399 149.477 180.873 148.74 181.843 147.497C182.813 146.254 183.08 144.759 182.721 143.389C181.163 143.554 179.689 144.291 178.719 145.534Z" fill="#FFBF1E"/>
<path fill-rule="evenodd" clip-rule="evenodd" d="M174.974 156.25C176.002 157.489 177.373 158.062 178.718 157.969C178.794 156.347 178.32 154.694 177.292 153.455C176.265 152.216 174.893 151.644 173.548 151.736C173.472 153.358 173.946 155.011 174.974 156.25Z" fill="#FFBF1E"/>
<mask id="mask2" mask-type="alpha" maskUnits="userSpaceOnUse" x="178" y="151" width="6" height="7">
<path fill-rule="evenodd" clip-rule="evenodd" d="M183.911 151.782H178.454V157.266H183.911V151.782Z" fill="white"/>
</mask>
<g mask="url(#mask2)">
<path fill-rule="evenodd" clip-rule="evenodd" d="M179.963 153.299C178.881 154.386 178.382 155.835 178.462 157.258C179.878 157.339 181.321 156.837 182.402 155.75C183.483 154.663 183.983 153.214 183.902 151.791C182.487 151.71 181.044 152.212 179.963 153.299Z" fill="#FFBF1E"/>
</g>
<path fill-rule="evenodd" clip-rule="evenodd" d="M173.534 162.087C174.504 163.33 175.978 164.066 177.535 164.232C177.895 162.862 177.628 161.367 176.658 160.124C175.688 158.881 174.214 158.144 172.656 157.979C172.297 159.348 172.563 160.844 173.534 162.087Z" fill="#FFBF1E"/>
<path fill-rule="evenodd" clip-rule="evenodd" d="M179.823 161.099C178.585 162.073 177.853 163.555 177.688 165.12C179.051 165.481 180.539 165.213 181.777 164.239C183.014 163.264 183.747 161.782 183.911 160.217C182.548 159.855 181.06 160.124 179.823 161.099Z" fill="#FFBF1E"/>
<path fill-rule="evenodd" clip-rule="evenodd" d="M171.956 168.642C172.611 170.092 173.812 171.099 175.188 171.526C175.755 170.164 175.779 168.567 175.124 167.116C174.469 165.666 173.269 164.659 171.893 164.232C171.325 165.595 171.301 167.191 171.956 168.642Z" fill="#FFBF1E"/>
<path fill-rule="evenodd" clip-rule="evenodd" d="M177.448 167.85C176.005 168.509 175.002 169.715 174.577 171.097C175.933 171.668 177.523 171.692 178.966 171.034C180.409 170.376 181.412 169.17 181.836 167.787C180.48 167.217 178.891 167.192 177.448 167.85Z" fill="#FFBF1E"/>
<path fill-rule="evenodd" clip-rule="evenodd" d="M168.554 174.111C169 175.768 170.125 177.063 171.55 177.779C172.425 176.449 172.75 174.767 172.304 173.109C171.859 171.452 170.734 170.158 169.309 169.442C168.433 170.772 168.109 172.453 168.554 174.111Z" fill="#FFBF1E"/>
<path fill-rule="evenodd" clip-rule="evenodd" d="M174.66 174.852C173.217 175.3 172.089 176.431 171.466 177.863C172.624 178.742 174.089 179.068 175.532 178.622C176.975 178.174 178.102 177.043 178.726 175.611C177.568 174.732 176.104 174.405 174.66 174.852Z" fill="#FFBF1E"/>
<path fill-rule="evenodd" clip-rule="evenodd" d="M165.262 180.026C165.381 181.684 166.083 183.109 167.099 184.032C167.969 182.908 168.457 181.356 168.337 179.699C168.218 178.042 167.516 176.617 166.499 175.695C165.63 176.818 165.142 178.369 165.262 180.026Z" fill="#FFBF1E"/>
<path fill-rule="evenodd" clip-rule="evenodd" d="M170.805 180.929C169.362 181.089 168.121 182.029 167.318 183.391C168.296 184.557 169.647 185.21 171.09 185.05C172.533 184.89 173.774 183.95 174.577 182.588C173.599 181.422 172.248 180.769 170.805 180.929Z" fill="#FFBF1E"/>
<path fill-rule="evenodd" clip-rule="evenodd" d="M161.114 183.868C160.994 185.525 161.482 187.076 162.351 188.2C163.368 187.277 164.07 185.853 164.189 184.195C164.308 182.538 163.821 180.987 162.951 179.863C161.935 180.785 161.233 182.211 161.114 183.868Z" fill="#FFBF1E"/>
<path fill-rule="evenodd" clip-rule="evenodd" d="M165.905 187.182C164.462 187.021 163.111 187.675 162.133 188.84C162.936 190.202 164.177 191.143 165.62 191.302C167.064 191.463 168.414 190.809 169.392 189.644C168.589 188.282 167.348 187.342 165.905 187.182Z" fill="#FFBF1E"/>
<path fill-rule="evenodd" clip-rule="evenodd" d="M155.073 187.699C154.627 189.357 154.952 191.038 155.827 192.368C157.253 191.653 158.378 190.358 158.823 188.701C159.268 187.043 158.944 185.361 158.068 184.032C156.643 184.747 155.519 186.041 155.073 187.699Z" fill="#FFBF1E"/>
<path fill-rule="evenodd" clip-rule="evenodd" d="M161.013 191.526C159.57 191.079 158.106 191.405 156.948 192.284C157.571 193.717 158.698 194.847 160.141 195.295C161.584 195.742 163.049 195.416 164.207 194.537C163.583 193.104 162.456 191.974 161.013 191.526Z" fill="#FFBF1E"/>
<path fill-rule="evenodd" clip-rule="evenodd" d="M150.178 190.043C149.524 191.493 149.548 193.089 150.115 194.453C151.491 194.025 152.691 193.018 153.346 191.568C154.001 190.118 153.977 188.521 153.41 187.158C152.033 187.585 150.833 188.592 150.178 190.043Z" fill="#FFBF1E"/>
<path fill-rule="evenodd" clip-rule="evenodd" d="M154.077 194.945C152.634 194.287 151.045 194.311 149.688 194.882C150.113 196.264 151.116 197.47 152.559 198.128C154.003 198.787 155.592 198.762 156.948 198.192C156.523 196.809 155.52 195.603 154.077 194.945Z" fill="#FFBF1E"/>
<path fill-rule="evenodd" clip-rule="evenodd" d="M145.466 114.916C146.91 115.48 148.434 115.311 149.688 114.587C149.161 113.167 148.094 111.984 146.651 111.421C145.208 110.857 143.683 111.025 142.429 111.75C142.957 113.17 144.024 114.352 145.466 114.916Z" fill="#FFBF1E"/>
<mask id="mask3" mask-type="alpha" maskUnits="userSpaceOnUse" x="128" y="112" width="51" height="95">
<path fill-rule="evenodd" clip-rule="evenodd" d="M178.401 112.304H128.735V206.958H178.401V112.304Z" fill="white"/>
</mask>
<g mask="url(#mask3)">
<path fill-rule="evenodd" clip-rule="evenodd" d="M131.248 206.958C138.277 199.564 144.81 196.649 149.643 194.907C150.108 194.739 150.54 194.583 150.933 194.437C167.362 188.322 178.401 172.154 178.401 154.203C178.401 134.003 164.438 116.382 145.201 112.304L145.079 112.955C164.025 116.971 177.776 134.318 177.776 154.203C177.776 171.872 166.906 187.789 150.728 193.809C150.336 193.955 149.905 194.11 149.442 194.278C144.559 196.038 135.866 198.984 128.735 206.486L131.248 206.958Z" fill="#FFBF1E"/>
</g>
<path d="M109.773 170L121.653 143.405H106.128V138.5H127.593V142.595L115.758 170H109.773ZM130.674 170V165.815C132.594 164.225 134.454 162.65 136.254 161.09C138.084 159.53 139.704 157.985 141.114 156.455C142.554 154.925 143.694 153.44 144.534 152C145.404 150.53 145.839 149.105 145.839 147.725C145.839 146.435 145.479 145.295 144.759 144.305C144.069 143.315 142.914 142.82 141.294 142.82C139.644 142.82 138.399 143.36 137.559 144.44C136.719 145.52 136.299 146.825 136.299 148.355H130.719C130.779 146.045 131.289 144.125 132.249 142.595C133.209 141.035 134.484 139.88 136.074 139.13C137.664 138.35 139.449 137.96 141.429 137.96C144.639 137.96 147.129 138.845 148.899 140.615C150.699 142.355 151.599 144.62 151.599 147.41C151.599 149.15 151.194 150.845 150.384 152.495C149.604 154.145 148.569 155.735 147.279 157.265C145.989 158.795 144.594 160.235 143.094 161.585C141.594 162.905 140.139 164.135 138.729 165.275H152.364V170H130.674Z" fill="#FFB600"/>
<path d="M198.57 114.35L195.142 117.197L191.001 115.549C190.711 115.433 190.424 115.721 190.539 116.011L192.187 120.151L189.341 123.58C189.141 123.82 189.326 124.182 189.637 124.162L194.084 123.874L196.465 127.641C196.632 127.904 197.033 127.841 197.11 127.539L198.211 123.22L202.529 122.12C202.831 122.043 202.895 121.641 202.631 121.475L198.865 119.093L199.152 114.646C199.172 114.335 198.81 114.151 198.57 114.35Z" fill="#FFDC64"/>
<path d="M187.463 118.888C187.846 118.95 189.251 119.452 190.065 119.75C190.193 119.797 190.163 119.986 190.026 119.99C189.16 120.014 187.667 120.045 187.285 119.983C186.983 119.933 186.778 119.648 186.827 119.346C186.876 119.044 187.161 118.838 187.463 118.888Z" fill="#FFF082"/>
<path d="M193.878 112.473C193.941 112.855 194.443 114.26 194.741 115.074C194.788 115.202 194.977 115.172 194.98 115.035C195.005 114.169 195.035 112.676 194.973 112.294C194.924 111.992 194.639 111.787 194.337 111.836C194.034 111.885 193.829 112.17 193.878 112.473Z" fill="#FFF082"/>
<path d="M202.921 116.46C202.576 116.635 201.389 117.541 200.704 118.073C200.597 118.156 200.683 118.326 200.814 118.289C201.647 118.049 203.078 117.624 203.424 117.449C203.697 117.31 203.806 116.976 203.667 116.703C203.528 116.43 203.194 116.321 202.921 116.46Z" fill="#FFF082"/>
<path d="M191.451 127.93C191.626 127.585 192.532 126.399 193.064 125.713C193.147 125.606 193.317 125.692 193.28 125.823C193.04 126.656 192.615 128.088 192.44 128.433C192.301 128.706 191.967 128.815 191.694 128.676C191.421 128.537 191.312 128.203 191.451 127.93Z" fill="#FFF082"/>
<path d="M201.232 127.002C200.958 126.728 200.111 125.499 199.625 124.781C199.548 124.669 199.683 124.533 199.796 124.61C200.513 125.097 201.743 125.944 202.016 126.217C202.233 126.434 202.233 126.785 202.016 127.002C201.8 127.218 201.449 127.218 201.232 127.002Z" fill="#FFF082"/>
<path d="M192.507 116.148L191.001 115.549C190.711 115.433 190.424 115.721 190.539 116.011L192.187 120.151L189.341 123.58C189.141 123.82 189.326 124.182 189.637 124.162L194.084 123.874L196.465 127.641C196.632 127.904 197.033 127.841 197.11 127.539L197.257 126.964C194.021 122.546 192.874 118.075 192.507 116.148Z" fill="#FFC850"/>
<path d="M124.199 3.88925L121.199 6.38001L117.576 4.93821C117.322 4.83726 117.071 5.08866 117.172 5.34232L118.614 8.96519L116.123 11.9652C115.948 12.1753 116.11 12.4921 116.382 12.4744L120.273 12.2227L122.357 15.5186C122.503 15.7494 122.854 15.6938 122.921 15.4293L123.884 11.6508L127.663 10.6878C127.927 10.6204 127.983 10.2692 127.752 10.1233L124.456 8.03981L124.708 4.1487C124.726 3.87626 124.409 3.71485 124.199 3.88925Z" fill="#FFDC64"/>
<path d="M118.893 5.46253L117.576 4.93824C117.322 4.83728 117.071 5.08868 117.172 5.34234L118.614 8.96521L116.123 11.9652C115.948 12.1753 116.11 12.4921 116.382 12.4744L120.273 12.2227L122.357 15.5186C122.503 15.7494 122.854 15.6938 122.921 15.4293L123.05 14.9264C120.218 11.0606 119.215 7.1484 118.893 5.46253Z" fill="#FFC850"/>
<rect x="39.6499" y="31.2229" width="15" height="3" rx="1.5" transform="rotate(-37 39.6499 31.2229)" fill="#FE4B20"/>
<rect x="219.844" y="18.8157" width="15" height="3" rx="1.5" transform="rotate(-37 219.844 18.8157)" fill="#FE4B20"/>
<rect x="243.844" y="89.8157" width="15" height="3" rx="1.5" transform="rotate(-37 243.844 89.8157)" fill="#FE4B20"/>
<rect x="75.8438" y="102.351" width="15" height="3" rx="1.5" transform="rotate(31 75.8438 102.351)" fill="#FE4B20"/>
<rect x="90.2036" y="42.0067" width="10" height="2" rx="1" transform="rotate(67 90.2036 42.0067)" fill="#9186F4"/>
<rect x="5.01465" y="42.7632" width="6" height="6" transform="rotate(42 5.01465 42.7632)" fill="#9186F4"/>
<rect x="28.0298" y="143.155" width="6" height="6" transform="rotate(70 28.0298 143.155)" fill="#9186F4"/>
<rect x="164.793" y="95.1549" width="6" height="6" transform="rotate(70 164.793 95.1549)" fill="#FE4B20"/>
<rect x="201.081" y="217.351" width="15" height="3" rx="1.5" transform="rotate(31 201.081 217.351)" fill="#FE4B20"/>
<rect x="247.966" y="206.068" width="10" height="2" rx="1" transform="rotate(31 247.966 206.068)" fill="#9186F4"/>
<rect x="181.385" y="54.3975" width="10" height="2" rx="1" transform="rotate(138 181.385 54.3975)" fill="#9186F4"/>
</svg>
