 <svg width="18" height="17" viewBox="0 0 18 17" fill="none" xmlns="http://www.w3.org/2000/svg">
    <path d="M2.9028 13H2.07666C0.931572 13 0 13.8973 0 15V16.4562C0 16.7566 0.252782 17 0.564678 17H3C2.93721 16.8298 2.9028 16.6468 2.9028 16.4562V13Z" fill="white"/>
    <path d="M6.9028 11H6.07681C4.93172 11 4 11.7788 4 12.736V16.528C4 16.7887 4.25278 17 4.56468 17H7C6.93736 16.8522 6.9028 16.6934 6.9028 16.528V11Z" fill="white"/>
    <path d="M17.9035 5.00278L14.3948 0.201553C14.3021 0.0748367 14.1557 0 13.9999 0C13.8442 0 13.6977 0.0748367 13.6051 0.201553L10.0965 5.00278C9.98608 5.15388 9.96906 5.3553 10.0525 5.52326C10.136 5.69122 10.3057 5.79732 10.4914 5.79732H11.7543V16.502C11.7543 16.777 11.9743 17 12.2457 17H15.7542C16.0256 17 16.2456 16.777 16.2456 16.502V5.79732H17.5086C17.6942 5.79732 17.864 5.69122 17.9474 5.52326C18.031 5.3553 18.0139 5.15388 17.9035 5.00278Z" fill="white"/>
    <path d="M10.9029 8H10.0768C8.93172 8 8 8.82183 8 9.83202V16.5018C8 16.777 8.25293 17 8.56468 17H11C10.9374 16.8441 10.9029 16.6765 10.9029 16.5018V8Z" fill="white"/>
</svg>