 <svg width="21" height="14" viewBox="0 0 21 14" fill="none" xmlns="http://www.w3.org/2000/svg">
    <path fill-rule="evenodd" clip-rule="evenodd" d="M20.4205 0H0.57947C0.259603 0 0 0.266259 0 0.594328V13.4057C0 13.7337 0.259603 14 0.57947 14H20.4205C20.7404 14 21 13.7337 21 13.4057V0.594328C21 0.266259 20.7404 0 20.4205 0ZM8.10795 10.2676C8.10795 10.5957 7.84834 10.8619 7.52848 10.8619H7.29205C7.29439 10.8215 7.29669 9.75409 7.29669 9.75409C7.29669 9.09796 6.77751 8.56544 6.13775 8.56544H4.48974C3.85 8.56544 3.33079 9.09796 3.33079 9.75409C3.33079 9.75409 3.33311 10.8215 3.33543 10.8619H3.09901C2.77914 10.8619 2.51954 10.5957 2.51954 10.2676V3.73476C2.51954 3.40669 2.77914 3.14043 3.09901 3.14043H7.53079C7.85066 3.14043 8.11026 3.40669 8.11026 3.73476V10.2676H8.10795ZM17.9056 10.8619C18.2255 10.8619 18.4851 10.5957 18.4851 10.2676V9.8611C18.4851 9.53303 18.2255 9.26677 17.9056 9.26677H10.6205C10.3007 9.26677 10.0411 9.53303 10.0411 9.8611V10.2676C10.0411 10.5957 10.3007 10.8619 10.6205 10.8619H17.9056ZM18.4851 7.20561C18.4851 7.53371 18.2255 7.79994 17.9056 7.79994H10.6205C10.3007 7.79994 10.0411 7.53371 10.0411 7.20561V6.79909C10.0411 6.47102 10.3007 6.20476 10.6205 6.20476H17.9056C18.2255 6.20476 18.4851 6.47102 18.4851 6.79909V7.20561ZM17.9056 4.73561C18.2255 4.73561 18.4851 4.46935 18.4851 4.14128V3.73476C18.4851 3.40669 18.2255 3.14043 17.9056 3.14043H10.6205C10.3007 3.14043 10.0411 3.40669 10.0411 3.73476V4.14128C10.0411 4.46935 10.3007 4.73561 10.6205 4.73561H17.9056Z" fill="#0018F9"/>
    <circle cx="5" cy="6" r="2" fill="#0018F9"/>
</svg>
