<svg width="131" height="145" viewBox="0 0 131 145" fill="none" xmlns="http://www.w3.org/2000/svg">
<rect x="52" width="26" height="23" rx="8" fill="#FBD133"/>
<rect x="58" y="5" width="14" height="22" rx="5" fill="#7165E3"/>
<path fill-rule="evenodd" clip-rule="evenodd" d="M130.061 79.0312C130.061 114.946 100.946 144.061 65.0312 144.061C29.1151 144.061 0 114.946 0 79.0312C0 43.1151 29.1151 14 65.0312 14C100.946 14 130.061 43.1151 130.061 79.0312" fill="#FBD133"/>
<path fill-rule="evenodd" clip-rule="evenodd" d="M43.8181 43.9707C42.3751 43.3123 41.3727 42.1064 40.9473 40.7236C42.3033 40.1539 43.8926 40.1291 45.3362 40.7875C46.7792 41.4454 47.7811 42.6518 48.2065 44.0346C46.8504 44.6043 45.2611 44.6291 43.8181 43.9707" fill="#FFBF1E"/>
<path fill-rule="evenodd" clip-rule="evenodd" d="M43.5682 37.4102C42.913 38.8603 41.713 39.8678 40.337 40.2947C39.7696 38.9319 39.7454 37.3347 40.4001 35.8846C41.0552 34.4344 42.2552 33.427 43.6312 33C44.1987 34.3628 44.2234 35.96 43.5682 37.4102" fill="#FFBF1E"/>
<path fill-rule="evenodd" clip-rule="evenodd" d="M37.9184 47.3895C36.4752 46.9415 35.3477 45.8114 34.7246 44.3793C35.8826 43.4996 37.3475 43.1729 38.7906 43.621C40.2338 44.0684 41.3608 45.1991 41.9839 46.6312C40.8259 47.5109 39.3615 47.837 37.9184 47.3895" fill="#FFBF1E"/>
<path fill-rule="evenodd" clip-rule="evenodd" d="M37.6366 40.7957C37.1907 42.453 36.0661 43.7472 34.6409 44.4633C33.7655 43.133 33.4411 41.4513 33.8863 39.794C34.3316 38.1368 35.4568 36.8425 36.882 36.1265C37.7574 37.4568 38.0824 39.1385 37.6366 40.7957" fill="#FFBF1E"/>
<path fill-rule="evenodd" clip-rule="evenodd" d="M33.0263 50.6919C31.5832 50.5321 30.3426 49.592 29.5391 48.2297C30.517 47.0644 31.8681 46.411 33.3111 46.5714C34.7546 46.7306 35.9948 47.6707 36.7983 49.0336C35.8204 50.1989 34.4693 50.8517 33.0263 50.6919" fill="#FFBF1E"/>
<path fill-rule="evenodd" clip-rule="evenodd" d="M31.5953 44.6269C31.476 46.2841 30.7743 47.709 29.7575 48.6318C28.8879 47.5087 28.4001 45.9575 28.5199 44.2998C28.6391 42.6425 29.3408 41.2177 30.3576 40.2949C31.2273 41.4185 31.7145 42.9697 31.5953 44.6269" fill="#FFBF1E"/>
<path fill-rule="evenodd" clip-rule="evenodd" d="M29.1646 55.9024C27.7216 56.0622 26.371 55.4094 25.3926 54.2443C26.1961 52.8815 27.4368 51.9414 28.8798 51.7817C30.3233 51.6219 31.6739 52.2753 32.6518 53.4404C31.8488 54.8026 30.6077 55.7426 29.1646 55.9024" fill="#FFBF1E"/>
<path fill-rule="evenodd" clip-rule="evenodd" d="M26.4117 49.5102C26.5309 51.1674 26.0436 52.7186 25.1739 53.8422C24.1571 52.9194 23.455 51.4946 23.3362 49.8374C23.2169 48.1796 23.7042 46.6284 24.5739 45.5054C25.5907 46.4276 26.2924 47.853 26.4117 49.5102" fill="#FFBF1E"/>
<path fill-rule="evenodd" clip-rule="evenodd" d="M25.3099 60.9369C23.8668 61.3843 22.4025 61.0583 21.2441 60.1785C21.8677 58.7463 22.9946 57.6156 24.4377 57.1681C25.8807 56.7206 27.345 57.0467 28.5034 57.9264C27.8799 59.3586 26.7529 60.4888 25.3099 60.9369" fill="#FFBF1E"/>
<path fill-rule="evenodd" clip-rule="evenodd" d="M22.0819 55.4257C22.5277 57.083 22.2027 58.7648 21.3273 60.0947C19.9021 59.3791 18.7769 58.0848 18.3317 56.4274C17.8864 54.77 18.2108 53.0882 19.0862 51.7578C20.5114 52.4739 21.6366 53.7683 22.0819 55.4257" fill="#FFBF1E"/>
<path fill-rule="evenodd" clip-rule="evenodd" d="M23.5583 66.8971C22.1153 67.5555 20.526 67.5307 19.1699 66.9605C19.5953 65.5777 20.5973 64.3719 22.0403 63.7135C23.4838 63.0557 25.0731 63.0799 26.4292 63.6501C26.0038 65.0329 25.0013 66.2387 23.5583 66.8971" fill="#FFBF1E"/>
<path fill-rule="evenodd" clip-rule="evenodd" d="M18.6795 62.9793C19.3346 64.4295 19.3099 66.0267 18.743 67.3895C17.367 66.9625 16.1665 65.955 15.5119 64.5049C14.8567 63.0542 14.8809 61.4575 15.4483 60.0947C16.8243 60.5217 18.0243 61.5292 18.6795 62.9793" fill="#FFBF1E"/>
<path fill-rule="evenodd" clip-rule="evenodd" d="M21.1839 73.6489C19.9465 74.6237 18.4586 74.8916 17.0957 74.5304C17.2601 72.9656 17.9932 71.4837 19.2302 70.5089C20.4672 69.5341 21.9555 69.2662 23.3179 69.6274C23.1541 71.1922 22.4209 72.6741 21.1839 73.6489" fill="#FFBF1E"/>
<path fill-rule="evenodd" clip-rule="evenodd" d="M17.1022 69.5341C18.0723 70.7776 18.3389 72.2727 17.9794 73.6423C16.4222 73.4771 14.9476 72.7404 13.9775 71.4974C13.0074 70.2543 12.7408 68.7587 13.1003 67.3896C14.6575 67.5543 16.1321 68.291 17.1022 69.5341" fill="#FFBF1E"/>
<path fill-rule="evenodd" clip-rule="evenodd" d="M20.8471 80.2501C19.8194 81.4889 18.4487 82.0617 17.1036 81.969C17.0273 80.347 17.5017 78.694 18.5295 77.4546C19.5567 76.2157 20.9279 75.6436 22.2729 75.7356C22.3493 77.3577 21.8749 79.0107 20.8471 80.2501" fill="#FFBF1E"/>
<mask id="mask0" mask-type="alpha" maskUnits="userSpaceOnUse" x="11" y="75" width="7" height="7">
<path fill-rule="evenodd" clip-rule="evenodd" d="M11.9102 75.7827H17.3671V81.2664H11.9102V75.7827Z" fill="white"/>
</mask>
<g mask="url(#mask0)">
<path fill-rule="evenodd" clip-rule="evenodd" d="M15.8582 77.299C16.9398 78.3859 17.4392 79.8355 17.3588 81.258C15.9433 81.3388 14.5002 80.837 13.4186 79.7506C12.3375 78.6637 11.8381 77.2141 11.9185 75.7911C13.3341 75.7103 14.7766 76.2126 15.8582 77.299" fill="#FFBF1E"/>
</g>
<path fill-rule="evenodd" clip-rule="evenodd" d="M22.2878 86.0869C21.3177 87.3298 19.843 88.0665 18.2858 88.2316C17.9263 86.8622 18.193 85.3667 19.163 84.1237C20.1331 82.8808 21.6078 82.1441 23.165 81.979C23.5245 83.3485 23.2579 84.844 22.2878 86.0869" fill="#FFBF1E"/>
<path fill-rule="evenodd" clip-rule="evenodd" d="M15.9979 85.0985C17.2354 86.0733 17.968 87.5551 18.1324 89.1198C16.7695 89.4811 15.2816 89.2126 14.0441 88.2384C12.8072 87.2636 12.074 85.7818 11.9102 84.217C13.2726 83.8552 14.7609 84.1237 15.9979 85.0985" fill="#FFBF1E"/>
<path fill-rule="evenodd" clip-rule="evenodd" d="M23.8648 92.6418C23.2102 94.0919 22.0096 95.0987 20.6336 95.5262C20.0667 94.1635 20.042 92.5664 20.6972 91.1158C21.3518 89.6663 22.5524 88.6589 23.9284 88.2314C24.4958 89.5947 24.52 91.1912 23.8648 92.6418" fill="#FFBF1E"/>
<path fill-rule="evenodd" clip-rule="evenodd" d="M18.3731 91.8502C19.8162 92.5086 20.8187 93.7146 21.2436 95.0974C19.8874 95.6676 18.298 95.6919 16.8549 95.034C15.4118 94.3756 14.4093 93.1697 13.9844 91.7869C15.3406 91.2167 16.93 91.1924 18.3731 91.8502" fill="#FFBF1E"/>
<path fill-rule="evenodd" clip-rule="evenodd" d="M27.2677 98.1109C26.8218 99.7683 25.6972 101.063 24.2721 101.779C23.3967 100.449 23.0716 98.7665 23.5175 97.1092C23.9627 95.4518 25.0879 94.1574 26.5131 93.4419C27.3885 94.7717 27.713 96.453 27.2677 98.1109" fill="#FFBF1E"/>
<path fill-rule="evenodd" clip-rule="evenodd" d="M21.1615 98.8525C22.6047 99.3006 23.7319 100.431 24.355 101.863C23.1969 102.743 21.7324 103.069 20.2892 102.622C18.8459 102.174 17.7188 101.043 17.0957 99.6108C18.2537 98.7317 19.7177 98.4051 21.1615 98.8525" fill="#FFBF1E"/>
<path fill-rule="evenodd" clip-rule="evenodd" d="M30.5581 104.027C30.4389 105.684 29.7372 107.109 28.7204 108.032C27.8508 106.908 27.363 105.356 27.4828 103.699C27.6016 102.042 28.3037 100.618 29.3205 99.6948C30.1901 100.818 30.6774 102.369 30.5581 104.027" fill="#FFBF1E"/>
<path fill-rule="evenodd" clip-rule="evenodd" d="M25.0162 104.929C26.4592 105.089 27.7004 106.029 28.5034 107.391C27.5255 108.557 26.1743 109.21 24.7313 109.05C23.2883 108.89 22.0477 107.95 21.2441 106.588C22.2225 105.422 23.5732 104.769 25.0162 104.929" fill="#FFBF1E"/>
<path fill-rule="evenodd" clip-rule="evenodd" d="M34.7066 107.868C34.8258 109.525 34.3386 111.076 33.4691 112.2C32.4519 111.277 31.7503 109.853 31.6311 108.195C31.5118 106.538 31.9995 104.987 32.8691 103.863C33.8857 104.785 34.5873 106.211 34.7066 107.868" fill="#FFBF1E"/>
<path fill-rule="evenodd" clip-rule="evenodd" d="M29.9149 111.182C31.3579 111.021 32.7086 111.675 33.687 112.84C32.8835 114.202 31.6428 115.142 30.1998 115.302C28.7563 115.463 27.4056 114.809 26.4277 113.644C27.2308 112.282 28.4719 111.342 29.9149 111.182" fill="#FFBF1E"/>
<path fill-rule="evenodd" clip-rule="evenodd" d="M40.7481 111.699C41.1934 113.357 40.8689 115.038 39.9935 116.369C38.5682 115.653 37.443 114.358 36.9977 112.701C36.5524 111.043 36.8769 109.362 37.7523 108.032C39.1776 108.747 40.3022 110.042 40.7481 111.699" fill="#FFBF1E"/>
<path fill-rule="evenodd" clip-rule="evenodd" d="M34.807 115.526C36.2502 115.078 37.7146 115.405 38.8725 116.284C38.2495 117.716 37.1224 118.847 35.6793 119.295C34.2362 119.742 32.7717 119.416 31.6133 118.537C32.2368 117.104 33.3639 115.974 34.807 115.526" fill="#FFBF1E"/>
<path fill-rule="evenodd" clip-rule="evenodd" d="M45.6426 114.043C46.2973 115.493 46.2731 117.089 45.7056 118.452C44.3296 118.025 43.1295 117.018 42.4743 115.568C41.8196 114.117 41.8438 112.52 42.4113 111.158C43.7873 111.585 44.9874 112.592 45.6426 114.043" fill="#FFBF1E"/>
<path fill-rule="evenodd" clip-rule="evenodd" d="M41.7436 118.945C43.1867 118.287 44.7761 118.311 46.1323 118.882C45.7074 120.264 44.7049 121.47 43.2618 122.128C41.8181 122.787 40.2292 122.762 38.873 122.192C39.2979 120.809 40.3005 119.603 41.7436 118.945" fill="#FFBF1E"/>
<path fill-rule="evenodd" clip-rule="evenodd" d="M50.355 38.9158C48.9117 39.48 47.3871 39.3111 46.1328 38.587C46.6603 37.1668 47.7271 35.9842 49.1704 35.4206C50.6132 34.8564 52.1383 35.0252 53.3921 35.7493C52.8646 37.1696 51.7978 38.3516 50.355 38.9158" fill="#FFBF1E"/>
<mask id="mask1" mask-type="alpha" maskUnits="userSpaceOnUse" x="17" y="36" width="51" height="95">
<path fill-rule="evenodd" clip-rule="evenodd" d="M17.4199 36.3042H67.0861V130.958H17.4199V36.3042Z" fill="white"/>
</mask>
<g mask="url(#mask1)">
<path fill-rule="evenodd" clip-rule="evenodd" d="M64.573 130.958C57.5439 123.564 51.0111 120.649 46.178 118.906C45.7129 118.739 45.2804 118.583 44.8874 118.437C28.4587 112.322 17.4199 96.1534 17.4199 78.2027C17.4199 58.003 31.3826 40.382 50.6196 36.3042L50.7415 36.9553C31.7953 40.9713 18.0447 58.3178 18.0447 78.2027C18.0447 95.8717 28.9144 111.788 45.0933 117.809C45.4853 117.955 45.9156 118.11 46.3787 118.278C51.2621 120.038 59.955 122.984 67.0862 130.486L64.573 130.958Z" fill="#FFBF1E"/>
</g>
<path fill-rule="evenodd" clip-rule="evenodd" d="M88.0022 43.9707C89.4452 43.3123 90.4477 42.1064 90.873 40.7236C89.517 40.1539 87.9277 40.1291 86.4841 40.7875C85.0411 41.4454 84.0392 42.6518 83.6138 44.0346C84.9699 44.6043 86.5592 44.6291 88.0022 43.9707" fill="#FFBF1E"/>
<path fill-rule="evenodd" clip-rule="evenodd" d="M88.2521 37.4102C88.9073 38.8603 90.1073 39.8678 91.4833 40.2947C92.0507 38.9319 92.0749 37.3347 91.4202 35.8846C90.7651 34.4344 89.5651 33.427 88.1891 33C87.6216 34.3628 87.597 35.96 88.2521 37.4102" fill="#FFBF1E"/>
<path fill-rule="evenodd" clip-rule="evenodd" d="M93.902 47.3895C95.3451 46.9415 96.4727 45.8114 97.0957 44.3793C95.9377 43.4996 94.4728 43.1729 93.0297 43.621C91.5865 44.0684 90.4595 45.1991 89.8364 46.6312C90.9944 47.5109 92.4588 47.837 93.902 47.3895" fill="#FFBF1E"/>
<path fill-rule="evenodd" clip-rule="evenodd" d="M94.1838 40.7957C94.6296 42.453 95.7542 43.7472 97.1794 44.4633C98.0548 43.133 98.3793 41.4513 97.934 39.794C97.4887 38.1368 96.3635 36.8425 94.9384 36.1265C94.063 37.4568 93.7379 39.1385 94.1838 40.7957" fill="#FFBF1E"/>
<path fill-rule="evenodd" clip-rule="evenodd" d="M98.7941 50.6919C100.237 50.5321 101.478 49.592 102.281 48.2297C101.303 47.0644 99.9522 46.411 98.5092 46.5714C97.0657 46.7306 95.8255 47.6707 95.022 49.0336C95.9999 50.1989 97.351 50.8517 98.7941 50.6919" fill="#FFBF1E"/>
<path fill-rule="evenodd" clip-rule="evenodd" d="M100.225 44.6269C100.344 46.2841 101.046 47.709 102.063 48.6318C102.932 47.5087 103.42 45.9575 103.3 44.2998C103.181 42.6425 102.48 41.2177 101.463 40.2949C100.593 41.4185 100.106 42.9697 100.225 44.6269" fill="#FFBF1E"/>
<path fill-rule="evenodd" clip-rule="evenodd" d="M102.656 55.9024C104.099 56.0622 105.449 55.4094 106.428 54.2443C105.624 52.8815 104.384 51.9414 102.941 51.7817C101.497 51.6219 100.146 52.2753 99.1685 53.4404C99.9715 54.8026 101.213 55.7426 102.656 55.9024" fill="#FFBF1E"/>
<path fill-rule="evenodd" clip-rule="evenodd" d="M105.409 49.5102C105.289 51.1674 105.777 52.7186 106.646 53.8422C107.663 52.9194 108.365 51.4946 108.484 49.8374C108.603 48.1796 108.116 46.6284 107.246 45.5054C106.23 46.4276 105.528 47.853 105.409 49.5102" fill="#FFBF1E"/>
<path fill-rule="evenodd" clip-rule="evenodd" d="M106.51 60.9369C107.953 61.3843 109.418 61.0583 110.576 60.1785C109.953 58.7463 108.826 57.6156 107.383 57.1681C105.94 56.7206 104.475 57.0467 103.317 57.9264C103.94 59.3586 105.067 60.4888 106.51 60.9369" fill="#FFBF1E"/>
<path fill-rule="evenodd" clip-rule="evenodd" d="M109.738 55.4257C109.293 57.083 109.618 58.7648 110.493 60.0947C111.918 59.3791 113.043 58.0848 113.489 56.4274C113.934 54.77 113.609 53.0882 112.734 51.7578C111.309 52.4739 110.184 53.7683 109.738 55.4257" fill="#FFBF1E"/>
<path fill-rule="evenodd" clip-rule="evenodd" d="M108.262 66.8971C109.705 67.5555 111.294 67.5307 112.65 66.9605C112.225 65.5777 111.223 64.3719 109.78 63.7135C108.337 63.0557 106.747 63.0799 105.391 63.6501C105.817 65.0329 106.819 66.2387 108.262 66.8971" fill="#FFBF1E"/>
<path fill-rule="evenodd" clip-rule="evenodd" d="M113.141 62.9793C112.486 64.4295 112.51 66.0267 113.077 67.3895C114.453 66.9625 115.654 65.955 116.308 64.5049C116.964 63.0542 116.939 61.4575 116.372 60.0947C114.996 60.5217 113.796 61.5292 113.141 62.9793" fill="#FFBF1E"/>
<path fill-rule="evenodd" clip-rule="evenodd" d="M110.636 73.6489C111.874 74.6237 113.362 74.8916 114.725 74.5304C114.56 72.9656 113.827 71.4837 112.59 70.5089C111.353 69.5341 109.865 69.2662 108.502 69.6274C108.666 71.1922 109.399 72.6741 110.636 73.6489" fill="#FFBF1E"/>
<path fill-rule="evenodd" clip-rule="evenodd" d="M114.718 69.5341C113.748 70.7776 113.481 72.2727 113.841 73.6423C115.398 73.4771 116.873 72.7404 117.843 71.4974C118.813 70.2543 119.08 68.7587 118.72 67.3896C117.163 67.5543 115.688 68.291 114.718 69.5341" fill="#FFBF1E"/>
<path fill-rule="evenodd" clip-rule="evenodd" d="M110.973 80.2501C112.001 81.4889 113.372 82.0617 114.717 81.969C114.793 80.347 114.319 78.694 113.291 77.4546C112.264 76.2157 110.892 75.6436 109.547 75.7356C109.471 77.3577 109.945 79.0107 110.973 80.2501" fill="#FFBF1E"/>
<mask id="mask2" mask-type="alpha" maskUnits="userSpaceOnUse" x="114" y="75" width="6" height="7">
<path fill-rule="evenodd" clip-rule="evenodd" d="M119.91 75.7827H114.453V81.2664H119.91V75.7827Z" fill="white"/>
</mask>
<g mask="url(#mask2)">
<path fill-rule="evenodd" clip-rule="evenodd" d="M115.962 77.299C114.88 78.3859 114.381 79.8355 114.462 81.258C115.877 81.3388 117.32 80.837 118.402 79.7506C119.483 78.6637 119.982 77.2141 119.902 75.7911C118.486 75.7103 117.044 76.2126 115.962 77.299" fill="#FFBF1E"/>
</g>
<path fill-rule="evenodd" clip-rule="evenodd" d="M109.533 86.0869C110.503 87.3298 111.977 88.0665 113.534 88.2316C113.894 86.8622 113.627 85.3667 112.657 84.1237C111.687 82.8808 110.213 82.1441 108.655 81.979C108.296 83.3485 108.562 84.844 109.533 86.0869" fill="#FFBF1E"/>
<path fill-rule="evenodd" clip-rule="evenodd" d="M115.822 85.0985C114.585 86.0733 113.852 87.5551 113.688 89.1198C115.051 89.4811 116.539 89.2126 117.776 88.2384C119.013 87.2636 119.746 85.7818 119.91 84.217C118.548 83.8552 117.059 84.1237 115.822 85.0985" fill="#FFBF1E"/>
<path fill-rule="evenodd" clip-rule="evenodd" d="M107.956 92.6418C108.61 94.0919 109.811 95.0987 111.187 95.5262C111.754 94.1635 111.778 92.5664 111.123 91.1158C110.468 89.6663 109.268 88.6589 107.892 88.2314C107.325 89.5947 107.3 91.1912 107.956 92.6418" fill="#FFBF1E"/>
<path fill-rule="evenodd" clip-rule="evenodd" d="M113.447 91.8502C112.004 92.5086 111.002 93.7146 110.577 95.0974C111.933 95.6676 113.522 95.6919 114.965 95.034C116.408 94.3756 117.411 93.1697 117.836 91.7869C116.48 91.2167 114.89 91.1924 113.447 91.8502" fill="#FFBF1E"/>
<path fill-rule="evenodd" clip-rule="evenodd" d="M104.553 98.1109C104.999 99.7683 106.123 101.063 107.548 101.779C108.424 100.449 108.749 98.7665 108.303 97.1092C107.858 95.4518 106.732 94.1574 105.307 93.4419C104.432 94.7717 104.107 96.453 104.553 98.1109" fill="#FFBF1E"/>
<path fill-rule="evenodd" clip-rule="evenodd" d="M110.659 98.8525C109.216 99.3006 108.088 100.431 107.465 101.863C108.623 102.743 110.088 103.069 111.531 102.622C112.974 102.174 114.102 101.043 114.725 99.6108C113.567 98.7317 112.103 98.4051 110.659 98.8525" fill="#FFBF1E"/>
<path fill-rule="evenodd" clip-rule="evenodd" d="M101.262 104.027C101.381 105.684 102.083 107.109 103.1 108.032C103.97 106.908 104.457 105.356 104.338 103.699C104.219 102.042 103.517 100.618 102.5 99.6948C101.63 100.818 101.143 102.369 101.262 104.027" fill="#FFBF1E"/>
<path fill-rule="evenodd" clip-rule="evenodd" d="M106.804 104.929C105.361 105.089 104.12 106.029 103.317 107.391C104.295 108.557 105.646 109.21 107.089 109.05C108.532 108.89 109.773 107.95 110.576 106.588C109.598 105.422 108.247 104.769 106.804 104.929" fill="#FFBF1E"/>
<path fill-rule="evenodd" clip-rule="evenodd" d="M97.1137 107.868C96.9945 109.525 97.4817 111.076 98.3513 112.2C99.3684 111.277 100.07 109.853 100.189 108.195C100.308 106.538 99.8208 104.987 98.9512 103.863C97.9346 104.785 97.233 106.211 97.1137 107.868" fill="#FFBF1E"/>
<path fill-rule="evenodd" clip-rule="evenodd" d="M101.905 111.182C100.462 111.021 99.1117 111.675 98.1333 112.84C98.9368 114.202 100.178 115.142 101.621 115.302C103.064 115.463 104.415 114.809 105.393 113.644C104.59 112.282 103.348 111.342 101.905 111.182" fill="#FFBF1E"/>
<path fill-rule="evenodd" clip-rule="evenodd" d="M91.0722 111.699C90.6269 113.357 90.9514 115.038 91.8268 116.369C93.2521 115.653 94.3773 114.358 94.8226 112.701C95.2679 111.043 94.9434 109.362 94.068 108.032C92.6428 108.747 91.5181 110.042 91.0722 111.699" fill="#FFBF1E"/>
<path fill-rule="evenodd" clip-rule="evenodd" d="M97.0133 115.526C95.5701 115.078 94.1057 115.405 92.9478 116.284C93.5708 117.716 94.6979 118.847 96.141 119.295C97.5842 119.742 99.0486 119.416 100.207 118.537C99.5835 117.104 98.4564 115.974 97.0133 115.526" fill="#FFBF1E"/>
<path fill-rule="evenodd" clip-rule="evenodd" d="M86.1777 114.043C85.5231 115.493 85.5472 117.089 86.1147 118.452C87.4907 118.025 88.6908 117.018 89.346 115.568C90.0007 114.117 89.9765 112.52 89.4091 111.158C88.033 111.585 86.8329 112.592 86.1777 114.043" fill="#FFBF1E"/>
<path fill-rule="evenodd" clip-rule="evenodd" d="M90.0767 118.945C88.6336 118.287 87.0442 118.311 85.688 118.882C86.1129 120.264 87.1155 121.47 88.5586 122.128C90.0022 122.787 91.5911 122.762 92.9473 122.192C92.5224 120.809 91.5198 119.603 90.0767 118.945" fill="#FFBF1E"/>
<path fill-rule="evenodd" clip-rule="evenodd" d="M81.4653 38.9158C82.9087 39.48 84.4332 39.3111 85.6875 38.587C85.1601 37.1668 84.0932 35.9842 82.6499 35.4206C81.2071 34.8564 79.682 35.0252 78.4282 35.7493C78.9557 37.1696 80.0225 38.3516 81.4653 38.9158" fill="#FFBF1E"/>
<mask id="mask3" mask-type="alpha" maskUnits="userSpaceOnUse" x="64" y="36" width="51" height="95">
<path fill-rule="evenodd" clip-rule="evenodd" d="M114.4 36.3042H64.7342V130.958H114.4V36.3042Z" fill="white"/>
</mask>
<g mask="url(#mask3)">
<path fill-rule="evenodd" clip-rule="evenodd" d="M67.2474 130.958C74.2764 123.564 80.8092 120.649 85.6423 118.906C86.1074 118.739 86.5399 118.583 86.9329 118.437C103.362 112.322 114.4 96.1534 114.4 78.2027C114.4 58.003 100.438 40.382 81.2007 36.3042L81.0788 36.9553C100.025 40.9713 113.776 58.3178 113.776 78.2027C113.776 95.8717 102.906 111.788 86.7271 117.809C86.3351 117.955 85.9047 118.11 85.4417 118.278C80.5582 120.038 71.8653 122.984 64.7341 130.486L67.2474 130.958Z" fill="#FFBF1E"/>
</g>
</svg>
