<svg width="152" height="137" viewBox="0 0 152 137" fill="none" xmlns="http://www.w3.org/2000/svg">
<path fill-rule="evenodd" clip-rule="evenodd" d="M135.35 99.7174C135.399 102.635 132.139 106.608 127.514 110.662C127.202 110.935 126.883 111.209 126.558 111.485C121.42 115.829 114.871 120.193 109.296 123.377C103.871 126.472 96.3105 129.968 89.1585 130.898C82.4005 131.773 76.0025 130.355 72.1145 124.144C71.6645 123.43 71.2565 122.675 70.8825 121.891C64.5535 108.626 68.2805 86.2094 68.2805 86.2094L84.3385 57.6814C95.7245 67.9204 92.8035 94.4344 96.9665 97.4914C97.0375 97.5434 97.1095 97.5924 97.1845 97.6374C97.7055 97.9604 98.3225 98.1354 99.0185 98.1914C103.587 98.5654 111.635 93.8104 119.727 91.6824C120.163 91.5694 120.6 91.4624 121.036 91.3624C121.449 91.2704 121.859 91.1864 122.27 91.1104C129.49 89.7754 135.246 93.4764 135.35 99.7174Z" fill="#FEFEFE"/>
<path fill-rule="evenodd" clip-rule="evenodd" d="M127.515 110.662C127.203 110.935 126.884 111.209 126.559 111.485C123.16 108.321 120.97 103.987 120.109 98.6222C119.704 96.1042 119.645 93.7072 119.728 91.6832C120.164 91.5692 120.601 91.4622 121.036 91.3622C120.928 93.4102 120.964 95.8822 121.381 98.4562C122.217 103.628 124.272 107.709 127.515 110.662Z" fill="#ABC0FE"/>
<path fill-rule="evenodd" clip-rule="evenodd" d="M99.0185 98.191C96.0665 100.169 92.0215 103.288 90.1395 106.585C90.0225 106.792 89.8055 106.908 89.5815 106.908C89.4745 106.908 89.3665 106.88 89.2655 106.824C88.9565 106.647 88.8505 106.255 89.0255 105.948C90.4555 103.442 92.9745 101.086 95.4085 99.198C92.6515 99.734 90.0335 100.71 90.0005 100.722C89.9255 100.75 89.8485 100.763 89.7745 100.763C89.5155 100.763 89.2695 100.605 89.1725 100.348C89.0485 100.017 89.2175 99.647 89.5495 99.521C89.7245 99.457 93.7095 97.973 97.1845 97.637C97.7065 97.96 98.3225 98.135 99.0185 98.191Z" fill="#ABC0FE"/>
<path fill-rule="evenodd" clip-rule="evenodd" d="M89.1572 130.897C82.3992 131.772 76.0032 130.354 72.1132 124.144C71.6652 123.43 71.2562 122.675 70.8822 121.89C73.2182 121.103 77.9472 120.358 83.9152 123.887C87.7822 126.173 88.9952 128.752 89.1572 130.897Z" fill="#D51247"/>
<path fill-rule="evenodd" clip-rule="evenodd" d="M147.921 78.644C147.921 78.644 142.12 98.601 131.589 101.016L126.709 94.884C126.709 94.884 136.856 79.669 147.921 78.644Z" fill="#ACC1FF"/>
<path fill-rule="evenodd" clip-rule="evenodd" d="M126.45 99.8454L127.26 100.308C127.683 100.55 128.213 100.495 128.576 100.17C131.951 97.1544 148.331 82.4914 151.123 79.5864C151.383 79.3174 151.488 78.9364 151.411 78.5714L148.864 66.5204C148.803 66.2294 148.629 65.9744 148.381 65.8104L147.26 65.0684L149.87 78.0564L126.45 99.8454Z" fill="#121032"/>
<path fill-rule="evenodd" clip-rule="evenodd" d="M126.379 99.6696L123.481 87.7466C123.366 87.2796 123.681 86.5236 124.182 86.0576L146.38 65.3786C146.881 64.9126 147.378 64.9126 147.491 65.3786L150.391 77.3026C150.504 77.7686 150.191 78.5256 149.69 78.9916L127.491 99.6706C126.99 100.137 126.492 100.137 126.379 99.6696Z" fill="#121032"/>
<path fill-rule="evenodd" clip-rule="evenodd" d="M130.349 93.9776L128.241 85.3076C128.127 84.8406 128.441 84.0836 128.942 83.6176L145.403 68.2846C145.904 67.8176 146.401 67.8176 146.515 68.2846L148.622 76.9546C148.736 77.4216 148.422 78.1776 147.921 78.6446L131.46 93.9776C130.96 94.4446 130.462 94.4446 130.349 93.9776Z" fill="#2D4A94"/>
<path fill-rule="evenodd" clip-rule="evenodd" d="M127.39 93.0162C126.618 93.7362 125.849 93.7352 125.674 93.0152C125.498 92.2952 125.983 91.1282 126.756 90.4082C127.529 89.6882 128.297 89.6882 128.472 90.4092C128.647 91.1292 128.162 92.2962 127.39 93.0162Z" fill="#2D4A94"/>
<path fill-rule="evenodd" clip-rule="evenodd" d="M128.213 82.6431C128.213 82.6431 126.211 78.0761 129.157 75.8261C132.104 73.5751 138.202 72.9971 138.202 72.9971C140.574 74.8651 136.569 77.0191 131.521 79.2201L128.213 82.6431Z" fill="#ACC1FF"/>
<path fill-rule="evenodd" clip-rule="evenodd" d="M138.019 91.69C138.019 91.69 141.105 93.086 142.12 91.339C143.134 89.592 141.299 85.189 140.549 83.688C139.8 82.186 139 86 139.372 87.715C139.59 88.728 139.512 90.34 139.512 90.34L138.019 91.69Z" fill="#ACC1FF"/>
<path fill-rule="evenodd" clip-rule="evenodd" d="M142.175 87.3663C142.175 87.3663 145.425 88.7093 146.629 86.6363C147.833 84.5623 145.654 79.3363 144.765 77.5533C143.876 75.7723 142.783 80.3343 143.366 82.3343C143.949 84.3343 143.264 85.2253 143.264 85.2253L142.175 87.3663Z" fill="#ACC1FF"/>
<path fill-rule="evenodd" clip-rule="evenodd" d="M144.437 85.2237C144.437 85.2237 147.308 86.4097 148.372 84.5777C149.435 82.7457 147.511 78.1307 146.725 76.5557C145.94 74.9817 144.975 79.0117 145.49 80.7787C146.004 82.5457 145.399 83.3317 145.399 83.3317L144.437 85.2237Z" fill="#ACC1FF"/>
<path fill-rule="evenodd" clip-rule="evenodd" d="M139.931 90.5411C139.931 90.5411 143.18 91.8841 144.384 89.8101C145.588 87.7371 143.41 82.5111 142.521 80.7291C141.631 78.9461 140.539 83.5091 141.122 85.5091C141.705 87.5091 141.02 88.4001 141.02 88.4001L139.931 90.5411Z" fill="#ACC1FF"/>
<path fill-rule="evenodd" clip-rule="evenodd" d="M71.6054 51.8023C71.6054 51.8023 78.1574 38.4873 64.2414 31.0993C54.5054 25.9313 35.7104 24.9853 29.9734 36.8163C24.6394 47.8193 36.6374 57.0753 36.6374 57.0753C36.6374 57.0753 62.3334 62.5693 71.6054 51.8023Z" fill="#5C84CD"/>
<path fill-rule="evenodd" clip-rule="evenodd" d="M48.9529 36.3892C48.9529 36.3892 36.9229 38.0282 41.2819 44.4422C43.5899 47.8372 56.6239 49.6902 56.6239 49.6902C56.6239 49.6902 59.1779 37.9312 48.9529 36.3892Z" fill="#121032"/>
<path fill-rule="evenodd" clip-rule="evenodd" d="M99.329 157.686C99.329 157.686 54.77 172.65 35.568 165.18C35.568 165.18 29.55 163.307 27.134 151.516C27.055 151.13 26.98 150.735 26.909 150.327C25.891 144.494 25.735 136.423 27.429 125.288C29.46 111.93 26.65 105.107 25.447 91.8071C25.404 91.3381 25.361 90.8621 25.321 90.3761C25.192 88.9371 25.073 87.4241 24.953 85.8141C23.66 68.2541 18.071 60.7481 26.819 55.5331C35.568 50.3201 47.043 46.3221 47.043 46.3221C47.043 46.3221 56.808 49.4201 63.685 46.3221C63.685 46.3221 74.153 51.4511 82.201 54.3851C90.247 57.3181 87.603 78.5831 90.14 90.7931C92.678 103.006 96.975 112.719 100.857 132.977C104.407 151.503 99.329 157.686 99.329 157.686Z" fill="#FEFEFE"/>
<path fill-rule="evenodd" clip-rule="evenodd" d="M100.374 131.167C100.041 131.167 99.76 130.909 99.734 130.572C99.361 125.463 95.478 112.497 93.156 104.75C92.705 103.244 92.314 101.943 92.034 100.974C90.351 95.1686 88.438 81.5266 88.358 80.9486C88.309 80.5976 88.554 80.2736 88.905 80.2256C89.257 80.1766 89.58 80.4206 89.629 80.7716C89.648 80.9126 91.607 94.9006 93.266 100.616C93.545 101.58 93.935 102.878 94.385 104.382C96.721 112.179 100.631 125.229 101.014 130.479C101.04 130.832 100.774 131.139 100.421 131.165C100.405 131.166 100.39 131.167 100.374 131.167Z" fill="#ABC0FE"/>
<path fill-rule="evenodd" clip-rule="evenodd" d="M60.165 65.0435C67.586 65.0435 69.909 58.3935 69.933 58.3235C70.019 58.0685 69.882 57.7935 69.627 57.7075C69.372 57.6215 69.098 57.7595 69.012 58.0125C68.922 58.2775 66.72 64.5035 59.42 64.0475C51.835 63.5735 42.09 58.5625 41.992 58.5125C41.753 58.3885 41.46 58.4815 41.337 58.7195C41.214 58.9585 41.307 59.2515 41.545 59.3755C41.95 59.5855 51.567 64.5315 59.359 65.0185C59.634 65.0355 59.903 65.0435 60.165 65.0435Z" fill="#ABC0FE"/>
<path fill-rule="evenodd" clip-rule="evenodd" d="M86.8495 122.688C86.8495 122.688 91.9965 138.443 90.1105 147.192C90.1105 147.192 73.1705 157.288 47.9205 152.215C47.9205 152.215 46.5075 136.637 45.5145 126.623C45.5145 126.623 71.2965 122.443 86.8495 122.688Z" fill="#5C84CD"/>
<path fill-rule="evenodd" clip-rule="evenodd" d="M57.2646 134.8C57.4576 134.8 57.6186 134.648 57.6276 134.452C59.1826 100.802 49.7706 50.3279 49.6756 49.8219C49.6376 49.6239 49.4466 49.4949 49.2496 49.5309C49.0516 49.5689 48.9216 49.7589 48.9586 49.9569C49.0536 50.4619 58.4506 100.854 56.9006 134.419C56.8906 134.62 57.0456 134.79 57.2466 134.8C57.2526 134.8 57.2586 134.8 57.2646 134.8Z" fill="white"/>
<path fill-rule="evenodd" clip-rule="evenodd" d="M79.747 132.532C79.751 132.532 79.755 132.532 79.759 132.532C79.96 132.526 80.118 132.358 80.112 132.157C78.889 91.5197 65.091 50.0587 64.951 49.6447C64.887 49.4537 64.681 49.3507 64.489 49.4147C64.299 49.4797 64.196 49.6857 64.26 49.8767C64.398 50.2897 78.164 91.6527 79.384 132.178C79.39 132.376 79.551 132.532 79.747 132.532Z" fill="white"/>
<path fill-rule="evenodd" clip-rule="evenodd" d="M70.4684 94.8928C57.2634 117.998 27.4284 125.287 27.4284 125.287C27.4284 125.287 25.9344 121.49 27.5104 115.974C27.5104 115.974 55.1134 110.842 66.6724 87.7548C76.0764 68.9748 71.6054 50.2228 71.6054 50.2228C71.6054 50.2228 75.6654 50.2228 77.7284 52.2828C77.7284 52.2828 80.3504 77.6018 70.4684 94.8928Z" fill="#121032"/>
<path fill-rule="evenodd" clip-rule="evenodd" d="M54.7519 115.788C54.9239 115.779 55.0959 115.767 55.2679 115.754C56.1199 115.685 56.9709 115.565 57.8059 115.393C58.2589 115.304 58.7029 115.199 59.1479 115.079C59.8189 114.902 60.4829 114.691 61.1379 114.45C61.6089 114.282 62.0749 114.092 62.5359 113.891C68.9749 111.079 74.3529 105.461 76.9119 98.9098C77.0969 98.4368 77.2689 97.9598 77.4209 97.4748C77.6999 96.6148 77.9259 95.7418 78.0989 94.8568C78.1899 94.4138 78.2629 93.9698 78.3219 93.5198C78.4309 92.7228 78.4949 91.9208 78.5129 91.1158C78.5149 90.9428 78.5179 90.7708 78.5169 90.5988C78.4809 82.3828 66.6429 77.4738 66.6429 77.4738L63.4709 83.0228L62.7439 84.2938L57.0869 94.1878L47.7219 100.291L46.5109 101.078L40.9579 104.698C40.9579 104.698 46.5479 116.23 54.7519 115.788Z" fill="#121032"/>
<path fill-rule="evenodd" clip-rule="evenodd" d="M57.8056 115.393C58.2586 115.304 58.7026 115.199 59.1476 115.079C56.8776 108.899 51.6606 103.613 47.7216 100.291L46.5106 101.078C50.3216 104.264 55.5446 109.445 57.8056 115.393Z" fill="#2D4A94"/>
<path fill-rule="evenodd" clip-rule="evenodd" d="M67.579 89.3419C71.192 92.5389 74.736 94.3879 78.099 94.8569C78.189 94.4139 78.263 93.9689 78.322 93.5199C72.272 92.6839 66.691 86.9949 63.471 83.0229L62.744 84.2939C64.045 85.8709 65.687 87.6689 67.579 89.3419Z" fill="#2D4A94"/>
<path fill-rule="evenodd" clip-rule="evenodd" d="M66.6406 77.4731C66.6406 77.4731 76.0986 82.4291 70.6616 90.6871C65.2246 98.9451 55.8216 109.075 50.0536 109.671C44.2856 110.266 40.9026 104.755 40.9026 104.755L66.6406 77.4731Z" fill="#2D4A94"/>
<path fill-rule="evenodd" clip-rule="evenodd" d="M61.1376 114.45C61.6096 114.282 62.0746 114.092 62.5356 113.891C62.6526 110.977 63.4966 107.286 66.3696 104.021C69.4406 100.526 73.6196 99.2919 76.9116 98.9089C77.0966 98.4369 77.2686 97.9599 77.4206 97.4749C73.8056 97.7829 68.9446 99.0419 65.3546 103.13C61.9896 106.957 61.1576 111.229 61.1376 114.45Z" fill="#2D4A94"/>
<mask id="mask0" mask-type="alpha" maskUnits="userSpaceOnUse" x="0" y="57" width="48" height="95">
<path fill-rule="evenodd" clip-rule="evenodd" d="M0 57.1903H47.5448V151.605H0V57.1903Z" fill="white"/>
</mask>
<g mask="url(#mask0)">
<path fill-rule="evenodd" clip-rule="evenodd" d="M47.5448 150.878C47.5448 150.878 27.0868 154.367 13.0098 146.055C5.01778 141.334 -0.917216 132.81 0.116784 117.683C0.132784 117.454 0.148784 117.223 0.168784 116.992C3.48378 76.1565 24.5598 57.6815 24.5598 57.6815C32.4528 55.6315 41.2298 57.7375 29.0558 109.716C25.4828 130.804 45.8198 132.531 45.8198 132.531L47.5448 150.878Z" fill="#FEFEFE"/>
</g>
<path fill-rule="evenodd" clip-rule="evenodd" d="M28.6415 114.535C28.5755 114.535 28.5085 114.525 28.4435 114.503C28.1065 114.394 27.9215 114.032 28.0315 113.695C28.1135 113.443 36.2325 88.2968 36.3725 75.0098C36.3765 74.6558 36.6605 74.3798 37.0205 74.3748C37.3745 74.3788 37.6595 74.6688 37.6555 75.0228C37.5135 88.5058 29.3335 113.837 29.2505 114.092C29.1625 114.363 28.9125 114.535 28.6415 114.535Z" fill="#ABC0FE"/>
<path fill-rule="evenodd" clip-rule="evenodd" d="M35.9745 85.5806C35.8605 85.5806 35.7445 85.5496 35.6385 85.4846C35.3365 85.2986 35.2435 84.9036 35.4295 84.6016L39.1765 78.5276C39.3625 78.2266 39.7565 78.1326 40.0595 78.3186C40.3605 78.5046 40.4535 78.8996 40.2685 79.2016L36.5215 85.2756C36.4005 85.4726 36.1895 85.5806 35.9745 85.5806Z" fill="#ABC0FE"/>
<path fill-rule="evenodd" clip-rule="evenodd" d="M43.2079 152.247C42.9589 152.247 42.7219 152.101 42.6169 151.857C40.2659 146.345 40.8019 130.78 40.8259 130.12C40.8389 129.767 41.1379 129.49 41.4899 129.502C41.8439 129.516 42.1199 129.813 42.1069 130.167C42.1019 130.326 41.5579 146.104 43.7979 151.354C43.9369 151.68 43.7849 152.057 43.4589 152.196C43.3769 152.23 43.2919 152.247 43.2079 152.247Z" fill="#ABC0FE"/>
<path fill-rule="evenodd" clip-rule="evenodd" d="M41.7597 130.789C41.4967 130.789 41.2287 130.781 40.9507 130.763C38.2027 130.587 34.2087 129.382 30.7877 124.647C30.5807 124.36 30.6457 123.959 30.9327 123.751C31.2197 123.544 31.6207 123.609 31.8277 123.896C37.7927 132.155 45.5857 128.841 45.6637 128.807C45.9877 128.664 46.3657 128.81 46.5097 129.135C46.6527 129.459 46.5057 129.837 46.1817 129.98C46.0997 130.017 44.3177 130.789 41.7597 130.789Z" fill="#ABC0FE"/>
<mask id="mask1" mask-type="alpha" maskUnits="userSpaceOnUse" x="0" y="117" width="14" height="30">
<path fill-rule="evenodd" clip-rule="evenodd" d="M0 117.683H13.238V146.055H0V117.683Z" fill="white"/>
</mask>
<g mask="url(#mask1)">
<path fill-rule="evenodd" clip-rule="evenodd" d="M13.0097 146.055C5.01766 141.334 -0.917338 132.81 0.116662 117.683C5.74166 123.905 14.7907 135.764 13.0097 146.055Z" fill="#5C84CD"/>
</g>
<path fill-rule="evenodd" clip-rule="evenodd" d="M62.7431 44.2515V48.7095C62.2221 49.1305 61.6941 49.4975 61.1651 49.8145C53.4251 54.4625 45.0751 48.7095 45.0751 48.7095V33.2535L60.6361 42.9395L62.7431 44.2515Z" fill="#ADC3FF"/>
<path fill-rule="evenodd" clip-rule="evenodd" d="M62.7431 44.123V48.709C62.2221 49.13 61.6941 49.497 61.1651 49.814C54.5741 47.206 49.7771 40.29 49.7771 40.29L60.6361 42.94L62.7431 44.123Z" fill="#121032"/>
<path fill-rule="evenodd" clip-rule="evenodd" d="M64.9892 7.28821C64.9892 7.28821 73.6272 9.46721 70.4442 16.5212C70.4442 16.5212 64.7402 10.2332 64.9892 7.28821Z" fill="#121032"/>
<path fill-rule="evenodd" clip-rule="evenodd" d="M67.6807 24.4975C67.6807 24.4975 70.2127 21.5065 71.6437 24.4975C73.0747 27.4885 71.9737 33.5425 68.1207 32.5515L67.6807 24.4975Z" fill="#5C84CD"/>
<path fill-rule="evenodd" clip-rule="evenodd" d="M71.0136 34.9859C71.0136 34.9859 71.0276 44.2019 61.4416 44.1809C51.9146 44.1629 45.4226 36.6819 45.0846 36.3359C45.0786 36.3299 45.0746 36.3269 45.0746 36.3269L44.9706 34.3899L44.4286 24.3369L44.1386 18.9629C44.1386 18.9629 42.9216 9.28788 52.1176 7.52388C58.8346 6.23388 65.1346 7.34888 68.3146 10.8539C69.4846 12.1469 70.2316 13.7659 70.4186 15.7079L70.7166 25.3599L70.7886 27.7249L71.0136 34.9859Z" fill="#ADC3FF"/>
<path fill-rule="evenodd" clip-rule="evenodd" d="M57.6542 29.0146C57.6542 29.0146 63.4002 31.4076 67.8322 30.7076C67.8322 30.7076 66.6342 36.2906 61.4962 34.8436C58.0962 33.8866 57.6542 29.0146 57.6542 29.0146Z" fill="white"/>
<path fill-rule="evenodd" clip-rule="evenodd" d="M40.9716 19.8155C41.1706 21.8215 41.8816 22.9075 42.3556 23.6475C45.0756 24.2375 46.3106 25.7225 46.8266 27.1115L49.2196 27.4275C49.2196 27.4275 49.5346 23.5215 48.7166 20.5605C48.0856 18.2815 50.2226 17.5695 50.7186 15.5755C50.8656 14.9825 50.9796 14.7225 50.7186 13.8265C50.7186 13.8265 54.1346 11.2015 58.2136 12.4605C62.2936 13.7225 66.0266 14.1575 67.8936 11.6795C68.0786 11.4335 68.2436 11.1765 68.3136 10.8545C65.1356 7.34952 58.8346 6.23252 52.1176 7.52352C42.9216 9.28752 40.8346 13.7475 40.8346 13.7475C40.1256 16.0165 40.7776 17.8615 40.9716 19.8155Z" fill="#121032"/>
<path fill-rule="evenodd" clip-rule="evenodd" d="M48.6337 19.376C46.1457 19.946 43.6847 20.613 41.3357 21.623C41.6387 22.578 42.0467 23.228 42.3557 23.647C45.0747 24.238 46.3107 25.722 46.8267 27.112L49.2197 27.427C49.2197 27.427 49.5347 23.522 48.7167 20.56C48.5927 20.112 48.5767 19.725 48.6337 19.376Z" fill="#5C84CD"/>
<mask id="mask2" mask-type="alpha" maskUnits="userSpaceOnUse" x="39" y="0" width="30" height="14">
<path fill-rule="evenodd" clip-rule="evenodd" d="M39.3555 0H68.8754V13.5313H39.3555V0Z" fill="white"/>
</mask>
<g mask="url(#mask2)">
<path fill-rule="evenodd" clip-rule="evenodd" d="M39.3984 13.5313C39.3984 13.5313 54.3294 7.62632 64.9424 7.26732C65.2194 7.25832 65.4944 7.25232 65.7654 7.25232C66.8734 7.24432 67.9184 7.30932 68.8754 7.45832C68.8754 7.45832 66.8494 2.03032 59.5914 0.43632C58.7644 0.25432 57.8704 0.12232 56.9024 0.0523204C55.6284 -0.0366796 54.2284 -0.0166796 52.6914 0.14532C52.6404 0.14932 52.5904 0.15432 52.5394 0.16032C52.1374 0.20432 51.7474 0.25732 51.3704 0.32132C50.2024 0.51032 49.1434 0.78032 48.1824 1.11732C47.9304 1.20332 47.6864 1.29632 47.4484 1.39132C45.6684 2.11032 44.2524 3.05632 43.1294 4.10832C42.7614 4.45232 42.4244 4.80732 42.1174 5.16932C38.7944 9.07332 39.3984 13.5313 39.3984 13.5313Z" fill="#ADC3FF"/>
</g>
<path fill-rule="evenodd" clip-rule="evenodd" d="M56.9023 0.0522461C59.3073 0.920246 62.9293 2.90225 64.9423 7.26725C65.0543 7.50825 65.1613 7.75725 65.2623 8.01325L65.9673 7.73525C65.9023 7.57225 65.8353 7.40925 65.7653 7.25225C64.2133 3.67625 61.6593 1.59925 59.5913 0.436246C58.7643 0.254246 57.8703 0.122246 56.9023 0.0522461Z" fill="#121032"/>
<path fill-rule="evenodd" clip-rule="evenodd" d="M51.37 0.320897C55.075 1.9439 56.869 6.2069 56.891 6.2569L57.591 5.9689C57.511 5.7719 55.962 2.0989 52.691 0.144897C52.641 0.149897 52.591 0.153897 52.539 0.159897C52.138 0.203897 51.747 0.257897 51.37 0.320897Z" fill="#121032"/>
<path fill-rule="evenodd" clip-rule="evenodd" d="M47.4482 1.39168C47.7102 3.27668 48.6342 7.17168 51.8402 9.16368L52.2402 8.52168C49.2302 6.65168 48.4032 2.80068 48.1822 1.11768C47.9302 1.20368 47.6862 1.29568 47.4482 1.39168Z" fill="#121032"/>
<path fill-rule="evenodd" clip-rule="evenodd" d="M42.9599 12.1807L43.6149 11.7987C42.2269 9.42667 42.5969 6.28267 43.1299 4.10767C42.7619 4.45167 42.4249 4.80667 42.1169 5.16967C41.7379 7.33067 41.6879 10.0097 42.9599 12.1807Z" fill="#121032"/>
<path fill-rule="evenodd" clip-rule="evenodd" d="M69.9394 10.3336C69.9394 10.3336 54.5784 7.3586 40.7544 18.2746C40.7544 18.2746 38.5084 16.4366 39.3984 13.3496C39.3984 13.3496 52.6154 1.4746 68.8754 6.5806C68.8754 6.5806 70.5954 7.9966 69.9394 10.3336Z" fill="#121032"/>
<path fill-rule="evenodd" clip-rule="evenodd" d="M58.2138 26.5454C58.2138 27.2164 56.8308 27.7604 55.1268 27.7604C53.4218 27.7604 52.0398 27.2164 52.0398 26.5454C52.0398 25.8744 53.4218 25.3304 55.1268 25.3304C56.8308 25.3304 58.2138 25.8744 58.2138 26.5454Z" fill="#EC6905"/>
<path fill-rule="evenodd" clip-rule="evenodd" d="M70.789 27.7252C70.552 27.7482 70.302 27.7612 70.046 27.7612C68.343 27.7612 66.96 27.2162 66.96 26.5452C66.96 25.8742 68.343 25.3302 70.046 25.3302C70.276 25.3302 70.501 25.3402 70.717 25.3602L70.789 27.7252Z" fill="#EC6905"/>
<path fill-rule="evenodd" clip-rule="evenodd" d="M58.1132 22.8526C58.1132 23.7736 57.6952 24.5206 57.1792 24.5206C56.6642 24.5206 56.2462 23.7736 56.2462 22.8526C56.2462 21.9306 56.6642 21.1846 57.1792 21.1846C57.6952 21.1846 58.1132 21.9306 58.1132 22.8526Z" fill="#37202B"/>
<path fill-rule="evenodd" clip-rule="evenodd" d="M67.2304 22.8526C67.2304 23.7736 66.8124 24.5206 66.2964 24.5206C65.7814 24.5206 65.3634 23.7736 65.3634 22.8526C65.3634 21.9306 65.7814 21.1846 66.2964 21.1846C66.8124 21.1846 67.2304 21.9306 67.2304 22.8526Z" fill="#37202B"/>
<path fill-rule="evenodd" clip-rule="evenodd" d="M53.4989 18.6231C53.7099 17.6501 54.5199 15.8231 57.6319 15.6851C58.0119 15.6681 58.3529 15.9181 58.4539 16.2851C58.5799 16.7451 58.2879 17.2201 57.8179 17.3041C56.9929 17.4511 55.7959 17.9011 55.1109 19.2481C54.8979 19.6681 54.3589 19.8031 53.9589 19.5551L53.8649 19.4971C53.5689 19.3131 53.4259 18.9631 53.4989 18.6231Z" fill="#37202B"/>
<path fill-rule="evenodd" clip-rule="evenodd" d="M69.4423 18.6231C69.2313 17.6501 68.4213 15.8231 65.3093 15.6851C64.9293 15.6681 64.5883 15.9181 64.4873 16.2851C64.3613 16.7451 64.6533 17.2201 65.1233 17.3041C65.9493 17.4511 67.1453 17.9011 67.8303 19.2481C68.0443 19.6681 68.5823 19.8031 68.9823 19.5551L69.0763 19.4971C69.3723 19.3131 69.5153 18.9631 69.4423 18.6231Z" fill="#37202B"/>
<path fill-rule="evenodd" clip-rule="evenodd" d="M48.0849 32.5963C48.0419 32.6983 46.8279 35.5123 45.0839 36.3363C45.0789 36.3303 45.0749 36.3263 45.0749 36.3263L44.9709 34.3893C44.9709 34.3893 46.4839 34.1313 48.0849 32.5963Z" fill="#37202B"/>
<path fill-rule="evenodd" clip-rule="evenodd" d="M46.3974 26.1959C46.3974 26.1959 42.7124 21.2459 40.0124 25.1359C37.7884 28.3409 41.9944 36.6939 46.3974 33.8319V26.1959Z" fill="#ADC3FF"/>
<path fill-rule="evenodd" clip-rule="evenodd" d="M42.6641 32.2598C42.6641 32.7288 43.0451 33.1088 43.5141 33.1088C43.9821 33.1088 44.3621 32.7288 44.3621 32.2598C44.3621 31.7908 43.9821 31.4108 43.5141 31.4108C43.0451 31.4108 42.6641 31.7908 42.6641 32.2598Z" fill="white"/>
<path fill-rule="evenodd" clip-rule="evenodd" d="M45.8935 32.3409C45.9075 32.3409 45.9205 32.3409 45.9355 32.3389C46.1435 32.3159 46.2935 32.1289 46.2705 31.9209C45.8105 27.7119 42.2675 26.2539 42.1175 26.1939C41.9225 26.1159 41.7025 26.2109 41.6245 26.4049C41.5475 26.5999 41.6415 26.8199 41.8355 26.8979C41.9695 26.9509 45.1075 28.2579 45.5165 32.0039C45.5385 32.1969 45.7025 32.3409 45.8935 32.3409Z" fill="#37202B"/>
<path fill-rule="evenodd" clip-rule="evenodd" d="M42.3554 30.0425C42.4394 30.0425 42.5234 30.0155 42.5934 29.9585C42.9234 29.6905 43.9234 29.0345 44.5774 29.2015C44.7804 29.2525 44.9864 29.1305 45.0394 28.9285C45.0904 28.7255 44.9674 28.5185 44.7654 28.4665C43.6264 28.1745 42.2674 29.2465 42.1164 29.3695C41.9534 29.5015 41.9284 29.7405 42.0604 29.9025C42.1354 29.9955 42.2454 30.0425 42.3554 30.0425Z" fill="#37202B"/>
<path fill-rule="evenodd" clip-rule="evenodd" d="M62.5429 27.4918C64.7899 27.4918 65.5479 25.9228 65.5789 25.8558C65.6269 25.7518 65.6259 25.6328 65.5759 25.5298C64.0359 22.3548 62.4759 19.0928 62.4599 19.0598C62.3689 18.8708 62.1429 18.7908 61.9539 18.8818C61.7649 18.9718 61.6859 19.1978 61.7749 19.3868C61.7909 19.4188 63.2939 22.5608 64.8059 25.6788C64.5889 25.9978 63.9389 26.7338 62.5429 26.7338C62.3329 26.7338 62.1629 26.9038 62.1629 27.1128C62.1629 27.3218 62.3329 27.4918 62.5429 27.4918Z" fill="#37202B"/>
<path fill-rule="evenodd" clip-rule="evenodd" d="M44.9833 45.5133C44.9833 45.5133 53.4263 51.5833 55.9493 51.5563C55.9493 51.5563 52.6703 55.3323 47.4843 55.8413C40.6793 56.5103 28.6073 54.5053 28.6073 54.5053C28.6073 54.5053 37.8893 48.7233 44.9833 45.5133Z" fill="#5C84CD"/>
<path fill-rule="evenodd" clip-rule="evenodd" d="M62.7431 45.3615C62.7431 45.3615 61.0511 50.3145 55.9491 51.5565C55.9491 51.5565 57.0911 56.2064 62.2511 55.4764C67.4111 54.7474 72.2201 50.2225 72.2201 50.2225C72.2201 50.2225 66.8161 45.3615 62.7431 45.3615Z" fill="#5C84CD"/>
</svg>
