<svg width="20" height="18" viewBox="0 0 20 18" fill="none" xmlns="http://www.w3.org/2000/svg">
    <path d="M14.72 4.84267L2.60974 6.45825C2.09955 6.52629 1.67712 6.86983 1.50727 7.35468C1.33746 7.83958 1.45447 8.36808 1.81269 8.73389L4.64172 11.6231L8.90481 9.16183C9.10098 9.04857 9.35126 9.11472 9.46378 9.30962C9.57629 9.50449 9.50848 9.75432 9.31228 9.86759L5.04919 12.3289L6.13681 16.2235C6.27452 16.7166 6.67369 17.0822 7.17854 17.1776C7.68438 17.2731 8.19262 17.0781 8.50613 16.671L15.9604 6.99108C16.2998 6.55036 16.3388 5.97901 16.0622 5.5C15.7857 5.02098 15.2714 4.76907 14.72 4.84267Z" fill="white"/>
</svg>
