<svg width="259" height="228" viewBox="0 0 259 228" fill="none" xmlns="http://www.w3.org/2000/svg">
<g clip-path="url(#clip0)">
<path d="M198.571 114.35L195.142 117.197L191.002 115.549C190.712 115.433 190.424 115.721 190.54 116.011L192.188 120.151L189.341 123.58C189.142 123.82 189.326 124.182 189.638 124.162L194.085 123.874L196.466 127.641C196.632 127.905 197.034 127.841 197.111 127.539L198.211 123.22L202.53 122.12C202.832 122.043 202.896 121.641 202.632 121.475L198.865 119.094L199.153 114.647C199.173 114.335 198.811 114.151 198.571 114.35Z" fill="#FFDC64"/>
<path d="M187.463 118.888C187.846 118.95 189.251 119.452 190.065 119.75C190.193 119.797 190.163 119.986 190.026 119.99C189.16 120.014 187.667 120.045 187.285 119.983C186.983 119.933 186.778 119.648 186.827 119.346C186.876 119.044 187.161 118.838 187.463 118.888Z" fill="#FFF082"/>
<path d="M193.879 112.473C193.941 112.855 194.444 114.26 194.742 115.075C194.789 115.203 194.978 115.172 194.981 115.036C195.006 114.169 195.036 112.677 194.974 112.294C194.925 111.992 194.64 111.787 194.338 111.836C194.035 111.885 193.83 112.17 193.879 112.473Z" fill="#FFF082"/>
<path d="M202.922 116.46C202.576 116.635 201.39 117.541 200.705 118.073C200.597 118.156 200.684 118.326 200.815 118.289C201.648 118.049 203.079 117.624 203.424 117.449C203.697 117.31 203.806 116.976 203.667 116.703C203.529 116.43 203.195 116.321 202.922 116.46Z" fill="#FFF082"/>
<path d="M191.45 127.931C191.626 127.585 192.532 126.399 193.063 125.714C193.147 125.606 193.317 125.693 193.279 125.824C193.039 126.657 192.615 128.088 192.44 128.433C192.301 128.706 191.967 128.815 191.694 128.676C191.421 128.538 191.312 128.204 191.45 127.931Z" fill="#FFF082"/>
<path d="M201.233 127.002C200.959 126.728 200.112 125.499 199.626 124.782C199.549 124.669 199.684 124.534 199.797 124.61C200.514 125.097 201.744 125.944 202.017 126.218C202.234 126.434 202.234 126.785 202.017 127.002C201.801 127.219 201.45 127.219 201.233 127.002Z" fill="#FFF082"/>
<path d="M192.507 116.148L191.002 115.549C190.712 115.434 190.424 115.721 190.54 116.011L192.188 120.151L189.341 123.58C189.142 123.82 189.326 124.182 189.638 124.162L194.085 123.874L196.466 127.641C196.632 127.905 197.034 127.841 197.111 127.539L197.257 126.964C194.022 122.546 192.874 118.075 192.507 116.148Z" fill="#FFC850"/>
<path d="M124.198 3.88913L121.198 6.37988L117.575 4.93808C117.321 4.83713 117.07 5.08853 117.171 5.34219L118.613 8.96506L116.122 11.9651C115.947 12.1751 116.109 12.4919 116.381 12.4743L120.272 12.2226L122.356 15.5185C122.502 15.7493 122.853 15.6937 122.92 15.4291L123.883 11.6507L127.662 10.6877C127.926 10.6202 127.982 10.2691 127.751 10.1232L124.455 8.03968L124.707 4.14857C124.725 3.87613 124.408 3.71472 124.198 3.88913Z" fill="#FFDC64"/>
<path d="M118.892 5.4624L117.575 4.93811C117.321 4.83715 117.07 5.08855 117.171 5.34221L118.613 8.96509L116.122 11.9651C115.947 12.1751 116.109 12.4919 116.381 12.4743L120.272 12.2226L122.356 15.5185C122.502 15.7493 122.853 15.6937 122.92 15.4291L123.049 14.9262C120.217 11.0605 119.214 7.14827 118.892 5.4624Z" fill="#FFC850"/>
<rect x="39.6484" y="31.2231" width="15" height="3" rx="1.5" transform="rotate(-37 39.6484 31.2231)" fill="#FE4B20"/>
<rect x="219.844" y="18.8154" width="15" height="3" rx="1.5" transform="rotate(-37 219.844 18.8154)" fill="#FE4B20"/>
<rect x="243.844" y="89.8154" width="15" height="3" rx="1.5" transform="rotate(-37 243.844 89.8154)" fill="#FE4B20"/>
<rect x="75.8438" y="102.352" width="15" height="3" rx="1.5" transform="rotate(31 75.8438 102.352)" fill="#FE4B20"/>
<rect x="90.2031" y="42.0068" width="10" height="2" rx="1" transform="rotate(67 90.2031 42.0068)" fill="#9186F4"/>
<rect x="5.01367" y="42.7632" width="6" height="6" transform="rotate(42 5.01367 42.7632)" fill="#9186F4"/>
<rect x="28.0293" y="143.155" width="6" height="6" transform="rotate(70 28.0293 143.155)" fill="#9186F4"/>
<rect x="164.793" y="95.1548" width="6" height="6" transform="rotate(70 164.793 95.1548)" fill="#FE4B20"/>
<rect x="201.08" y="217.352" width="15" height="3" rx="1.5" transform="rotate(31 201.08 217.352)" fill="#FE4B20"/>
<rect x="247.965" y="206.068" width="10" height="2" rx="1" transform="rotate(31 247.965 206.068)" fill="#9186F4"/>
<rect x="181.385" y="54.3975" width="10" height="2" rx="1" transform="rotate(138 181.385 54.3975)" fill="#9186F4"/>
</g>
<defs>
<clipPath id="clip0">
<rect width="258" height="228" fill="white" transform="translate(0.236328)"/>
</clipPath>
</defs>
</svg>
