<svg width="253" height="87" viewBox="0 0 253 87" fill="none" xmlns="http://www.w3.org/2000/svg">
<rect x="26.6074" y="22.8157" width="15" height="3" rx="1.5" transform="rotate(-37 26.6074 22.8157)" fill="#FE4B20"/>
<rect x="240.136" y="39.7426" width="15" height="3" rx="1.5" transform="rotate(-45 240.136 39.7426)" fill="#FE4B20"/>
<rect x="89.7778" y="0.763172" width="6" height="6" transform="rotate(42 89.7778 0.763172)" fill="#9186F4"/>
<rect x="5.79297" y="79.1549" width="6" height="6" transform="rotate(70 5.79297 79.1549)" fill="#9186F4"/>
<rect x="130.793" y="27.1549" width="6" height="6" transform="rotate(70 130.793 27.1549)" fill="#FE4B20"/>
<rect x="208.385" y="30.2018" width="10" height="2" rx="1" transform="rotate(138 208.385 30.2018)" fill="#9186F4"/>
<rect x="71.771" y="50.4324" width="10" height="2" rx="1" transform="rotate(-149 71.771 50.4324)" fill="#9186F4"/>
<path d="M210.57 54.35L207.142 57.1966L203.001 55.5488C202.711 55.4334 202.424 55.7207 202.539 56.0106L204.187 60.1511L201.341 63.5797C201.141 63.8197 201.326 64.1818 201.637 64.1616L206.084 63.874L208.465 67.6407C208.632 67.9045 209.033 67.8409 209.11 67.5386L210.211 63.2204L214.529 62.1197C214.831 62.0427 214.895 61.6414 214.631 61.4746L210.865 59.0935L211.152 54.6465C211.172 54.3351 210.81 54.1507 210.57 54.35Z" fill="#FFDC64"/>
<path d="M199.463 58.8876C199.845 58.9498 201.251 59.4525 202.065 59.7504C202.193 59.7972 202.162 59.9859 202.026 59.9897C201.159 60.014 199.667 60.0448 199.285 59.9825C198.982 59.9333 198.777 59.6483 198.826 59.3459C198.876 59.0436 199.161 58.8384 199.463 58.8876Z" fill="#FFF082"/>
<path d="M205.878 52.4726C205.941 52.8547 206.443 54.2603 206.741 55.0744C206.788 55.2024 206.977 55.1717 206.98 55.0355C207.005 54.1689 207.035 52.6764 206.973 52.2943C206.924 51.9919 206.639 51.7867 206.337 51.836C206.034 51.8852 205.829 52.1702 205.878 52.4726Z" fill="#FFF082"/>
<path d="M214.921 56.46C214.575 56.6354 213.389 57.5414 212.704 58.0726C212.596 58.1561 212.683 58.3265 212.814 58.2887C213.647 58.0485 215.078 57.6244 215.423 57.449C215.696 57.3103 215.805 56.9764 215.666 56.7032C215.528 56.4301 215.194 56.3212 214.921 56.46Z" fill="#FFF082"/>
<path d="M203.45 67.9302C203.626 67.585 204.532 66.3986 205.063 65.7135C205.147 65.6058 205.317 65.6924 205.279 65.8233C205.039 66.6563 204.615 68.0876 204.44 68.4327C204.301 68.7058 203.967 68.8147 203.694 68.6759C203.421 68.5371 203.312 68.2033 203.45 67.9302Z" fill="#FFF082"/>
<path d="M213.232 67.0018C212.958 66.728 212.111 65.4988 211.625 64.7813C211.548 64.6686 211.683 64.5334 211.796 64.6099C212.513 65.0966 213.743 65.9436 214.016 66.2173C214.233 66.4339 214.233 66.7851 214.016 67.0017C213.8 67.2184 213.449 67.2184 213.232 67.0018Z" fill="#FFF082"/>
<path d="M204.507 56.148L203.001 55.5488C202.711 55.4335 202.424 55.7208 202.539 56.0107L204.187 60.1511L201.341 63.5797C201.141 63.8197 201.326 64.1818 201.637 64.1616L206.084 63.874L208.465 67.6407C208.632 67.9045 209.033 67.8409 209.11 67.5386L209.257 66.9638C206.021 62.5459 204.874 58.0747 204.507 56.148Z" fill="#FFC850"/>
</svg>
