<svg width="276" height="276" viewBox="0 0 276 276" fill="none" xmlns="http://www.w3.org/2000/svg">
<path d="M52.5393 231.978C98.0793 257.21 171.915 257.21 217.455 231.978C262.995 206.746 262.995 165.832 217.455 140.6C171.915 115.368 98.0793 115.368 52.5393 140.594C6.99928 165.821 6.99928 206.741 52.5393 231.978Z" fill="#F5F5F5"/>
<path d="M220.105 139.154C220.425 135.168 223.499 128.373 228.048 123.532C232.596 118.691 239.877 116.356 244.371 118.31C248.549 120.126 247.633 125.729 242.113 129.047C236.593 132.364 228.374 136.432 225.553 142.714L220.099 150.254L220.105 139.154Z" fill="#0018F9"/>
<path opacity="0.1" d="M220.105 139.154C220.425 135.168 223.499 128.373 228.048 123.532C232.596 118.691 239.877 116.356 244.371 118.31C248.549 120.126 247.633 125.729 242.113 129.047C236.593 132.364 228.374 136.432 225.553 142.714L220.099 150.254L220.105 139.154Z" fill="black"/>
<path d="M219.531 144.37H219.448C219.413 144.359 219.38 144.341 219.352 144.317C219.324 144.293 219.301 144.264 219.285 144.231C219.269 144.198 219.259 144.162 219.256 144.125C219.254 144.088 219.259 144.052 219.271 144.017C223.748 130.504 236.449 121.446 241.721 120.579C241.757 120.573 241.793 120.573 241.828 120.582C241.863 120.59 241.897 120.605 241.926 120.626C241.955 120.647 241.98 120.673 241.999 120.704C242.018 120.735 242.03 120.769 242.036 120.805C242.042 120.841 242.041 120.878 242.033 120.913C242.025 120.949 242.01 120.983 241.989 121.012C241.968 121.042 241.941 121.068 241.911 121.087C241.88 121.106 241.845 121.119 241.809 121.125C236.654 121.97 224.206 130.879 219.795 144.193C219.775 144.247 219.739 144.292 219.691 144.324C219.644 144.355 219.588 144.372 219.531 144.37Z" fill="white"/>
<path d="M220.701 155.603C221.523 153.395 224.565 149.94 229.224 147.24C234.39 144.254 240.711 143.2 242.35 140.688C244.321 137.669 241.898 134.473 236.83 134.688C231.763 134.903 222.362 141.058 220.116 151.248L220.701 155.603Z" fill="#0018F9"/>
<path d="M220.469 151.452C220.425 151.451 220.382 151.442 220.342 151.425C220.278 151.391 220.23 151.333 220.207 151.264C220.184 151.195 220.189 151.12 220.22 151.055C224.592 142.35 233.816 138.281 238.58 137.255C238.653 137.239 238.729 137.254 238.792 137.295C238.855 137.336 238.899 137.4 238.914 137.473C238.929 137.546 238.915 137.622 238.874 137.685C238.833 137.748 238.769 137.791 238.696 137.807C234.031 138.817 224.99 142.802 220.717 151.32C220.691 151.362 220.654 151.396 220.611 151.419C220.567 151.443 220.518 151.454 220.469 151.452Z" fill="white"/>
<path d="M60.593 167.725L65.0753 165.136C65.0753 165.136 67.4489 154.577 63.9161 141.163C60.3833 127.749 50.232 117.72 44.8942 119.828C39.5563 121.937 39.7274 125.9 42.653 129.919C45.0818 133.264 52.9589 141.29 56.7511 150.575C59.0096 156.028 60.3094 161.83 60.593 167.725Z" fill="#E0E0E0"/>
<path d="M62.9779 166.621H62.9282C62.8918 166.616 62.8568 166.605 62.825 166.586C62.7933 166.568 62.7656 166.543 62.7435 166.514C62.7214 166.484 62.7054 166.451 62.6963 166.415C62.6873 166.38 62.6854 166.343 62.6909 166.307C65.76 144.227 52.0704 126.375 45.8439 122.654C45.8125 122.636 45.7853 122.611 45.7636 122.582C45.7419 122.552 45.7262 122.519 45.7175 122.484C45.7088 122.448 45.7071 122.411 45.7127 122.375C45.7183 122.339 45.731 122.305 45.75 122.274C45.7682 122.242 45.7924 122.215 45.8213 122.194C45.8501 122.172 45.883 122.156 45.9179 122.148C45.9529 122.139 45.9893 122.137 46.0249 122.143C46.0605 122.148 46.0947 122.161 46.1254 122.18C52.4458 125.961 66.3396 144.044 63.2374 166.384C63.2275 166.447 63.1964 166.505 63.1493 166.548C63.1021 166.591 63.0417 166.617 62.9779 166.621Z" fill="white"/>
<path d="M60.5931 167.725L53.8643 171.589C52.4617 170.887 50.9426 170.448 49.382 170.292C46.5171 169.933 44.6127 167.173 44.8943 165.114C45.0875 163.723 45.5291 162.139 45.3193 160.737C45.1261 159.478 43.9062 158.341 42.7691 157.905C41.801 157.603 40.7911 157.458 39.7772 157.475C38.1599 157.403 36.4652 157.215 35.1018 156.371C33.7383 155.526 32.7337 153.837 33.1808 152.28C33.4748 151.469 33.9572 150.738 34.5884 150.15C35.2155 149.561 35.725 148.858 36.0899 148.08C36.686 146.517 35.6372 145.529 34.3787 144.806C29.9627 142.261 27.9755 140.258 29.5652 138.337C31.155 136.416 35.5268 135.577 40.0035 137.928C44.4803 140.28 48.1897 137.757 51.1429 138.254C55.7687 139.027 56.0447 142.295 55.4706 145.137C54.8965 147.98 60.6042 149.178 62.0449 152.573C63.0882 155.062 63.9603 163.193 60.5931 167.725Z" fill="#EBEBEB"/>
<path d="M58.3466 169.293C58.2753 169.293 58.2067 169.265 58.1553 169.216C58.1038 169.167 58.0735 169.099 58.0706 169.028C57.5186 153.268 37.3209 139.524 32.5572 138.74C32.5212 138.734 32.4868 138.721 32.4559 138.701C32.4251 138.682 32.3983 138.657 32.3773 138.627C32.3562 138.597 32.3413 138.563 32.3333 138.528C32.3254 138.492 32.3245 138.455 32.3309 138.42C32.3362 138.384 32.3486 138.349 32.3675 138.319C32.3863 138.288 32.4111 138.261 32.4404 138.24C32.4697 138.219 32.503 138.204 32.5382 138.196C32.5734 138.188 32.6099 138.187 32.6455 138.193C37.6632 139.021 58.0706 152.661 58.6226 169.011C58.6241 169.047 58.6184 169.083 58.6058 169.117C58.5932 169.151 58.574 169.182 58.5493 169.208C58.5246 169.234 58.495 169.255 58.4621 169.27C58.4292 169.284 58.3937 169.292 58.3577 169.293H58.3466Z" fill="white"/>
<path d="M238 94.2374C237.018 94.0553 236.201 93.5861 234.799 93.437C233.83 93.4102 232.883 93.1488 232.039 92.6753C230.935 92.0736 228.622 89.275 226.734 86.4487C224.731 83.2205 223.295 79.6733 222.489 75.9607C221.689 71.4674 221.534 64.9207 221.225 62.2877C220.916 59.6546 219.817 58.8874 218.388 58.2912C216.704 57.5902 214.943 58.6058 214.927 62.4146C215.001 67.6582 215.658 72.8772 216.886 77.9755C217.901 81.734 219.531 85.2984 221.711 88.5242C223.698 91.5271 225.746 93.4922 228.335 95.9983C229.047 96.6773 229.405 97.3562 230.614 98.808C231.082 99.4384 231.64 99.9964 232.27 100.464C233.077 100.998 233.956 101.413 234.881 101.695C236.05 102.057 237.295 102.099 238.486 101.816C239.14 101.658 239.749 101.35 240.263 100.917C240.777 100.478 241.12 99.872 241.229 99.2054C241.262 99.0748 241.261 98.9377 241.224 98.808C241.104 98.5945 240.906 98.436 240.672 98.3664C239.413 97.8144 237.973 97.439 236.78 96.7711C235.776 96.2191 235.124 95.6671 235.362 95.5954C235.599 95.5236 236.145 95.8934 237.15 95.921C238.155 95.9486 239.071 95.4077 239.043 94.8722C239.016 94.3368 238.983 94.4196 238 94.2374Z" fill="#965454"/>
<path d="M215.468 74.6635C215.468 74.6635 214.551 67.3606 214.314 63.3034C214.077 59.2462 215.319 58.0704 216.842 57.0547C220.204 56.7953 222.13 60.3115 222.699 62.6575C223.267 65.0035 223.56 70.8492 223.56 74.6525C223.56 78.4558 228.876 89.424 228.876 89.424C228.876 89.424 226.193 90.666 225.381 93.1003C225.381 93.1003 221.115 88.0661 219.53 85.4993C216.627 80.7797 215.832 77.8927 215.468 74.6635Z" fill="#0018F9"/>
<path opacity="0.1" d="M215.468 74.6635C215.468 74.6635 214.551 67.3606 214.314 63.3034C214.077 59.2462 215.319 58.0704 216.842 57.0547C220.204 56.7953 222.13 60.3115 222.699 62.6575C223.267 65.0035 223.56 70.8492 223.56 74.6525C223.56 78.4558 228.876 89.424 228.876 89.424C228.876 89.424 226.193 90.666 225.381 93.1003C225.381 93.1003 221.115 88.0661 219.53 85.4993C216.627 80.7797 215.832 77.8927 215.468 74.6635Z" fill="black"/>
<path d="M201.48 160.003H206.056V152.175H201.48V160.003Z" fill="#965454"/>
<path d="M216.395 154.312L220.966 154.472L221.197 146.186L216.627 146.026L216.395 154.312Z" fill="#965454"/>
<path d="M206.056 157.745V157.088C206.492 157.281 207.508 161.162 209.324 162.812C210.765 164.132 212.735 165.65 213.237 167.118C213.74 168.586 210.477 169.486 209.147 169.249C207.579 168.967 204.869 167.869 204.179 166.848C203.489 165.826 203.18 164.314 202.628 163.563C202.076 162.812 200.795 161.979 200.497 161.112C200.332 160.638 200.497 159.594 200.757 158.711C201.016 157.828 201.198 157.016 201.474 157.088V157.59C202.129 158.099 202.936 158.372 203.765 158.363C204.439 158.385 206.061 158.253 206.056 157.745Z" fill="#263238"/>
<path d="M221.015 153.059C221.253 153.059 221.446 153.401 221.97 153.969C222.753 154.759 223.662 155.414 224.658 155.907C226.375 156.762 229.704 158.082 231.211 158.761C232.149 159.186 232.105 160.323 231.133 160.969C230.162 161.615 227.821 162.073 224.99 161.454C223.455 161.107 221.451 159.688 220.187 159.765C218.923 159.843 216.549 159.826 215.617 159.18C214.684 158.534 215.065 157.16 215.319 155.979C215.606 154.687 216.02 152.711 216.45 152.799V153.208C217.002 154.041 219.801 154.378 221.01 153.76L221.015 153.059Z" fill="#263238"/>
<path d="M201.783 90.1085C201.783 94.4748 201.783 121.744 201.783 121.744C201.679 122.997 200.746 125.177 200.497 130.526C200.188 137.084 199.945 155.062 199.945 155.062C199.945 155.062 203.362 157.27 206.387 155.14C206.387 155.14 210.45 129.361 211.267 122.864C211.984 117.195 213.193 101.789 213.193 101.789L215.953 124.973C215.953 124.973 215.208 129.234 215.048 132.243C214.888 135.251 215.048 150.828 215.048 150.828C215.048 150.828 218.658 152.904 221.313 151.485C221.313 151.485 224.443 127.429 224.918 124.713C225.392 121.998 223.201 90.0809 223.201 90.0809L201.783 90.1085Z" fill="#263238"/>
<path d="M213.16 101.789C215.525 101.051 217.7 99.8038 219.53 98.1346C219.53 98.1346 218.305 100.436 214.651 102.578L214.728 115.042L213.16 101.789Z" fill="black"/>
<path d="M206.177 58.512C205.536 58.598 204.904 58.744 204.29 58.9481C203.031 59.4394 202.457 60.985 202.159 62.3484C201.906 63.4903 201.78 64.6565 201.784 65.826V90.114C204.991 93.6026 216.169 95.2255 223.174 90.114C223.174 90.114 223.036 68.6633 222.511 65.1415C221.6 59.0198 218.647 56.8615 215.727 57.0658L208.656 58.0704L206.177 58.512Z" fill="#0018F9"/>
<path d="M208.882 69.0938C208.882 69.0938 212.713 68.9393 214.286 68.3265V67.5593C212.713 68.172 208.882 68.3265 208.882 68.3265V69.0938Z" fill="#37474F"/>
<path d="M215.352 61.6032L208.656 56.6738L208.628 55.4594C208.628 55.4594 207.21 55.6747 206.862 58.3905C207.914 60.7332 209.719 62.6569 211.99 63.8554L213.381 61.3769L215.352 61.6032Z" fill="#0018F9"/>
<path opacity="0.1" d="M215.352 61.6032L208.656 56.6738L208.628 55.4594C208.628 55.4594 207.21 55.6747 206.862 58.3905C207.914 60.7332 209.719 62.6569 211.99 63.8554L213.381 61.3769L215.352 61.6032Z" fill="black"/>
<path d="M215.721 55.752C216.152 55.8164 216.566 55.965 216.939 56.1895C217.312 56.414 217.638 56.7099 217.896 57.0602C218.559 58.1642 218.404 62.3318 218.404 62.3318L216.643 60.3115L215.352 61.6032C215.49 60.2066 215.727 57.8662 215.727 57.8662L215.721 55.752Z" fill="#0018F9"/>
<path opacity="0.1" d="M215.721 55.752C216.152 55.8164 216.566 55.965 216.939 56.1895C217.312 56.414 217.638 56.7099 217.896 57.0602C218.559 58.1642 218.404 62.3318 218.404 62.3318L216.643 60.3115L215.352 61.6032C215.49 60.2066 215.727 57.8662 215.727 57.8662L215.721 55.752Z" fill="black"/>
<path d="M205.808 46.92C205.808 46.92 206.856 51.888 207.281 52.6773C207.56 53.1799 208.023 53.5542 208.573 53.7206L208.501 50.243L205.808 46.92Z" fill="#263238"/>
<path d="M207.127 39.8378C206.76 39.7952 206.387 39.8366 206.038 39.959C205.689 40.0814 205.372 40.2816 205.112 40.5444C204.245 41.4331 204.726 44.2042 205.808 46.92L207.789 47.1463L207.127 39.8378Z" fill="#263238"/>
<path d="M208.385 47.1463C207.988 47.3837 207.419 46.5943 206.928 46.1086C206.437 45.6228 204.836 44.8942 204.041 46.5778C203.246 48.2614 204.742 50.5577 206.006 50.9496C208.176 51.6341 208.501 50.243 208.501 50.243L208.667 58.0704C208.667 58.0704 211.499 61.0788 215.352 61.6032L215.727 57.8662V55.4815C216.694 55.6358 217.675 55.6857 218.653 55.6306C220.253 55.3822 221.258 54.1236 221.738 52.3958C222.517 49.6358 222.815 47.3782 222.152 41.9078C221.429 35.9242 214.468 35.8358 210.715 38.226C206.961 40.6162 208.385 47.1463 208.385 47.1463Z" fill="#965454"/>
<path d="M208.385 47.8198C208.181 47.8198 207.425 46.5612 206.928 46.1086C206.244 45.4848 207.127 39.8378 207.127 39.8378C207.949 35.9738 214.667 35.4218 218.421 36.6528C220.369 37.2545 221.628 38.1322 221.556 39.7771C221.308 40.8811 218.928 41.4331 218.023 41.549C215.484 41.8582 211.57 41.1737 211.029 41.1019C210.295 41.0026 210.091 41.2344 209.694 43.1885C209.346 44.8997 209.053 47.8032 208.385 47.8198Z" fill="#263238"/>
<path d="M207.132 40.296L204.726 39.0043C204.802 38.8422 204.911 38.6973 205.046 38.5785C205.18 38.4597 205.337 38.3695 205.507 38.3132C205.678 38.257 205.858 38.2359 206.037 38.2512C206.215 38.2666 206.389 38.3181 206.547 38.4026C206.869 38.5825 207.11 38.8795 207.219 39.2321C207.328 39.5847 207.297 39.9657 207.132 40.296Z" fill="#263238"/>
<path d="M215.722 55.4815C215.722 55.4815 212.161 54.7639 210.914 54.1015C210.188 53.7157 209.594 53.1217 209.208 52.3958C209.395 53.1247 209.727 53.8082 210.185 54.4051C211.096 55.5698 215.738 56.431 215.738 56.431L215.722 55.4815Z" fill="#764747"/>
<path d="M215.092 46.92C215.087 47.0608 215.04 47.197 214.958 47.3114C214.875 47.4258 214.761 47.5135 214.629 47.5634C214.497 47.6134 214.354 47.6234 214.216 47.5922C214.079 47.561 213.954 47.49 213.856 47.3881C213.759 47.2862 213.694 47.1579 213.669 47.0191C213.644 46.8804 213.66 46.7374 213.716 46.608C213.772 46.4785 213.865 46.3684 213.983 46.2914C214.101 46.2144 214.239 46.1738 214.38 46.1748C214.476 46.1769 214.57 46.1979 214.658 46.2365C214.745 46.2752 214.824 46.3307 214.89 46.3999C214.957 46.4691 215.008 46.5506 215.043 46.6399C215.078 46.7291 215.094 46.8243 215.092 46.92Z" fill="#263238"/>
<path d="M214.336 44.2152L212.807 45.0597C212.697 44.8503 212.674 44.6066 212.741 44.38C212.808 44.1534 212.96 43.9617 213.166 43.8453C213.266 43.7903 213.377 43.7562 213.491 43.7451C213.605 43.734 213.72 43.7461 213.83 43.7806C213.939 43.8152 214.04 43.8715 214.127 43.9462C214.214 44.0209 214.285 44.1124 214.336 44.2152Z" fill="#263238"/>
<path d="M215.401 51.1925L217.03 51.8052C216.996 51.9157 216.94 52.0183 216.866 52.1065C216.791 52.1948 216.7 52.267 216.596 52.3186C216.493 52.3703 216.38 52.4004 216.265 52.407C216.15 52.4136 216.034 52.3967 215.926 52.3572C215.702 52.2718 215.521 52.1014 215.423 51.8831C215.325 51.6648 215.317 51.4165 215.401 51.1925Z" fill="#764747"/>
<path d="M221.462 44.8113L220.066 43.7405C220.131 43.6457 220.215 43.5652 220.312 43.504C220.41 43.4429 220.519 43.4022 220.632 43.3846C220.746 43.3671 220.862 43.3729 220.974 43.4018C221.085 43.4308 221.189 43.4821 221.28 43.5528C221.464 43.7006 221.585 43.9127 221.619 44.1462C221.653 44.3798 221.597 44.6174 221.462 44.8113Z" fill="#263238"/>
<path d="M221.032 46.7102C221.026 46.8511 220.979 46.9872 220.897 47.1017C220.815 47.2161 220.701 47.3038 220.569 47.3537C220.437 47.4036 220.293 47.4136 220.156 47.3824C220.018 47.3513 219.893 47.2803 219.796 47.1784C219.698 47.0765 219.633 46.9481 219.608 46.8094C219.583 46.6706 219.6 46.5276 219.656 46.3982C219.712 46.2688 219.804 46.1587 219.922 46.0816C220.04 46.0046 220.179 45.964 220.32 45.965C220.415 45.9672 220.51 45.9882 220.597 46.0268C220.685 46.0654 220.764 46.1209 220.83 46.1901C220.896 46.2593 220.948 46.3409 220.983 46.4301C221.017 46.5194 221.034 46.6145 221.032 46.7102Z" fill="#263238"/>
<path d="M217.168 45.3744L217.405 49.669L219.646 48.9072L217.168 45.3744Z" fill="#764747"/>
<path d="M210.273 42.4322C210.273 42.4322 217.372 46.3956 222.307 43.3762C227.242 40.3567 220.85 37.7678 220.85 37.7678L210.273 42.4322Z" fill="#263238"/>
<path d="M220.8 31.0003C216.572 30.3434 211.968 30.1447 206.658 32.7281C201.347 35.3114 200.172 38.7614 200.172 38.7614C200.172 38.7614 205.592 40.2353 210.003 38.9712C214.413 37.7071 220.8 31.0003 220.8 31.0003Z" fill="#0018F9"/>
<path opacity="0.4" d="M220.8 31.0003C216.572 30.3434 211.968 30.1447 206.658 32.7281C201.347 35.3114 200.172 38.7614 200.172 38.7614C200.172 38.7614 205.592 40.2353 210.003 38.9712C214.413 37.7071 220.8 31.0003 220.8 31.0003Z" fill="white"/>
<path d="M203.136 40.3954C203.136 40.3954 200.42 39.4404 200.172 38.7394C202.326 38.713 204.459 38.3114 206.475 37.5526C210.003 36.2719 213.651 32.3969 217.637 31.3094C221.622 30.222 223.3 32.0325 223.3 32.0325C222.777 33.7338 222.019 35.3538 221.048 36.846C221.048 36.846 219.817 39.6722 215.147 40.8646C210.477 42.0569 203.136 40.3954 203.136 40.3954Z" fill="#0018F9"/>
<path d="M203.136 40.3953L203.357 41.1405C203.437 41.3871 203.573 41.612 203.753 41.7977C203.934 41.9834 204.156 42.125 204.4 42.2114C207.976 43.1756 211.754 43.0855 215.28 41.952C218.592 40.9418 220.044 39.9151 220.634 39.192C220.85 38.9918 221.013 38.7415 221.11 38.4633C221.206 38.1851 221.232 37.8875 221.186 37.5967L221.076 36.8625C221.076 36.8625 220.06 38.3971 214.695 40.1083C209.329 41.8195 203.136 40.3953 203.136 40.3953Z" fill="#37474F"/>
<path d="M218.04 32.8605C218.007 33.672 217.135 35.328 215.975 34.776V36.857C215.975 38.1597 216.743 38.513 217.974 38.099C218.589 37.8983 219.126 37.5108 219.511 36.9904C219.896 36.47 220.109 35.8426 220.121 35.1955C220.121 34.7981 220.121 33.4015 220.121 33.4015C219.21 34.7373 218.04 33.1807 218.04 32.8605Z" fill="#FAFAFA"/>
<path d="M132.48 55.465L67.7525 92.8354C67.0569 93.2893 66.4781 93.9006 66.0629 94.6199C65.6476 95.3391 65.4076 96.1461 65.3623 96.9754V169.127C65.4067 169.957 65.6464 170.764 66.0617 171.483C66.477 172.203 67.0563 172.814 67.7525 173.267L132.48 210.643C133.221 211.019 134.04 211.215 134.87 211.215C135.701 211.215 136.52 211.019 137.26 210.643L202.032 173.267C202.728 172.814 203.307 172.203 203.723 171.483C204.138 170.764 204.378 169.957 204.422 169.127V96.9754C204.377 96.1461 204.137 95.3391 203.722 94.6199C203.306 93.9006 202.727 93.2893 202.032 92.8354L137.299 55.465C136.553 55.0828 135.727 54.8835 134.889 54.8835C134.052 54.8835 133.226 55.0828 132.48 55.465Z" fill="#37474F"/>
<path d="M134.892 133.54V211.212C134.062 211.235 133.239 211.045 132.502 210.66L67.7691 173.289C67.0735 172.835 66.4947 172.224 66.0795 171.505C65.6642 170.786 65.4242 169.979 65.3789 169.149V96.9754C65.4237 96.1945 65.6391 95.4329 66.0101 94.7443C66.3811 94.0557 66.8986 93.4568 67.5262 92.9899C66.4553 93.7572 66.5381 94.8833 67.7691 95.5954L132.48 132.966C133.221 133.361 134.052 133.559 134.892 133.54Z" fill="#263238"/>
<path d="M202.032 92.8354L137.299 55.465C136.558 55.0892 135.739 54.8933 134.909 54.8933C134.078 54.8933 133.259 55.0892 132.519 55.465L67.7912 92.8354C66.4719 93.5971 66.4719 94.8336 67.7912 95.5954L132.48 132.966C133.221 133.342 134.04 133.537 134.87 133.537C135.701 133.537 136.52 133.342 137.26 132.966L202.032 95.5954C203.329 94.8336 203.329 93.5971 202.032 92.8354Z" fill="#455A64"/>
<path d="M140.567 136.245L198.72 102.672C199.377 102.291 199.912 102.6 199.912 103.362V167.946C199.89 168.36 199.77 168.763 199.563 169.123C199.356 169.483 199.067 169.788 198.72 170.016L140.567 203.561C139.91 203.942 139.375 203.638 139.375 202.871V138.315C139.396 137.9 139.515 137.496 139.722 137.137C139.93 136.777 140.219 136.471 140.567 136.245Z" fill="#263238"/>
<path d="M140.479 138.315C140.501 138.096 140.57 137.884 140.68 137.694C140.791 137.504 140.94 137.339 141.119 137.211L198.803 103.903V167.935C198.779 168.154 198.71 168.365 198.6 168.555C198.489 168.745 198.34 168.91 198.163 169.039L140.479 202.341V138.315Z" fill="#37474F"/>
<path d="M139.579 141.991L152.203 134.688C152.329 134.617 152.472 134.58 152.617 134.58C152.762 134.58 152.904 134.617 153.031 134.688L155.073 135.869L141.825 143.266L139.579 141.991Z" fill="#455A64"/>
<path d="M155.278 136.344V145.043C155.263 145.291 155.19 145.532 155.066 145.747C154.941 145.962 154.768 146.144 154.56 146.28L141.82 153.638V143.283L154.56 135.93C154.952 135.704 155.278 135.886 155.278 136.344Z" fill="#263238"/>
<path d="M139.579 141.991L141.82 143.283V153.644L139.579 152.347V141.991Z" fill="black"/>
<path d="M147.218 144.127C147.836 143.768 148.322 144.055 148.322 144.773C148.302 145.161 148.192 145.538 148.001 145.875C147.809 146.213 147.541 146.501 147.218 146.716C146.6 147.069 146.114 146.782 146.114 146.065C146.133 145.678 146.243 145.301 146.435 144.964C146.627 144.628 146.895 144.341 147.218 144.127Z" fill="#455A64"/>
<path d="M151.706 141.538C152.325 141.18 152.81 141.467 152.81 142.184C152.79 142.572 152.68 142.949 152.489 143.287C152.297 143.624 152.029 143.912 151.706 144.127C151.083 144.48 150.602 144.193 150.602 143.476C150.622 143.089 150.732 142.712 150.924 142.376C151.116 142.039 151.384 141.753 151.706 141.538Z" fill="#455A64"/>
<path d="M139.369 142.112L136.267 143.906C135.847 144.149 135.371 144.276 134.887 144.276C134.402 144.276 133.926 144.149 133.507 143.906L131.238 142.598C131.112 142.525 130.969 142.486 130.824 142.486C130.679 142.486 130.536 142.525 130.41 142.598L128.379 143.768L133.507 146.495C133.926 146.738 134.402 146.865 134.887 146.865C135.371 146.865 135.847 146.738 136.267 146.495L141.61 143.41L139.369 142.112Z" fill="#455A64"/>
<path d="M128.876 154.179L133.507 156.856C133.926 157.099 134.402 157.226 134.887 157.226C135.371 157.226 135.847 157.099 136.267 156.856L141.61 153.771V143.41L136.267 146.495C135.847 146.738 135.371 146.865 134.887 146.865C134.402 146.865 133.926 146.738 133.507 146.495L128.876 143.824C128.484 143.597 128.158 143.779 128.158 144.238V152.937C128.172 153.186 128.244 153.428 128.369 153.644C128.493 153.859 128.667 154.043 128.876 154.179Z" fill="#37474F"/>
<path d="M134.903 157.221C135.384 157.222 135.857 157.094 136.272 156.851L141.616 153.765V143.41L136.272 146.495C135.857 146.738 135.384 146.866 134.903 146.865V157.221Z" fill="#263238"/>
<path d="M139.579 186.024L152.203 178.738C152.329 178.664 152.471 178.626 152.617 178.626C152.762 178.626 152.905 178.664 153.031 178.738L155.073 179.919L141.825 187.316L139.579 186.024Z" fill="#455A64"/>
<path d="M155.278 180.36V189.06C155.264 189.309 155.191 189.551 155.067 189.767C154.942 189.982 154.769 190.166 154.56 190.302L141.82 197.655V187.299L154.56 179.952C154.952 179.72 155.278 179.902 155.278 180.36Z" fill="#263238"/>
<path d="M139.579 186.007L141.82 187.299V197.655L139.579 196.363V186.007Z" fill="black"/>
<path d="M147.218 188.138C147.836 187.779 148.322 188.072 148.322 188.784C148.304 189.172 148.194 189.55 148.002 189.887C147.81 190.225 147.542 190.513 147.218 190.727C146.6 191.086 146.114 190.799 146.114 190.081C146.134 189.694 146.244 189.316 146.436 188.979C146.628 188.641 146.896 188.354 147.218 188.138Z" fill="#455A64"/>
<path d="M151.706 185.549C152.325 185.19 152.81 185.483 152.81 186.195C152.791 186.583 152.681 186.961 152.49 187.298C152.298 187.636 152.03 187.923 151.706 188.138C151.083 188.497 150.602 188.21 150.602 187.492C150.622 187.105 150.732 186.727 150.923 186.39C151.115 186.052 151.383 185.764 151.706 185.549Z" fill="#455A64"/>
<path d="M139.369 186.129L136.267 187.923C135.847 188.165 135.371 188.293 134.887 188.293C134.402 188.293 133.926 188.165 133.507 187.923L131.238 186.615C131.112 186.541 130.969 186.503 130.824 186.503C130.679 186.503 130.536 186.541 130.41 186.615L128.379 187.785L133.507 190.512C133.926 190.754 134.402 190.882 134.887 190.882C135.371 190.882 135.847 190.754 136.267 190.512L141.61 187.426L139.369 186.129Z" fill="#455A64"/>
<path d="M128.876 198.196L133.507 200.867C133.926 201.11 134.402 201.237 134.887 201.237C135.371 201.237 135.847 201.11 136.267 200.867L141.61 197.782V187.426L136.267 190.512C135.847 190.754 135.371 190.882 134.887 190.882C134.402 190.882 133.926 190.754 133.507 190.512L128.876 187.84C128.484 187.608 128.158 187.796 128.158 188.254V196.954C128.173 197.202 128.245 197.444 128.37 197.659C128.494 197.875 128.668 198.059 128.876 198.196Z" fill="#37474F"/>
<path d="M134.903 201.237C135.384 201.235 135.856 201.108 136.272 200.867L141.616 197.782V187.426L136.272 190.512C135.855 190.75 135.384 190.877 134.903 190.882V201.237Z" fill="#263238"/>
<path d="M178.693 144.033L179.069 143.382L176.789 142.063H176.745C174.923 141.047 172.428 141.207 169.668 142.802C164.099 146.021 159.578 153.842 159.578 160.279C159.578 163.436 160.682 165.666 162.437 166.748L162.503 166.787L162.569 166.825L164.849 168.145L165.23 167.477C166.796 167.405 168.317 166.932 169.646 166.102C175.221 162.884 179.737 155.062 179.737 148.626C179.792 147.031 179.433 145.448 178.693 144.033Z" fill="#263238"/>
<path d="M179.378 160.036C183.318 153.211 183.319 145.835 179.38 143.561C175.441 141.286 169.053 144.975 165.113 151.8C161.173 158.625 161.172 166.001 165.111 168.276C169.05 170.55 175.438 166.861 179.378 160.036Z" fill="#263238"/>
<path d="M179.013 159.83C182.954 153.005 182.955 145.629 179.015 143.355C175.076 141.08 168.689 144.769 164.748 151.594C160.808 158.419 160.807 165.795 164.746 168.07C168.685 170.344 175.073 166.655 179.013 159.83Z" fill="#37474F"/>
<path d="M172.919 147.936C172.693 148.019 172.555 147.831 172.61 147.517L173.074 144.834C173.098 144.683 173.156 144.54 173.244 144.415C173.332 144.291 173.448 144.188 173.582 144.116C173.803 144.033 173.946 144.221 173.891 144.536L173.427 147.213C173.405 147.365 173.347 147.509 173.259 147.634C173.171 147.76 173.054 147.863 172.919 147.936Z" fill="#0018F9"/>
<path d="M169.116 150.834C169.091 150.848 169.062 150.855 169.033 150.857C169.004 150.859 168.975 150.854 168.948 150.844C168.921 150.834 168.896 150.817 168.876 150.797C168.855 150.776 168.839 150.751 168.829 150.724L168.079 148.968C168.046 148.821 168.049 148.669 168.089 148.524C168.128 148.378 168.202 148.245 168.305 148.135C168.52 147.881 168.763 147.848 168.857 148.052L169.608 149.807C169.64 149.953 169.637 150.105 169.597 150.249C169.558 150.394 169.484 150.526 169.381 150.635C169.314 150.726 169.222 150.795 169.116 150.834Z" fill="#0018F9"/>
<path d="M166.213 155.83C166.173 155.837 166.131 155.837 166.091 155.83L164.435 155.67C164.237 155.67 164.176 155.371 164.297 155.046C164.419 154.72 164.678 154.494 164.849 154.494L166.505 154.654C166.699 154.654 166.765 154.952 166.643 155.278C166.612 155.394 166.557 155.502 166.484 155.597C166.41 155.692 166.318 155.771 166.213 155.83Z" fill="#0018F9"/>
<path d="M163.353 162.514C163.177 162.581 163.044 162.487 163.033 162.266C163.033 162.11 163.068 161.955 163.134 161.814C163.201 161.673 163.299 161.548 163.42 161.449L165.379 159.953C165.611 159.776 165.815 159.854 165.832 160.13C165.831 160.286 165.796 160.44 165.729 160.581C165.662 160.722 165.566 160.847 165.445 160.947L163.48 162.443C163.442 162.473 163.399 162.498 163.353 162.514Z" fill="#0018F9"/>
<path d="M165.263 166.997C165.23 167.016 165.192 167.026 165.153 167.026C165.114 167.026 165.076 167.016 165.043 166.997C164.894 166.881 164.916 166.538 165.092 166.235L166.594 163.651C166.77 163.348 167.035 163.199 167.184 163.315C167.333 163.431 167.311 163.778 167.135 164.082L165.639 166.66C165.552 166.809 165.421 166.927 165.263 166.997Z" fill="#0018F9"/>
<path d="M169.552 167.4C169.326 167.482 169.188 167.295 169.243 166.98L169.707 164.303C169.729 164.152 169.786 164.008 169.873 163.883C169.961 163.757 170.075 163.654 170.209 163.58C170.435 163.497 170.573 163.685 170.518 163.999L170.055 166.682C170.031 166.832 169.973 166.974 169.886 167.099C169.799 167.223 169.685 167.326 169.552 167.4Z" fill="#0018F9"/>
<path d="M174.565 163.58C174.538 163.593 174.51 163.601 174.48 163.602C174.451 163.604 174.422 163.599 174.395 163.588C174.367 163.577 174.343 163.56 174.323 163.538C174.302 163.517 174.287 163.492 174.278 163.464L173.527 161.736C173.494 161.59 173.498 161.438 173.537 161.294C173.577 161.15 173.651 161.017 173.753 160.908C173.968 160.654 174.217 160.615 174.305 160.825L175.05 162.575C175.083 162.722 175.08 162.875 175.04 163.02C175.001 163.165 174.927 163.298 174.824 163.409C174.752 163.485 174.663 163.543 174.565 163.58Z" fill="#0018F9"/>
<path d="M178.395 156.989C178.355 156.997 178.314 156.997 178.274 156.989L176.618 156.829C176.425 156.829 176.364 156.531 176.486 156.205C176.607 155.879 176.861 155.653 177.038 155.653L178.694 155.813C178.892 155.813 178.953 156.111 178.832 156.437C178.763 156.67 178.607 156.868 178.395 156.989Z" fill="#0018F9"/>
<path d="M177.617 151.64C177.446 151.706 177.313 151.607 177.297 151.386C177.298 151.231 177.333 151.078 177.4 150.937C177.467 150.797 177.563 150.673 177.683 150.575L179.648 149.073C179.88 148.896 180.079 148.979 180.101 149.255C180.097 149.41 180.061 149.562 179.994 149.702C179.928 149.842 179.832 149.966 179.715 150.067L177.744 151.568C177.705 151.598 177.663 151.622 177.617 151.64Z" fill="#0018F9"/>
<path d="M176.165 148.245C176.132 148.264 176.094 148.275 176.055 148.275C176.016 148.275 175.978 148.264 175.944 148.245C175.795 148.129 175.818 147.787 175.994 147.483L177.49 144.9C177.667 144.596 177.932 144.447 178.086 144.563C178.241 144.679 178.213 145.027 178.037 145.331L176.535 147.908C176.45 148.057 176.321 148.175 176.165 148.245Z" fill="#0018F9"/>
<path d="M176.778 149.724C175.818 148.3 173.985 148.013 171.882 149.228C168.791 151.016 166.279 155.366 166.279 158.937C166.279 161.493 167.56 162.95 169.42 162.934L173.731 163.033L179.157 153.097L176.778 149.724Z" fill="#263238"/>
<path d="M175.536 152.821C174.321 153.619 173.311 154.692 172.588 155.953C171.864 157.214 171.449 158.628 171.374 160.08C171.374 162.746 173.245 163.823 175.553 162.492C176.769 161.699 177.781 160.631 178.507 159.373C179.233 158.116 179.652 156.705 179.731 155.256C179.731 152.573 177.86 151.491 175.536 152.821Z" fill="#455A64"/>
<path d="M195.485 134.76C195.522 133.854 195.311 132.956 194.874 132.162C194.437 131.368 193.791 130.709 193.007 130.255L185.533 125.944H185.5C185.143 125.788 184.752 125.728 184.365 125.768C183.978 125.809 183.608 125.95 183.292 126.176C182.365 126.781 181.595 127.596 181.045 128.556C180.494 129.515 180.178 130.591 180.123 131.696C180.123 132.8 180.565 133.584 181.266 133.849H181.31L188.486 136.123C189.263 136.369 189.946 136.847 190.444 137.492C190.942 138.137 191.232 138.919 191.273 139.733L192.096 155.062C192.117 155.391 192.263 155.699 192.503 155.924C192.744 156.15 193.061 156.275 193.39 156.275C193.72 156.275 194.037 156.15 194.277 155.924C194.518 155.699 194.663 155.391 194.685 155.062L195.485 134.76Z" fill="#263238"/>
<path d="M197.671 65.3181C197.671 65.3181 188.37 79.1568 186.808 82.5626C186.284 83.7163 185.831 84.3235 187.719 86.2665C189.607 88.2096 196.551 93.9945 197.23 94.8612C197.909 95.7278 197.881 97.0692 198.405 98.256C198.93 99.4428 198.328 102.617 198.803 104.571C199.278 106.525 204.4 103.655 204.4 98.6589C204.4 95.8548 204.494 94.2429 202.783 92.9237C201.072 91.6044 193.951 83.2581 193.951 83.2581L200.42 73.5043L197.671 65.3181Z" fill="#965454"/>
<path d="M199.587 76.2809C201.795 73.3718 205.421 69.0607 205.421 69.0607C207.11 66.7037 208.485 60.6041 205.813 58.5727C204.003 58.3022 202.292 58.3519 199.741 61.5204C197.191 64.6889 194.69 68.1885 192.041 72.0801C189.391 75.9717 185.864 81.6353 185.864 83.6721C185.864 85.709 189.971 89.1093 193.675 91.632C193.932 90.643 194.492 89.759 195.276 89.103C196.059 88.4471 197.028 88.0518 198.047 87.9722L194.569 83.1091C194.569 83.1091 197.384 79.1899 199.587 76.2809Z" fill="#0018F9"/>
<path opacity="0.05" d="M199.587 76.2809C201.795 73.3718 205.421 69.0607 205.421 69.0607C207.11 66.7037 208.485 60.6041 205.813 58.5727C204.003 58.3022 202.292 58.3519 199.741 61.5204C197.191 64.6889 194.69 68.1885 192.041 72.0801C189.391 75.9717 185.864 81.6353 185.864 83.6721C185.864 85.709 189.971 89.1093 193.675 91.632C193.932 90.643 194.492 89.759 195.276 89.103C196.059 88.4471 197.028 88.0518 198.047 87.9722L194.569 83.1091C194.569 83.1091 197.384 79.1899 199.587 76.2809Z" fill="black"/>
<path d="M199.824 62.8397C200.321 62.9084 200.799 63.0763 201.229 63.3333C201.66 63.5902 202.034 63.9311 202.33 64.3356L202.424 64.1865C202.474 64.112 202.497 64.0225 202.489 63.9331C202.481 63.8437 202.443 63.7597 202.38 63.6953C201.843 63.0919 201.134 62.668 200.349 62.4809C200.273 62.4667 200.196 62.4748 200.125 62.5042C200.054 62.5336 199.994 62.5831 199.951 62.6465L199.824 62.8397Z" fill="#37474F"/>
<path d="M201 65.815C200.498 66.5822 199.625 66.919 199.046 66.5215C198.466 66.1241 198.405 65.2188 198.908 64.446C199.41 63.6732 200.288 63.342 200.862 63.7394C201.436 64.1369 201.48 65.0477 201 65.815Z" fill="#37474F"/>
<path d="M127.584 203.578L65.9695 168.007L35.1624 185.792L96.7766 221.363L127.584 203.578Z" fill="#0018F9"/>
<path opacity="0.15" d="M38.4026 185.792L96.7766 219.464L124.343 203.55L65.9695 169.878L38.4026 185.792ZM40.0255 185.792L65.9695 170.811L122.721 203.572L96.7766 218.553L40.0255 185.792Z" fill="black"/>
<g opacity="0.15">
<path opacity="0.15" d="M82.5239 203.892C78.3231 203.892 74.0176 202.926 70.6945 201.005C67.4598 199.14 65.6106 196.589 65.6106 194.022C65.6106 191.66 67.1286 189.485 69.8831 187.89C75.7729 184.495 85.7144 184.705 92.0514 188.359C95.2806 190.225 97.1353 192.775 97.1353 195.347C97.1353 197.704 95.6173 199.885 92.8628 201.474C90.1083 203.064 86.3382 203.892 82.5239 203.892ZM80.222 186.024C76.5071 186.024 72.886 186.802 70.1591 188.376C67.5812 189.866 66.1626 191.87 66.1626 194.028C66.1626 196.396 67.9124 198.77 70.9705 200.536C77.1529 204.102 86.8515 204.317 92.5868 201.005C95.1647 199.515 96.5833 197.506 96.5833 195.353C96.5833 192.979 94.8335 190.611 91.7754 188.845C88.5296 186.968 84.3179 186.024 80.222 186.024Z" fill="black"/>
</g>
<g opacity="0.1">
<path opacity="0.1" d="M82.5238 201.905C78.5329 201.905 74.5861 200.95 71.6936 199.278C69.0937 197.776 67.6033 195.861 67.6033 194.022C67.6033 192.405 68.768 190.843 70.8822 189.606C73.2944 188.215 76.6119 187.448 80.222 187.448C84.2129 187.448 88.1597 188.409 91.0522 190.076C93.6521 191.577 95.1425 193.493 95.1425 195.336C95.1425 196.954 93.9778 198.516 91.8637 199.752C89.4514 201.138 86.1118 201.905 82.5238 201.905Z" fill="black"/>
</g>
<path opacity="0.1" d="M93.5308 215.28L76.5955 205.438L77.9534 205.614C79.1653 205.769 80.3859 205.847 81.6076 205.846C85.7262 205.772 89.7664 204.708 93.3873 202.744C96.3847 201.016 99.4096 197.92 99.4096 194.906C99.4032 193.854 99.1697 192.817 98.7251 191.864L98.3608 191.075L116.908 201.844L114.877 203.02C114.534 203.219 114.325 203.462 114.325 203.716C114.347 203.87 114.41 204.016 114.507 204.138C114.604 204.26 114.731 204.354 114.877 204.411L116.914 205.587L100.017 215.28L98.2559 214.248C97.7951 214.017 97.2866 213.896 96.7711 213.896C96.2555 213.896 95.747 214.017 95.2862 214.248L93.5308 215.28Z" fill="black"/>
<path d="M101.016 208.385C100.031 208.4 99.0576 208.163 98.1898 207.695C97.8387 207.535 97.5356 207.286 97.3109 206.972C97.0862 206.658 96.9477 206.291 96.9092 205.907C96.9322 205.566 97.047 205.238 97.2413 204.957C97.4357 204.676 97.7024 204.453 98.0132 204.312C98.8447 203.912 99.7584 203.713 100.681 203.732C101.603 203.75 102.508 203.984 103.323 204.417C103.675 204.577 103.979 204.828 104.204 205.142C104.428 205.457 104.566 205.826 104.604 206.211C104.582 206.552 104.467 206.88 104.273 207.161C104.078 207.442 103.811 207.665 103.5 207.806C102.735 208.206 101.88 208.406 101.016 208.385Z" fill="#0018F9"/>
<path opacity="0.1" d="M64.4237 198.289L45.9152 187.625L47.9465 186.455C48.1001 186.413 48.2358 186.322 48.3326 186.196C48.4293 186.07 48.4818 185.915 48.4818 185.756C48.4818 185.597 48.4293 185.443 48.3326 185.316C48.2358 185.19 48.1001 185.099 47.9465 185.058L45.9097 183.882L62.7788 174.277L64.5342 175.293C64.9943 175.523 65.5017 175.643 66.0163 175.643C66.5308 175.643 67.0383 175.523 67.4984 175.293L69.2593 174.277L86.1891 184.02L84.8202 183.844C83.6064 183.688 82.384 183.611 81.1604 183.612C77.1474 183.612 72.356 184.821 69.2317 186.626C65.3345 188.878 63.3584 191.29 63.3584 193.802C63.3711 195.069 63.6123 196.324 64.0705 197.506L64.4237 198.289Z" fill="black"/>
<path d="M62.216 186.09C61.2288 186.104 60.2543 185.867 59.3843 185.4C59.0334 185.239 58.731 184.988 58.5072 184.673C58.2835 184.359 58.1462 183.991 58.1091 183.606C58.132 183.266 58.2467 182.939 58.4411 182.659C58.6356 182.379 58.9024 182.157 59.2131 182.016C60.0443 181.616 60.9582 181.416 61.8808 181.434C62.8034 181.453 63.7087 181.688 64.5234 182.121C64.8742 182.283 65.1767 182.533 65.4004 182.848C65.6242 183.163 65.7614 183.531 65.7985 183.915C65.7751 184.255 65.6601 184.583 65.4657 184.862C65.2714 185.142 65.0049 185.364 64.6945 185.505C63.932 185.909 63.0786 186.111 62.216 186.09Z" fill="#0018F9"/>
<path d="M127.584 203.578V211.063L96.7766 228.848V221.363L127.584 203.578Z" fill="#0018F9"/>
<g opacity="0.4">
<path opacity="0.4" d="M127.584 203.578V211.063L96.7766 228.848V221.363L127.584 203.578Z" fill="white"/>
</g>
<path d="M96.7766 223.03L106.503 217.62L96.7766 223.483V223.03Z" fill="#0018F9"/>
<path d="M127.584 207.132L124.338 209.191L127.584 207.508V207.132Z" fill="#0018F9"/>
<path d="M127.584 208.915L111.371 218.553L127.584 209.467V208.915Z" fill="#0018F9"/>
<path d="M96.7766 224.813L112.989 215.744L96.7766 225.404V224.813Z" fill="#0018F9"/>
<path d="M96.7766 228.848L35.1624 193.277V185.792L96.7766 221.363V228.848Z" fill="#0018F9"/>
<g opacity="0.15">
<path opacity="0.15" d="M96.7766 228.848L35.1624 193.277V185.792L96.7766 221.363V228.848Z" fill="black"/>
</g>
<g style="mix-blend-mode:multiply" opacity="0.3">
<g style="mix-blend-mode:multiply" opacity="0.3">
<path d="M96.7765 223.03L93.5308 221.363L96.7765 223.483V223.03Z" fill="black"/>
</g>
</g>
<g style="mix-blend-mode:multiply" opacity="0.3">
<g style="mix-blend-mode:multiply" opacity="0.3">
<path d="M96.7766 224.813L80.4705 215.7L96.7766 225.404V224.813Z" fill="black"/>
</g>
</g>
<g style="mix-blend-mode:multiply" opacity="0.3">
<g style="mix-blend-mode:multiply" opacity="0.3">
<path d="M35.1624 189.314L46.5115 196.087L35.1624 189.756V189.314Z" fill="black"/>
</g>
</g>
<g style="mix-blend-mode:multiply" opacity="0.3">
<g style="mix-blend-mode:multiply" opacity="0.3">
<path d="M35.1624 191.196L41.6483 195.154L35.1624 191.616V191.196Z" fill="black"/>
</g>
</g>
<path d="M102.142 187.647L70.2641 206.056L60.5378 200.442L92.4158 182.028L102.142 187.647Z" fill="#FAFAFA"/>
<path d="M60.5378 200.442V208.59L70.2641 214.204V206.056L60.5378 200.442Z" fill="#EBEBEB"/>
<path d="M70.2642 214.204L70.8327 213.872L70.2642 213.547V214.204Z" fill="#E0E0E0"/>
<path d="M102.142 187.647V188.889L101.066 188.265L102.142 187.647Z" fill="#E0E0E0"/>
<g style="mix-blend-mode:multiply" opacity="0.3">
<g style="mix-blend-mode:multiply" opacity="0.3">
<path d="M70.8327 213.867V206.387L70.2642 206.056V213.541L70.8327 213.867Z" fill="black"/>
</g>
</g>
<g style="mix-blend-mode:multiply" opacity="0.2">
<g style="mix-blend-mode:multiply" opacity="0.2">
<path d="M70.8327 206.387L101.64 188.596L101.066 188.265L70.2642 206.056L70.8327 206.387Z" fill="black"/>
</g>
</g>
<path d="M101.099 187.04L69.2097 205.449L68.4038 204.98L100.282 186.576L101.099 187.04Z" fill="#455A64"/>
<path d="M94.2815 183.109L62.398 201.513L61.592 201.049L93.47 182.646L94.2815 183.109Z" fill="#455A64"/>
<path d="M69.2097 205.449V213.596L68.4038 213.127V204.98L69.2097 205.449Z" fill="#263238"/>
<path d="M62.3981 201.513V209.661L61.5867 209.191L61.5922 201.049L62.3981 201.513Z" fill="#263238"/>
<path d="M127.584 194.757L65.9695 159.186L35.1624 176.971L96.7766 212.542L127.584 194.757Z" fill="#0018F9"/>
<path opacity="0.15" d="M38.4026 176.971L96.7766 210.643L124.343 194.729L65.9695 161.057L38.4026 176.971ZM40.0255 176.971L65.9695 161.995L122.721 194.757L96.7766 209.738L40.0255 176.971Z" fill="black"/>
<g opacity="0.15">
<path opacity="0.15" d="M82.5239 195.077C78.3231 195.077 74.0176 194.105 70.6945 192.19C67.4598 190.324 65.6106 187.774 65.6106 185.202C65.6106 182.844 67.1286 180.664 69.8831 179.074C75.7729 175.674 85.7144 175.884 92.0514 179.544C95.2806 181.409 97.1353 183.96 97.1353 186.532C97.1353 188.889 95.6173 191.064 92.8628 192.659C90.1083 194.254 86.3382 195.077 82.5239 195.077ZM80.222 177.192C76.5071 177.192 72.886 177.97 70.1591 179.549C67.5812 181.034 66.1626 183.043 66.1626 185.196C66.1626 187.57 67.9124 189.943 70.9705 191.704C77.1529 195.276 86.8515 195.485 92.5868 192.173C95.1647 190.683 96.5833 188.679 96.5833 186.526C96.5833 184.153 94.8335 181.779 91.7754 180.013C88.5296 178.147 84.3179 177.192 80.222 177.192Z" fill="black"/>
</g>
<g opacity="0.1">
<path opacity="0.1" d="M82.5238 193.09C78.5329 193.09 74.5861 192.129 71.6936 190.462C69.0937 188.961 67.6033 187.045 67.6033 185.202C67.6033 183.584 68.768 182.022 70.8822 180.786C73.2944 179.394 76.6119 178.627 80.222 178.627C84.2129 178.627 88.1597 179.582 91.0522 181.255C93.6521 182.756 95.1425 184.672 95.1425 186.515C95.1425 188.133 93.9778 189.695 91.8637 190.931C89.4514 192.322 86.1118 193.09 82.5238 193.09Z" fill="black"/>
</g>
<path opacity="0.1" d="M93.5308 206.448L76.5955 196.611L77.9534 196.788C79.1653 196.943 80.3859 197.02 81.6076 197.02C85.7262 196.946 89.7664 195.882 93.3873 193.918C96.3847 192.19 99.4096 189.093 99.4096 186.074C99.4026 185.024 99.1691 183.989 98.7251 183.038L98.3608 182.248L116.908 193.012L114.877 194.188C114.732 194.246 114.605 194.341 114.508 194.462C114.411 194.584 114.348 194.73 114.325 194.884C114.346 195.039 114.409 195.186 114.506 195.309C114.603 195.432 114.731 195.527 114.877 195.585L116.914 196.76L100.017 206.448L98.2559 205.432C97.7951 205.201 97.2866 205.081 96.7711 205.081C96.2555 205.081 95.747 205.201 95.2862 205.432L93.5308 206.448Z" fill="black"/>
<path d="M101.016 199.57C100.031 199.585 99.0576 199.348 98.1898 198.88C97.8379 198.719 97.5344 198.469 97.3096 198.154C97.0849 197.839 96.9468 197.471 96.9092 197.086C96.9332 196.746 97.0484 196.419 97.2427 196.139C97.437 195.86 97.7032 195.638 98.0132 195.496C98.8443 195.095 99.7582 194.896 100.681 194.914C101.603 194.932 102.509 195.168 103.323 195.601C103.675 195.762 103.979 196.012 104.204 196.327C104.428 196.642 104.566 197.01 104.604 197.395C104.581 197.735 104.466 198.063 104.272 198.343C104.078 198.623 103.811 198.845 103.5 198.985C102.736 199.39 101.881 199.591 101.016 199.57Z" fill="#0018F9"/>
<path opacity="0.1" d="M64.4237 189.474L45.9152 178.809L47.9465 177.634C48.0918 177.577 48.2194 177.482 48.3163 177.36C48.4133 177.238 48.4761 177.092 48.4985 176.938C48.4985 176.684 48.3109 176.441 47.9465 176.243L45.9097 175.061L62.7788 165.456L64.5342 166.478C64.9951 166.705 65.5023 166.823 66.0163 166.823C66.5303 166.823 67.0374 166.705 67.4984 166.478L69.2593 165.462L86.1891 175.21L84.8202 175.034C83.6065 174.877 82.3841 174.797 81.1604 174.796C77.1474 174.796 72.356 176.011 69.2317 177.816C65.3345 180.068 63.3584 182.48 63.3584 184.992C63.3721 186.259 63.6133 187.514 64.0705 188.696L64.4237 189.474Z" fill="black"/>
<path d="M62.216 177.275C61.2288 177.289 60.2543 177.052 59.3843 176.585C59.0334 176.423 58.731 176.173 58.5072 175.858C58.2835 175.543 58.1462 175.175 58.1091 174.791C58.1316 174.45 58.2461 174.121 58.4405 173.841C58.635 173.56 58.902 173.337 59.2131 173.196C60.0447 172.795 60.9588 172.597 61.8814 172.616C62.804 172.635 63.7091 172.872 64.5234 173.306C64.8735 173.467 65.1754 173.717 65.3991 174.03C65.6228 174.344 65.7605 174.711 65.7985 175.094C65.7761 175.435 65.6615 175.764 65.4671 176.045C65.2727 176.326 65.0056 176.549 64.6945 176.69C63.932 177.094 63.0786 177.295 62.216 177.275Z" fill="#0018F9"/>
<path d="M127.584 194.757V202.247L96.7766 220.033V212.542L127.584 194.757Z" fill="#0018F9"/>
<g opacity="0.4">
<path opacity="0.4" d="M127.584 194.757V202.247L96.7766 220.033V212.542L127.584 194.757Z" fill="white"/>
</g>
<path d="M96.7766 214.215L106.503 208.8L96.7766 214.667V214.215Z" fill="#0018F9"/>
<path d="M127.584 198.317L124.338 200.376L127.584 198.692V198.317Z" fill="#0018F9"/>
<path d="M127.584 200.1L111.371 209.738L127.584 200.652V200.1Z" fill="#0018F9"/>
<path d="M96.7766 215.998L112.989 206.928L96.7766 216.583V215.998Z" fill="#0018F9"/>
<path d="M96.7766 220.033L35.1624 184.462V176.971L96.7766 212.542V220.033Z" fill="#0018F9"/>
<g opacity="0.15">
<path opacity="0.15" d="M96.7766 220.033L35.1624 184.462V176.971L96.7766 212.542V220.033Z" fill="black"/>
</g>
<g style="mix-blend-mode:multiply" opacity="0.3">
<g style="mix-blend-mode:multiply" opacity="0.3">
<path d="M96.7765 214.215L93.5308 212.542L96.7765 214.667V214.215Z" fill="black"/>
</g>
</g>
<g style="mix-blend-mode:multiply" opacity="0.3">
<g style="mix-blend-mode:multiply" opacity="0.3">
<path d="M96.7766 215.998L80.4705 206.884L96.7766 216.583V215.998Z" fill="black"/>
</g>
</g>
<g style="mix-blend-mode:multiply" opacity="0.3">
<g style="mix-blend-mode:multiply" opacity="0.3">
<path d="M35.1624 180.498L46.5115 187.272L35.1624 180.94V180.498Z" fill="black"/>
</g>
</g>
<g style="mix-blend-mode:multiply" opacity="0.3">
<g style="mix-blend-mode:multiply" opacity="0.3">
<path d="M35.1624 182.381L41.6483 186.333L35.1624 182.8V182.381Z" fill="black"/>
</g>
</g>
<path d="M102.142 178.826L70.2641 197.235L60.5378 191.621L92.4158 173.212L102.142 178.826Z" fill="#FAFAFA"/>
<path d="M60.5378 191.621V199.769L70.2641 205.383V197.235L60.5378 191.621Z" fill="#EBEBEB"/>
<path d="M70.2642 205.383L70.8327 205.057L70.2642 204.726V205.383Z" fill="#E0E0E0"/>
<path d="M102.142 178.826V180.073L101.066 179.45L102.142 178.826Z" fill="#E0E0E0"/>
<g style="mix-blend-mode:multiply" opacity="0.3">
<g style="mix-blend-mode:multiply" opacity="0.3">
<path d="M70.8327 205.051V197.566L70.2642 197.235V204.726L70.8327 205.051Z" fill="black"/>
</g>
</g>
<g style="mix-blend-mode:multiply" opacity="0.2">
<g style="mix-blend-mode:multiply" opacity="0.2">
<path d="M70.8327 197.566L101.64 179.781L101.066 179.45L70.2642 197.235L70.8327 197.566Z" fill="black"/>
</g>
</g>
<path d="M101.099 178.224L69.2097 196.628L68.4038 196.164L100.282 177.755L101.099 178.224Z" fill="#455A64"/>
<path d="M94.2815 174.294L62.398 192.698L61.592 192.228L93.47 173.825L94.2815 174.294Z" fill="#455A64"/>
<path d="M69.2097 196.628V204.781L68.4038 204.312V196.164L69.2097 196.628Z" fill="#263238"/>
<path d="M62.3981 192.698V200.845L61.5867 200.376L61.5922 192.228L62.3981 192.698Z" fill="#263238"/>
</svg>
